<?xml version="1.0" encoding="utf-8" standalone="no"?>
<!DOCTYPE svg PUBLIC "-//W3C//DTD SVG 1.1//EN"
  "http://www.w3.org/Graphics/SVG/1.1/DTD/svg11.dtd">
<svg xmlns:xlink="http://www.w3.org/1999/xlink" width="576pt" height="432pt" viewBox="0 0 576 432" xmlns="http://www.w3.org/2000/svg" version="1.1">
 <metadata>
  <rdf:RDF xmlns:dc="http://purl.org/dc/elements/1.1/" xmlns:cc="http://creativecommons.org/ns#" xmlns:rdf="http://www.w3.org/1999/02/22-rdf-syntax-ns#">
   <cc:Work>
    <dc:type rdf:resource="http://purl.org/dc/dcmitype/StillImage"/>
    <dc:date>2025-07-22T17:49:27.860067</dc:date>
    <dc:format>image/svg+xml</dc:format>
    <dc:creator>
     <cc:Agent>
      <dc:title>Matplotlib v3.9.2, https://matplotlib.org/</dc:title>
     </cc:Agent>
    </dc:creator>
   </cc:Work>
  </rdf:RDF>
 </metadata>
 <defs>
  <style type="text/css">*{stroke-linejoin: round; stroke-linecap: butt}</style>
 </defs>
 <g id="figure_1">
  <g id="patch_1">
   <path d="M 0 432 
L 576 432 
L 576 0 
L 0 0 
z
" style="fill: #ffffff"/>
  </g>
  <g id="axes_1">
   <g id="patch_2">
    <path d="M 59.518 151.7104 
L 534.5198 151.7104 
L 534.5198 14.616 
L 59.518 14.616 
z
" style="fill: #ffffff"/>
   </g>
   <g id="matplotlib.axis_1">
    <g id="xtick_1">
     <g id="line2d_1">
      <path d="M 59.518 151.7104 
L 59.518 14.616 
" clip-path="url(#peb7c956896)" style="fill: none; stroke-dasharray: 2.96,1.28; stroke-dashoffset: 0; stroke: #b0b0b0; stroke-width: 0.8"/>
     </g>
     <g id="line2d_2">
      <defs>
       <path id="m2958449594" d="M 0 0 
L 0 3.5 
" style="stroke: #000000; stroke-width: 0.8"/>
      </defs>
      <g>
       <use xlink:href="#m2958449594" x="59.518" y="151.7104" style="stroke: #000000; stroke-width: 0.8"/>
      </g>
     </g>
    </g>
    <g id="xtick_2">
     <g id="line2d_3">
      <path d="M 138.684967 151.7104 
L 138.684967 14.616 
" clip-path="url(#peb7c956896)" style="fill: none; stroke-dasharray: 2.96,1.28; stroke-dashoffset: 0; stroke: #b0b0b0; stroke-width: 0.8"/>
     </g>
     <g id="line2d_4">
      <g>
       <use xlink:href="#m2958449594" x="138.684967" y="151.7104" style="stroke: #000000; stroke-width: 0.8"/>
      </g>
     </g>
    </g>
    <g id="xtick_3">
     <g id="line2d_5">
      <path d="M 217.851933 151.7104 
L 217.851933 14.616 
" clip-path="url(#peb7c956896)" style="fill: none; stroke-dasharray: 2.96,1.28; stroke-dashoffset: 0; stroke: #b0b0b0; stroke-width: 0.8"/>
     </g>
     <g id="line2d_6">
      <g>
       <use xlink:href="#m2958449594" x="217.851933" y="151.7104" style="stroke: #000000; stroke-width: 0.8"/>
      </g>
     </g>
    </g>
    <g id="xtick_4">
     <g id="line2d_7">
      <path d="M 297.0189 151.7104 
L 297.0189 14.616 
" clip-path="url(#peb7c956896)" style="fill: none; stroke-dasharray: 2.96,1.28; stroke-dashoffset: 0; stroke: #b0b0b0; stroke-width: 0.8"/>
     </g>
     <g id="line2d_8">
      <g>
       <use xlink:href="#m2958449594" x="297.0189" y="151.7104" style="stroke: #000000; stroke-width: 0.8"/>
      </g>
     </g>
    </g>
    <g id="xtick_5">
     <g id="line2d_9">
      <path d="M 376.185867 151.7104 
L 376.185867 14.616 
" clip-path="url(#peb7c956896)" style="fill: none; stroke-dasharray: 2.96,1.28; stroke-dashoffset: 0; stroke: #b0b0b0; stroke-width: 0.8"/>
     </g>
     <g id="line2d_10">
      <g>
       <use xlink:href="#m2958449594" x="376.185867" y="151.7104" style="stroke: #000000; stroke-width: 0.8"/>
      </g>
     </g>
    </g>
    <g id="xtick_6">
     <g id="line2d_11">
      <path d="M 455.352833 151.7104 
L 455.352833 14.616 
" clip-path="url(#peb7c956896)" style="fill: none; stroke-dasharray: 2.96,1.28; stroke-dashoffset: 0; stroke: #b0b0b0; stroke-width: 0.8"/>
     </g>
     <g id="line2d_12">
      <g>
       <use xlink:href="#m2958449594" x="455.352833" y="151.7104" style="stroke: #000000; stroke-width: 0.8"/>
      </g>
     </g>
    </g>
    <g id="xtick_7">
     <g id="line2d_13">
      <path d="M 534.5198 151.7104 
L 534.5198 14.616 
" clip-path="url(#peb7c956896)" style="fill: none; stroke-dasharray: 2.96,1.28; stroke-dashoffset: 0; stroke: #b0b0b0; stroke-width: 0.8"/>
     </g>
     <g id="line2d_14">
      <g>
       <use xlink:href="#m2958449594" x="534.5198" y="151.7104" style="stroke: #000000; stroke-width: 0.8"/>
      </g>
     </g>
    </g>
   </g>
   <g id="matplotlib.axis_2">
    <g id="ytick_1">
     <g id="line2d_15">
      <path d="M 59.518 151.7104 
L 534.5198 151.7104 
" clip-path="url(#peb7c956896)" style="fill: none; stroke-dasharray: 2.96,1.28; stroke-dashoffset: 0; stroke: #b0b0b0; stroke-width: 0.8"/>
     </g>
     <g id="line2d_16">
      <defs>
       <path id="m1c617fcc77" d="M 0 0 
L -3.5 0 
" style="stroke: #000000; stroke-width: 0.8"/>
      </defs>
      <g>
       <use xlink:href="#m1c617fcc77" x="59.518" y="151.7104" style="stroke: #000000; stroke-width: 0.8"/>
      </g>
     </g>
     <g id="text_1">
      <!-- 0 -->
      <g transform="translate(46.1555 155.509619) scale(0.1 -0.1)">
       <defs>
        <path id="DejaVuSans-30" d="M 2034 4250 
Q 1547 4250 1301 3770 
Q 1056 3291 1056 2328 
Q 1056 1369 1301 889 
Q 1547 409 2034 409 
Q 2525 409 2770 889 
Q 3016 1369 3016 2328 
Q 3016 3291 2770 3770 
Q 2525 4250 2034 4250 
z
M 2034 4750 
Q 2819 4750 3233 4129 
Q 3647 3509 3647 2328 
Q 3647 1150 3233 529 
Q 2819 -91 2034 -91 
Q 1250 -91 836 529 
Q 422 1150 422 2328 
Q 422 3509 836 4129 
Q 1250 4750 2034 4750 
z
" transform="scale(0.015625)"/>
       </defs>
       <use xlink:href="#DejaVuSans-30"/>
      </g>
     </g>
    </g>
    <g id="ytick_2">
     <g id="line2d_17">
      <path d="M 59.518 117.4368 
L 534.5198 117.4368 
" clip-path="url(#peb7c956896)" style="fill: none; stroke-dasharray: 2.96,1.28; stroke-dashoffset: 0; stroke: #b0b0b0; stroke-width: 0.8"/>
     </g>
     <g id="line2d_18">
      <g>
       <use xlink:href="#m1c617fcc77" x="59.518" y="117.4368" style="stroke: #000000; stroke-width: 0.8"/>
      </g>
     </g>
     <g id="text_2">
      <!-- 2 -->
      <g transform="translate(46.1555 121.236019) scale(0.1 -0.1)">
       <defs>
        <path id="DejaVuSans-32" d="M 1228 531 
L 3431 531 
L 3431 0 
L 469 0 
L 469 531 
Q 828 903 1448 1529 
Q 2069 2156 2228 2338 
Q 2531 2678 2651 2914 
Q 2772 3150 2772 3378 
Q 2772 3750 2511 3984 
Q 2250 4219 1831 4219 
Q 1534 4219 1204 4116 
Q 875 4013 500 3803 
L 500 4441 
Q 881 4594 1212 4672 
Q 1544 4750 1819 4750 
Q 2544 4750 2975 4387 
Q 3406 4025 3406 3419 
Q 3406 3131 3298 2873 
Q 3191 2616 2906 2266 
Q 2828 2175 2409 1742 
Q 1991 1309 1228 531 
z
" transform="scale(0.015625)"/>
       </defs>
       <use xlink:href="#DejaVuSans-32"/>
      </g>
     </g>
    </g>
    <g id="ytick_3">
     <g id="line2d_19">
      <path d="M 59.518 83.1632 
L 534.5198 83.1632 
" clip-path="url(#peb7c956896)" style="fill: none; stroke-dasharray: 2.96,1.28; stroke-dashoffset: 0; stroke: #b0b0b0; stroke-width: 0.8"/>
     </g>
     <g id="line2d_20">
      <g>
       <use xlink:href="#m1c617fcc77" x="59.518" y="83.1632" style="stroke: #000000; stroke-width: 0.8"/>
      </g>
     </g>
     <g id="text_3">
      <!-- 4 -->
      <g transform="translate(46.1555 86.962419) scale(0.1 -0.1)">
       <defs>
        <path id="DejaVuSans-34" d="M 2419 4116 
L 825 1625 
L 2419 1625 
L 2419 4116 
z
M 2253 4666 
L 3047 4666 
L 3047 1625 
L 3713 1625 
L 3713 1100 
L 3047 1100 
L 3047 0 
L 2419 0 
L 2419 1100 
L 313 1100 
L 313 1709 
L 2253 4666 
z
" transform="scale(0.015625)"/>
       </defs>
       <use xlink:href="#DejaVuSans-34"/>
      </g>
     </g>
    </g>
    <g id="ytick_4">
     <g id="line2d_21">
      <path d="M 59.518 48.8896 
L 534.5198 48.8896 
" clip-path="url(#peb7c956896)" style="fill: none; stroke-dasharray: 2.96,1.28; stroke-dashoffset: 0; stroke: #b0b0b0; stroke-width: 0.8"/>
     </g>
     <g id="line2d_22">
      <g>
       <use xlink:href="#m1c617fcc77" x="59.518" y="48.8896" style="stroke: #000000; stroke-width: 0.8"/>
      </g>
     </g>
     <g id="text_4">
      <!-- 6 -->
      <g transform="translate(46.1555 52.688819) scale(0.1 -0.1)">
       <defs>
        <path id="DejaVuSans-36" d="M 2113 2584 
Q 1688 2584 1439 2293 
Q 1191 2003 1191 1497 
Q 1191 994 1439 701 
Q 1688 409 2113 409 
Q 2538 409 2786 701 
Q 3034 994 3034 1497 
Q 3034 2003 2786 2293 
Q 2538 2584 2113 2584 
z
M 3366 4563 
L 3366 3988 
Q 3128 4100 2886 4159 
Q 2644 4219 2406 4219 
Q 1781 4219 1451 3797 
Q 1122 3375 1075 2522 
Q 1259 2794 1537 2939 
Q 1816 3084 2150 3084 
Q 2853 3084 3261 2657 
Q 3669 2231 3669 1497 
Q 3669 778 3244 343 
Q 2819 -91 2113 -91 
Q 1303 -91 875 529 
Q 447 1150 447 2328 
Q 447 3434 972 4092 
Q 1497 4750 2381 4750 
Q 2619 4750 2861 4703 
Q 3103 4656 3366 4563 
z
" transform="scale(0.015625)"/>
       </defs>
       <use xlink:href="#DejaVuSans-36"/>
      </g>
     </g>
    </g>
    <g id="ytick_5">
     <g id="line2d_23">
      <path d="M 59.518 14.616 
L 534.5198 14.616 
" clip-path="url(#peb7c956896)" style="fill: none; stroke-dasharray: 2.96,1.28; stroke-dashoffset: 0; stroke: #b0b0b0; stroke-width: 0.8"/>
     </g>
     <g id="line2d_24">
      <g>
       <use xlink:href="#m1c617fcc77" x="59.518" y="14.616" style="stroke: #000000; stroke-width: 0.8"/>
      </g>
     </g>
     <g id="text_5">
      <!-- 8 -->
      <g transform="translate(46.1555 18.415219) scale(0.1 -0.1)">
       <defs>
        <path id="DejaVuSans-38" d="M 2034 2216 
Q 1584 2216 1326 1975 
Q 1069 1734 1069 1313 
Q 1069 891 1326 650 
Q 1584 409 2034 409 
Q 2484 409 2743 651 
Q 3003 894 3003 1313 
Q 3003 1734 2745 1975 
Q 2488 2216 2034 2216 
z
M 1403 2484 
Q 997 2584 770 2862 
Q 544 3141 544 3541 
Q 544 4100 942 4425 
Q 1341 4750 2034 4750 
Q 2731 4750 3128 4425 
Q 3525 4100 3525 3541 
Q 3525 3141 3298 2862 
Q 3072 2584 2669 2484 
Q 3125 2378 3379 2068 
Q 3634 1759 3634 1313 
Q 3634 634 3220 271 
Q 2806 -91 2034 -91 
Q 1263 -91 848 271 
Q 434 634 434 1313 
Q 434 1759 690 2068 
Q 947 2378 1403 2484 
z
M 1172 3481 
Q 1172 3119 1398 2916 
Q 1625 2713 2034 2713 
Q 2441 2713 2670 2916 
Q 2900 3119 2900 3481 
Q 2900 3844 2670 4047 
Q 2441 4250 2034 4250 
Q 1625 4250 1398 4047 
Q 1172 3844 1172 3481 
z
" transform="scale(0.015625)"/>
       </defs>
       <use xlink:href="#DejaVuSans-38"/>
      </g>
     </g>
    </g>
    <g id="text_6">
     <!-- $\dot V_{feed,silage} \; [m^3/d]$ -->
     <g transform="translate(39.0555 124.2132) rotate(-90) scale(0.1 -0.1)">
      <defs>
       <path id="DejaVuSans-307" d="M -1894 4863 
L -1319 4863 
L -1319 4134 
L -1894 4134 
L -1894 4863 
z
M -1600 3584 
L -1600 3584 
z
" transform="scale(0.015625)"/>
       <path id="DejaVuSans-Oblique-56" d="M 1319 0 
L 500 4666 
L 1119 4666 
L 1797 653 
L 4063 4666 
L 4750 4666 
L 2053 0 
L 1319 0 
z
" transform="scale(0.015625)"/>
       <path id="DejaVuSans-Oblique-66" d="M 3059 4863 
L 2969 4384 
L 2419 4384 
Q 2106 4384 1964 4261 
Q 1822 4138 1753 3809 
L 1691 3500 
L 2638 3500 
L 2553 3053 
L 1606 3053 
L 1013 0 
L 434 0 
L 1031 3053 
L 481 3053 
L 563 3500 
L 1113 3500 
L 1159 3744 
Q 1278 4363 1576 4613 
Q 1875 4863 2516 4863 
L 3059 4863 
z
" transform="scale(0.015625)"/>
       <path id="DejaVuSans-Oblique-65" d="M 3078 2063 
Q 3088 2113 3092 2166 
Q 3097 2219 3097 2272 
Q 3097 2653 2873 2875 
Q 2650 3097 2266 3097 
Q 1838 3097 1509 2826 
Q 1181 2556 1013 2059 
L 3078 2063 
z
M 3578 1613 
L 903 1613 
Q 884 1494 878 1425 
Q 872 1356 872 1306 
Q 872 872 1139 634 
Q 1406 397 1894 397 
Q 2269 397 2603 481 
Q 2938 566 3225 728 
L 3116 159 
Q 2806 34 2476 -28 
Q 2147 -91 1806 -91 
Q 1078 -91 686 257 
Q 294 606 294 1247 
Q 294 1794 489 2264 
Q 684 2734 1063 3103 
Q 1306 3334 1642 3459 
Q 1978 3584 2356 3584 
Q 2950 3584 3301 3228 
Q 3653 2872 3653 2272 
Q 3653 2128 3634 1964 
Q 3616 1800 3578 1613 
z
" transform="scale(0.015625)"/>
       <path id="DejaVuSans-Oblique-64" d="M 2675 525 
Q 2444 222 2128 65 
Q 1813 -91 1428 -91 
Q 903 -91 598 267 
Q 294 625 294 1247 
Q 294 1766 478 2236 
Q 663 2706 1013 3078 
Q 1244 3325 1534 3454 
Q 1825 3584 2144 3584 
Q 2481 3584 2739 3421 
Q 2997 3259 3138 2956 
L 3513 4863 
L 4091 4863 
L 3144 0 
L 2566 0 
L 2675 525 
z
M 891 1350 
Q 891 897 1095 644 
Q 1300 391 1663 391 
Q 1931 391 2161 520 
Q 2391 650 2566 903 
Q 2750 1166 2856 1509 
Q 2963 1853 2963 2188 
Q 2963 2622 2758 2865 
Q 2553 3109 2194 3109 
Q 1922 3109 1687 2981 
Q 1453 2853 1288 2613 
Q 1106 2353 998 2009 
Q 891 1666 891 1350 
z
" transform="scale(0.015625)"/>
       <path id="DejaVuSans-2c" d="M 750 794 
L 1409 794 
L 1409 256 
L 897 -744 
L 494 -744 
L 750 256 
L 750 794 
z
" transform="scale(0.015625)"/>
       <path id="DejaVuSans-Oblique-73" d="M 3200 3397 
L 3091 2853 
Q 2863 2978 2609 3040 
Q 2356 3103 2088 3103 
Q 1634 3103 1373 2948 
Q 1113 2794 1113 2528 
Q 1113 2219 1719 2053 
Q 1766 2041 1788 2034 
L 1972 1978 
Q 2547 1819 2739 1644 
Q 2931 1469 2931 1166 
Q 2931 609 2489 259 
Q 2047 -91 1331 -91 
Q 1053 -91 747 -37 
Q 441 16 72 128 
L 184 722 
Q 500 559 806 475 
Q 1113 391 1394 391 
Q 1816 391 2080 572 
Q 2344 753 2344 1031 
Q 2344 1331 1650 1516 
L 1591 1531 
L 1394 1581 
Q 956 1697 753 1886 
Q 550 2075 550 2369 
Q 550 2928 970 3256 
Q 1391 3584 2113 3584 
Q 2397 3584 2667 3537 
Q 2938 3491 3200 3397 
z
" transform="scale(0.015625)"/>
       <path id="DejaVuSans-Oblique-69" d="M 1172 4863 
L 1747 4863 
L 1606 4134 
L 1031 4134 
L 1172 4863 
z
M 909 3500 
L 1484 3500 
L 800 0 
L 225 0 
L 909 3500 
z
" transform="scale(0.015625)"/>
       <path id="DejaVuSans-Oblique-6c" d="M 1172 4863 
L 1747 4863 
L 800 0 
L 225 0 
L 1172 4863 
z
" transform="scale(0.015625)"/>
       <path id="DejaVuSans-Oblique-61" d="M 3438 1997 
L 3047 0 
L 2472 0 
L 2578 531 
Q 2325 219 2001 64 
Q 1678 -91 1281 -91 
Q 834 -91 548 182 
Q 263 456 263 884 
Q 263 1497 752 1853 
Q 1241 2209 2100 2209 
L 2900 2209 
L 2931 2363 
Q 2938 2388 2941 2417 
Q 2944 2447 2944 2509 
Q 2944 2788 2717 2942 
Q 2491 3097 2081 3097 
Q 1800 3097 1504 3025 
Q 1209 2953 897 2809 
L 997 3341 
Q 1322 3463 1633 3523 
Q 1944 3584 2234 3584 
Q 2853 3584 3176 3315 
Q 3500 3047 3500 2534 
Q 3500 2431 3484 2292 
Q 3469 2153 3438 1997 
z
M 2816 1759 
L 2241 1759 
Q 1534 1759 1195 1570 
Q 856 1381 856 984 
Q 856 709 1029 553 
Q 1203 397 1509 397 
Q 1978 397 2328 733 
Q 2678 1069 2791 1631 
L 2816 1759 
z
" transform="scale(0.015625)"/>
       <path id="DejaVuSans-Oblique-67" d="M 3816 3500 
L 3219 434 
Q 3047 -456 2561 -893 
Q 2075 -1331 1253 -1331 
Q 950 -1331 690 -1286 
Q 431 -1241 206 -1147 
L 313 -588 
Q 525 -725 762 -790 
Q 1000 -856 1269 -856 
Q 1816 -856 2167 -557 
Q 2519 -259 2631 300 
L 2681 563 
Q 2441 288 2122 144 
Q 1803 0 1434 0 
Q 903 0 598 351 
Q 294 703 294 1319 
Q 294 1803 478 2267 
Q 663 2731 997 3091 
Q 1219 3328 1514 3456 
Q 1809 3584 2131 3584 
Q 2484 3584 2746 3420 
Q 3009 3256 3138 2956 
L 3238 3500 
L 3816 3500 
z
M 2950 2216 
Q 2950 2641 2750 2872 
Q 2550 3103 2181 3103 
Q 1953 3103 1747 3012 
Q 1541 2922 1394 2759 
Q 1156 2491 1023 2127 
Q 891 1763 891 1375 
Q 891 944 1092 712 
Q 1294 481 1672 481 
Q 2219 481 2584 976 
Q 2950 1472 2950 2216 
z
" transform="scale(0.015625)"/>
       <path id="DejaVuSans-5b" d="M 550 4863 
L 1875 4863 
L 1875 4416 
L 1125 4416 
L 1125 -397 
L 1875 -397 
L 1875 -844 
L 550 -844 
L 550 4863 
z
" transform="scale(0.015625)"/>
       <path id="DejaVuSans-Oblique-6d" d="M 5747 2113 
L 5338 0 
L 4763 0 
L 5166 2094 
Q 5191 2228 5203 2325 
Q 5216 2422 5216 2491 
Q 5216 2772 5059 2928 
Q 4903 3084 4622 3084 
Q 4203 3084 3875 2770 
Q 3547 2456 3450 1953 
L 3066 0 
L 2491 0 
L 2900 2094 
Q 2925 2209 2937 2307 
Q 2950 2406 2950 2484 
Q 2950 2769 2794 2926 
Q 2638 3084 2363 3084 
Q 1938 3084 1609 2770 
Q 1281 2456 1184 1953 
L 800 0 
L 225 0 
L 909 3500 
L 1484 3500 
L 1375 2956 
Q 1609 3263 1923 3423 
Q 2238 3584 2597 3584 
Q 2978 3584 3223 3384 
Q 3469 3184 3519 2828 
Q 3781 3197 4126 3390 
Q 4472 3584 4856 3584 
Q 5306 3584 5551 3325 
Q 5797 3066 5797 2591 
Q 5797 2488 5784 2364 
Q 5772 2241 5747 2113 
z
" transform="scale(0.015625)"/>
       <path id="DejaVuSans-33" d="M 2597 2516 
Q 3050 2419 3304 2112 
Q 3559 1806 3559 1356 
Q 3559 666 3084 287 
Q 2609 -91 1734 -91 
Q 1441 -91 1130 -33 
Q 819 25 488 141 
L 488 750 
Q 750 597 1062 519 
Q 1375 441 1716 441 
Q 2309 441 2620 675 
Q 2931 909 2931 1356 
Q 2931 1769 2642 2001 
Q 2353 2234 1838 2234 
L 1294 2234 
L 1294 2753 
L 1863 2753 
Q 2328 2753 2575 2939 
Q 2822 3125 2822 3475 
Q 2822 3834 2567 4026 
Q 2313 4219 1838 4219 
Q 1578 4219 1281 4162 
Q 984 4106 628 3988 
L 628 4550 
Q 988 4650 1302 4700 
Q 1616 4750 1894 4750 
Q 2613 4750 3031 4423 
Q 3450 4097 3450 3541 
Q 3450 3153 3228 2886 
Q 3006 2619 2597 2516 
z
" transform="scale(0.015625)"/>
       <path id="DejaVuSans-2f" d="M 1625 4666 
L 2156 4666 
L 531 -594 
L 0 -594 
L 1625 4666 
z
" transform="scale(0.015625)"/>
       <path id="DejaVuSans-5d" d="M 1947 4863 
L 1947 -844 
L 622 -844 
L 622 -397 
L 1369 -397 
L 1369 4416 
L 622 4416 
L 622 4863 
L 1947 4863 
z
" transform="scale(0.015625)"/>
      </defs>
      <use xlink:href="#DejaVuSans-307" transform="translate(66.195312 30.015625)"/>
      <use xlink:href="#DejaVuSans-Oblique-56" transform="translate(0 0.609375)"/>
      <use xlink:href="#DejaVuSans-Oblique-66" transform="translate(69.365234 -15.796875) scale(0.7)"/>
      <use xlink:href="#DejaVuSans-Oblique-65" transform="translate(94.008789 -15.796875) scale(0.7)"/>
      <use xlink:href="#DejaVuSans-Oblique-65" transform="translate(137.075195 -15.796875) scale(0.7)"/>
      <use xlink:href="#DejaVuSans-Oblique-64" transform="translate(180.141602 -15.796875) scale(0.7)"/>
      <use xlink:href="#DejaVuSans-2c" transform="translate(224.575195 -15.796875) scale(0.7)"/>
      <use xlink:href="#DejaVuSans-Oblique-73" transform="translate(260.463867 -15.796875) scale(0.7)"/>
      <use xlink:href="#DejaVuSans-Oblique-69" transform="translate(296.933594 -15.796875) scale(0.7)"/>
      <use xlink:href="#DejaVuSans-Oblique-6c" transform="translate(316.381836 -15.796875) scale(0.7)"/>
      <use xlink:href="#DejaVuSans-Oblique-61" transform="translate(335.830078 -15.796875) scale(0.7)"/>
      <use xlink:href="#DejaVuSans-Oblique-67" transform="translate(378.725586 -15.796875) scale(0.7)"/>
      <use xlink:href="#DejaVuSans-Oblique-65" transform="translate(423.15918 -15.796875) scale(0.7)"/>
      <use xlink:href="#DejaVuSans-5b" transform="translate(496.019097 0.609375)"/>
      <use xlink:href="#DejaVuSans-Oblique-6d" transform="translate(535.032769 0.609375)"/>
      <use xlink:href="#DejaVuSans-33" transform="translate(637.094774 38.890625) scale(0.7)"/>
      <use xlink:href="#DejaVuSans-2f" transform="translate(684.365282 0.609375)"/>
      <use xlink:href="#DejaVuSans-Oblique-64" transform="translate(718.056688 0.609375)"/>
      <use xlink:href="#DejaVuSans-5d" transform="translate(781.53325 0.609375)"/>
     </g>
    </g>
   </g>
   <g id="line2d_25">
    <path d="M 59.518 62.219339 
L 59.847862 85.262369 
L 60.507587 110.074815 
L 61.167312 121.499093 
L 61.827037 126.895407 
L 62.486761 129.447029 
L 63.146486 130.652864 
L 63.806211 131.232737 
L 64.795798 131.625473 
L 66.44511 131.923088 
L 73.042357 132.746529 
L 80.959053 133.517713 
L 90.1952 134.180915 
L 101.080658 134.728819 
L 106.688318 134.939019 
L 107.01818 37.799876 
L 107.677905 67.894247 
L 108.337629 86.169124 
L 108.997354 97.737338 
L 109.657079 105.192271 
L 110.316804 110.033724 
L 110.976528 113.183562 
L 111.636253 115.229055 
L 112.295978 116.552698 
L 112.955703 117.406854 
L 113.615427 117.958993 
L 114.605014 118.453256 
L 115.924464 118.808351 
L 119.882812 119.463931 
L 133.737031 121.698098 
L 140.994003 122.546868 
L 149.240562 123.287237 
L 154.51836 123.663008 
L 154.848222 151.710411 
L 156.497534 151.710328 
L 157.157259 143.172264 
L 157.816984 138.247347 
L 158.476708 135.69477 
L 159.136433 134.360969 
L 159.796158 133.650777 
L 160.455882 133.261417 
L 161.44547 132.962477 
L 163.094781 132.743755 
L 168.042717 132.421106 
L 179.258037 131.901526 
L 193.112256 131.493763 
L 202.01854 131.323345 
L 202.348402 151.710412 
L 205.647026 151.710374 
L 206.306751 146.203549 
L 206.966475 143.27075 
L 207.6262 141.842327 
L 208.285925 141.079058 
L 208.94565 140.640833 
L 209.935237 140.266144 
L 211.584548 139.919833 
L 215.542897 139.386415 
L 222.799869 138.637569 
L 231.706153 137.948735 
L 242.261748 137.369546 
L 254.796518 136.912454 
L 270.959773 136.557835 
L 293.060552 136.311844 
L 328.025962 136.17065 
L 406.203342 136.132923 
L 502.523151 136.151476 
L 502.523151 136.151476 
" clip-path="url(#peb7c956896)" style="fill: none; stroke: #ffa500; stroke-width: 2.5; stroke-linecap: square"/>
   </g>
   <g id="line2d_26">
    <path d="M 59.518 38.529219 
L 59.847862 67.792616 
L 60.507587 99.178359 
L 61.167312 113.57818 
L 61.827037 120.366678 
L 62.486761 123.572921 
L 63.146486 125.087233 
L 63.806211 125.815464 
L 64.465935 126.188343 
L 65.785385 126.558667 
L 69.743733 127.233779 
L 76.670843 128.209913 
L 84.257677 129.036908 
L 92.834098 129.738325 
L 103.059832 130.33891 
L 106.688318 130.505209 
L 107.01818 8.546842 
L 107.677905 46.66537 
L 108.337629 69.663422 
L 108.997354 84.149174 
L 109.657079 93.447103 
L 110.316804 99.465124 
L 110.976528 103.368644 
L 111.636253 105.896292 
L 112.295978 107.527121 
L 112.955703 108.576106 
L 113.615427 109.251671 
L 114.605014 109.853257 
L 115.924464 110.282276 
L 119.223087 110.943007 
L 135.716205 114.14752 
L 142.643315 115.095677 
L 150.230149 115.909433 
L 154.51836 116.285628 
L 154.848222 151.710411 
L 156.497534 151.71032 
L 157.157259 140.966441 
L 157.816984 134.728323 
L 158.476708 131.491498 
L 159.136433 129.799074 
L 159.796158 128.897644 
L 160.455882 128.403406 
L 161.44547 128.024041 
L 163.094781 127.746759 
L 167.382992 127.385772 
L 177.278863 126.778537 
L 188.824046 126.29754 
L 202.01854 125.949552 
L 202.348402 151.710412 
L 205.647026 151.710374 
L 206.636613 142.630563 
L 207.296338 140.042246 
L 207.956062 138.714366 
L 208.615787 137.979887 
L 209.275512 137.542069 
L 210.265099 137.146459 
L 212.244273 136.684606 
L 216.532484 135.994519 
L 223.459593 135.116937 
L 231.37629 134.346689 
L 240.612436 133.682772 
L 251.497894 133.134723 
L 264.692389 132.701409 
L 281.845231 132.372894 
L 305.925184 132.151779 
L 345.838529 132.036252 
L 450.73476 132.028491 
L 502.523151 132.042325 
L 502.523151 132.042325 
" clip-path="url(#peb7c956896)" style="fill: none; stroke: #32cd32; stroke-width: 1.833333; stroke-linecap: square"/>
   </g>
   <g id="line2d_27">
    <path d="M 59.518 61.072546 
L 59.847862 83.559869 
L 60.507587 108.033369 
L 61.167312 119.368601 
L 61.827037 124.732929 
L 62.486761 127.271877 
L 63.146486 128.474574 
L 63.806211 129.05688 
L 64.795798 129.458912 
L 66.44511 129.777651 
L 73.042357 130.683571 
L 80.629191 131.501077 
L 89.205612 132.194081 
L 99.431346 132.786662 
L 106.688318 133.094831 
L 107.01818 32.164943 
L 107.677905 62.750949 
L 108.337629 81.537032 
L 108.997354 93.507401 
L 109.657079 101.253546 
L 110.316804 106.297097 
L 110.976528 109.583338 
L 111.636253 111.719078 
L 112.295978 113.101679 
L 112.955703 113.994269 
L 113.615427 114.571849 
L 114.605014 115.090602 
L 115.924464 115.467391 
L 119.882812 116.181751 
L 133.077307 118.51441 
L 140.004416 119.414623 
L 147.921113 120.210945 
L 154.51836 120.727632 
L 154.848222 151.710412 
L 156.167672 151.710401 
L 156.497534 150.475557 
L 157.157259 141.098345 
L 157.816984 136.183561 
L 158.476708 133.636076 
L 159.136433 132.302581 
L 159.796158 131.590149 
L 160.455882 131.197352 
L 161.44547 130.89232 
L 163.094781 130.662697 
L 168.042717 130.308628 
L 178.928175 129.748008 
L 191.792807 129.316719 
L 202.01854 129.094162 
L 202.348402 151.710412 
L 205.317164 151.710403 
L 205.647026 151.4943 
L 205.976888 147.434256 
L 206.306751 144.831065 
L 206.966475 141.958444 
L 207.6262 140.543165 
L 208.285925 139.779372 
L 208.94565 139.335365 
L 209.935237 138.948258 
L 211.584548 138.578964 
L 215.542897 137.993955 
L 222.470006 137.200849 
L 230.716565 136.480879 
L 240.282574 135.871059 
L 251.827757 135.364389 
L 266.3417 134.962974 
L 285.473717 134.67181 
L 313.512018 134.487487 
L 365.300409 134.407144 
L 502.523151 134.425019 
L 502.523151 134.425019 
" clip-path="url(#peb7c956896)" style="fill: none; stroke: #ff1493; stroke-width: 0.5; stroke-linecap: square"/>
   </g>
   <g id="patch_3">
    <path d="M 59.518 151.7104 
L 59.518 14.616 
" style="fill: none; stroke: #000000; stroke-width: 0.8; stroke-linejoin: miter; stroke-linecap: square"/>
   </g>
   <g id="patch_4">
    <path d="M 534.5198 151.7104 
L 534.5198 14.616 
" style="fill: none; stroke: #000000; stroke-width: 0.8; stroke-linejoin: miter; stroke-linecap: square"/>
   </g>
   <g id="patch_5">
    <path d="M 59.518 151.7104 
L 534.5198 151.7104 
" style="fill: none; stroke: #000000; stroke-width: 0.8; stroke-linejoin: miter; stroke-linecap: square"/>
   </g>
   <g id="patch_6">
    <path d="M 59.518 14.616 
L 534.5198 14.616 
" style="fill: none; stroke: #000000; stroke-width: 0.8; stroke-linejoin: miter; stroke-linecap: square"/>
   </g>
   <g id="legend_1">
    <g id="patch_7">
     <path d="M 66.518 66.650375 
L 186.118 66.650375 
Q 188.118 66.650375 188.118 64.650375 
L 188.118 21.616 
Q 188.118 19.616 186.118 19.616 
L 66.518 19.616 
Q 64.518 19.616 64.518 21.616 
L 64.518 64.650375 
Q 64.518 66.650375 66.518 66.650375 
z
" style="fill: #ffffff; opacity: 0.8; stroke: #cccccc; stroke-linejoin: miter"/>
    </g>
    <g id="line2d_28">
     <path d="M 68.518 27.714437 
L 78.518 27.714437 
L 88.518 27.714437 
" style="fill: none; stroke: #ffa500; stroke-width: 2.5; stroke-linecap: square"/>
    </g>
    <g id="text_7">
     <!-- Maize silage -->
     <g transform="translate(96.518 31.214437) scale(0.1 -0.1)">
      <defs>
       <path id="DejaVuSans-4d" d="M 628 4666 
L 1569 4666 
L 2759 1491 
L 3956 4666 
L 4897 4666 
L 4897 0 
L 4281 0 
L 4281 4097 
L 3078 897 
L 2444 897 
L 1241 4097 
L 1241 0 
L 628 0 
L 628 4666 
z
" transform="scale(0.015625)"/>
       <path id="DejaVuSans-61" d="M 2194 1759 
Q 1497 1759 1228 1600 
Q 959 1441 959 1056 
Q 959 750 1161 570 
Q 1363 391 1709 391 
Q 2188 391 2477 730 
Q 2766 1069 2766 1631 
L 2766 1759 
L 2194 1759 
z
M 3341 1997 
L 3341 0 
L 2766 0 
L 2766 531 
Q 2569 213 2275 61 
Q 1981 -91 1556 -91 
Q 1019 -91 701 211 
Q 384 513 384 1019 
Q 384 1609 779 1909 
Q 1175 2209 1959 2209 
L 2766 2209 
L 2766 2266 
Q 2766 2663 2505 2880 
Q 2244 3097 1772 3097 
Q 1472 3097 1187 3025 
Q 903 2953 641 2809 
L 641 3341 
Q 956 3463 1253 3523 
Q 1550 3584 1831 3584 
Q 2591 3584 2966 3190 
Q 3341 2797 3341 1997 
z
" transform="scale(0.015625)"/>
       <path id="DejaVuSans-69" d="M 603 3500 
L 1178 3500 
L 1178 0 
L 603 0 
L 603 3500 
z
M 603 4863 
L 1178 4863 
L 1178 4134 
L 603 4134 
L 603 4863 
z
" transform="scale(0.015625)"/>
       <path id="DejaVuSans-7a" d="M 353 3500 
L 3084 3500 
L 3084 2975 
L 922 459 
L 3084 459 
L 3084 0 
L 275 0 
L 275 525 
L 2438 3041 
L 353 3041 
L 353 3500 
z
" transform="scale(0.015625)"/>
       <path id="DejaVuSans-65" d="M 3597 1894 
L 3597 1613 
L 953 1613 
Q 991 1019 1311 708 
Q 1631 397 2203 397 
Q 2534 397 2845 478 
Q 3156 559 3463 722 
L 3463 178 
Q 3153 47 2828 -22 
Q 2503 -91 2169 -91 
Q 1331 -91 842 396 
Q 353 884 353 1716 
Q 353 2575 817 3079 
Q 1281 3584 2069 3584 
Q 2775 3584 3186 3129 
Q 3597 2675 3597 1894 
z
M 3022 2063 
Q 3016 2534 2758 2815 
Q 2500 3097 2075 3097 
Q 1594 3097 1305 2825 
Q 1016 2553 972 2059 
L 3022 2063 
z
" transform="scale(0.015625)"/>
       <path id="DejaVuSans-20" transform="scale(0.015625)"/>
       <path id="DejaVuSans-73" d="M 2834 3397 
L 2834 2853 
Q 2591 2978 2328 3040 
Q 2066 3103 1784 3103 
Q 1356 3103 1142 2972 
Q 928 2841 928 2578 
Q 928 2378 1081 2264 
Q 1234 2150 1697 2047 
L 1894 2003 
Q 2506 1872 2764 1633 
Q 3022 1394 3022 966 
Q 3022 478 2636 193 
Q 2250 -91 1575 -91 
Q 1294 -91 989 -36 
Q 684 19 347 128 
L 347 722 
Q 666 556 975 473 
Q 1284 391 1588 391 
Q 1994 391 2212 530 
Q 2431 669 2431 922 
Q 2431 1156 2273 1281 
Q 2116 1406 1581 1522 
L 1381 1569 
Q 847 1681 609 1914 
Q 372 2147 372 2553 
Q 372 3047 722 3315 
Q 1072 3584 1716 3584 
Q 2034 3584 2315 3537 
Q 2597 3491 2834 3397 
z
" transform="scale(0.015625)"/>
       <path id="DejaVuSans-6c" d="M 603 4863 
L 1178 4863 
L 1178 0 
L 603 0 
L 603 4863 
z
" transform="scale(0.015625)"/>
       <path id="DejaVuSans-67" d="M 2906 1791 
Q 2906 2416 2648 2759 
Q 2391 3103 1925 3103 
Q 1463 3103 1205 2759 
Q 947 2416 947 1791 
Q 947 1169 1205 825 
Q 1463 481 1925 481 
Q 2391 481 2648 825 
Q 2906 1169 2906 1791 
z
M 3481 434 
Q 3481 -459 3084 -895 
Q 2688 -1331 1869 -1331 
Q 1566 -1331 1297 -1286 
Q 1028 -1241 775 -1147 
L 775 -588 
Q 1028 -725 1275 -790 
Q 1522 -856 1778 -856 
Q 2344 -856 2625 -561 
Q 2906 -266 2906 331 
L 2906 616 
Q 2728 306 2450 153 
Q 2172 0 1784 0 
Q 1141 0 747 490 
Q 353 981 353 1791 
Q 353 2603 747 3093 
Q 1141 3584 1784 3584 
Q 2172 3584 2450 3431 
Q 2728 3278 2906 2969 
L 2906 3500 
L 3481 3500 
L 3481 434 
z
" transform="scale(0.015625)"/>
      </defs>
      <use xlink:href="#DejaVuSans-4d"/>
      <use xlink:href="#DejaVuSans-61" x="86.279297"/>
      <use xlink:href="#DejaVuSans-69" x="147.558594"/>
      <use xlink:href="#DejaVuSans-7a" x="175.341797"/>
      <use xlink:href="#DejaVuSans-65" x="227.832031"/>
      <use xlink:href="#DejaVuSans-20" x="289.355469"/>
      <use xlink:href="#DejaVuSans-73" x="321.142578"/>
      <use xlink:href="#DejaVuSans-69" x="373.242188"/>
      <use xlink:href="#DejaVuSans-6c" x="401.025391"/>
      <use xlink:href="#DejaVuSans-61" x="428.808594"/>
      <use xlink:href="#DejaVuSans-67" x="490.087891"/>
      <use xlink:href="#DejaVuSans-65" x="553.564453"/>
     </g>
    </g>
    <g id="line2d_29">
     <path d="M 68.518 42.392562 
L 78.518 42.392562 
L 88.518 42.392562 
" style="fill: none; stroke: #32cd32; stroke-width: 1.833333; stroke-linecap: square"/>
    </g>
    <g id="text_8">
     <!-- Grass silage -->
     <g transform="translate(96.518 45.892562) scale(0.1 -0.1)">
      <defs>
       <path id="DejaVuSans-47" d="M 3809 666 
L 3809 1919 
L 2778 1919 
L 2778 2438 
L 4434 2438 
L 4434 434 
Q 4069 175 3628 42 
Q 3188 -91 2688 -91 
Q 1594 -91 976 548 
Q 359 1188 359 2328 
Q 359 3472 976 4111 
Q 1594 4750 2688 4750 
Q 3144 4750 3555 4637 
Q 3966 4525 4313 4306 
L 4313 3634 
Q 3963 3931 3569 4081 
Q 3175 4231 2741 4231 
Q 1884 4231 1454 3753 
Q 1025 3275 1025 2328 
Q 1025 1384 1454 906 
Q 1884 428 2741 428 
Q 3075 428 3337 486 
Q 3600 544 3809 666 
z
" transform="scale(0.015625)"/>
       <path id="DejaVuSans-72" d="M 2631 2963 
Q 2534 3019 2420 3045 
Q 2306 3072 2169 3072 
Q 1681 3072 1420 2755 
Q 1159 2438 1159 1844 
L 1159 0 
L 581 0 
L 581 3500 
L 1159 3500 
L 1159 2956 
Q 1341 3275 1631 3429 
Q 1922 3584 2338 3584 
Q 2397 3584 2469 3576 
Q 2541 3569 2628 3553 
L 2631 2963 
z
" transform="scale(0.015625)"/>
      </defs>
      <use xlink:href="#DejaVuSans-47"/>
      <use xlink:href="#DejaVuSans-72" x="77.490234"/>
      <use xlink:href="#DejaVuSans-61" x="118.603516"/>
      <use xlink:href="#DejaVuSans-73" x="179.882812"/>
      <use xlink:href="#DejaVuSans-73" x="231.982422"/>
      <use xlink:href="#DejaVuSans-20" x="284.082031"/>
      <use xlink:href="#DejaVuSans-73" x="315.869141"/>
      <use xlink:href="#DejaVuSans-69" x="367.96875"/>
      <use xlink:href="#DejaVuSans-6c" x="395.751953"/>
      <use xlink:href="#DejaVuSans-61" x="423.535156"/>
      <use xlink:href="#DejaVuSans-67" x="484.814453"/>
      <use xlink:href="#DejaVuSans-65" x="548.291016"/>
     </g>
    </g>
    <g id="line2d_30">
     <path d="M 68.518 57.070687 
L 78.518 57.070687 
L 88.518 57.070687 
" style="fill: none; stroke: #ff1493; stroke-width: 0.5; stroke-linecap: square"/>
    </g>
    <g id="text_9">
     <!-- Sugar beet silage -->
     <g transform="translate(96.518 60.570687) scale(0.1 -0.1)">
      <defs>
       <path id="DejaVuSans-53" d="M 3425 4513 
L 3425 3897 
Q 3066 4069 2747 4153 
Q 2428 4238 2131 4238 
Q 1616 4238 1336 4038 
Q 1056 3838 1056 3469 
Q 1056 3159 1242 3001 
Q 1428 2844 1947 2747 
L 2328 2669 
Q 3034 2534 3370 2195 
Q 3706 1856 3706 1288 
Q 3706 609 3251 259 
Q 2797 -91 1919 -91 
Q 1588 -91 1214 -16 
Q 841 59 441 206 
L 441 856 
Q 825 641 1194 531 
Q 1563 422 1919 422 
Q 2459 422 2753 634 
Q 3047 847 3047 1241 
Q 3047 1584 2836 1778 
Q 2625 1972 2144 2069 
L 1759 2144 
Q 1053 2284 737 2584 
Q 422 2884 422 3419 
Q 422 4038 858 4394 
Q 1294 4750 2059 4750 
Q 2388 4750 2728 4690 
Q 3069 4631 3425 4513 
z
" transform="scale(0.015625)"/>
       <path id="DejaVuSans-75" d="M 544 1381 
L 544 3500 
L 1119 3500 
L 1119 1403 
Q 1119 906 1312 657 
Q 1506 409 1894 409 
Q 2359 409 2629 706 
Q 2900 1003 2900 1516 
L 2900 3500 
L 3475 3500 
L 3475 0 
L 2900 0 
L 2900 538 
Q 2691 219 2414 64 
Q 2138 -91 1772 -91 
Q 1169 -91 856 284 
Q 544 659 544 1381 
z
M 1991 3584 
L 1991 3584 
z
" transform="scale(0.015625)"/>
       <path id="DejaVuSans-62" d="M 3116 1747 
Q 3116 2381 2855 2742 
Q 2594 3103 2138 3103 
Q 1681 3103 1420 2742 
Q 1159 2381 1159 1747 
Q 1159 1113 1420 752 
Q 1681 391 2138 391 
Q 2594 391 2855 752 
Q 3116 1113 3116 1747 
z
M 1159 2969 
Q 1341 3281 1617 3432 
Q 1894 3584 2278 3584 
Q 2916 3584 3314 3078 
Q 3713 2572 3713 1747 
Q 3713 922 3314 415 
Q 2916 -91 2278 -91 
Q 1894 -91 1617 61 
Q 1341 213 1159 525 
L 1159 0 
L 581 0 
L 581 4863 
L 1159 4863 
L 1159 2969 
z
" transform="scale(0.015625)"/>
       <path id="DejaVuSans-74" d="M 1172 4494 
L 1172 3500 
L 2356 3500 
L 2356 3053 
L 1172 3053 
L 1172 1153 
Q 1172 725 1289 603 
Q 1406 481 1766 481 
L 2356 481 
L 2356 0 
L 1766 0 
Q 1100 0 847 248 
Q 594 497 594 1153 
L 594 3053 
L 172 3053 
L 172 3500 
L 594 3500 
L 594 4494 
L 1172 4494 
z
" transform="scale(0.015625)"/>
      </defs>
      <use xlink:href="#DejaVuSans-53"/>
      <use xlink:href="#DejaVuSans-75" x="63.476562"/>
      <use xlink:href="#DejaVuSans-67" x="126.855469"/>
      <use xlink:href="#DejaVuSans-61" x="190.332031"/>
      <use xlink:href="#DejaVuSans-72" x="251.611328"/>
      <use xlink:href="#DejaVuSans-20" x="292.724609"/>
      <use xlink:href="#DejaVuSans-62" x="324.511719"/>
      <use xlink:href="#DejaVuSans-65" x="387.988281"/>
      <use xlink:href="#DejaVuSans-65" x="449.511719"/>
      <use xlink:href="#DejaVuSans-74" x="511.035156"/>
      <use xlink:href="#DejaVuSans-20" x="550.244141"/>
      <use xlink:href="#DejaVuSans-73" x="582.03125"/>
      <use xlink:href="#DejaVuSans-69" x="634.130859"/>
      <use xlink:href="#DejaVuSans-6c" x="661.914062"/>
      <use xlink:href="#DejaVuSans-61" x="689.697266"/>
      <use xlink:href="#DejaVuSans-67" x="750.976562"/>
      <use xlink:href="#DejaVuSans-65" x="814.453125"/>
     </g>
    </g>
   </g>
  </g>
  <g id="axes_2">
   <g id="patch_8">
    <path d="M 59.518 305.5088 
L 534.5198 305.5088 
L 534.5198 168.4144 
L 59.518 168.4144 
z
" style="fill: #ffffff"/>
   </g>
   <g id="matplotlib.axis_3">
    <g id="xtick_8">
     <g id="line2d_31">
      <path d="M 59.518 305.5088 
L 59.518 168.4144 
" clip-path="url(#pbeb8151778)" style="fill: none; stroke-dasharray: 2.96,1.28; stroke-dashoffset: 0; stroke: #b0b0b0; stroke-width: 0.8"/>
     </g>
     <g id="line2d_32">
      <g>
       <use xlink:href="#m2958449594" x="59.518" y="305.5088" style="stroke: #000000; stroke-width: 0.8"/>
      </g>
     </g>
    </g>
    <g id="xtick_9">
     <g id="line2d_33">
      <path d="M 138.684967 305.5088 
L 138.684967 168.4144 
" clip-path="url(#pbeb8151778)" style="fill: none; stroke-dasharray: 2.96,1.28; stroke-dashoffset: 0; stroke: #b0b0b0; stroke-width: 0.8"/>
     </g>
     <g id="line2d_34">
      <g>
       <use xlink:href="#m2958449594" x="138.684967" y="305.5088" style="stroke: #000000; stroke-width: 0.8"/>
      </g>
     </g>
    </g>
    <g id="xtick_10">
     <g id="line2d_35">
      <path d="M 217.851933 305.5088 
L 217.851933 168.4144 
" clip-path="url(#pbeb8151778)" style="fill: none; stroke-dasharray: 2.96,1.28; stroke-dashoffset: 0; stroke: #b0b0b0; stroke-width: 0.8"/>
     </g>
     <g id="line2d_36">
      <g>
       <use xlink:href="#m2958449594" x="217.851933" y="305.5088" style="stroke: #000000; stroke-width: 0.8"/>
      </g>
     </g>
    </g>
    <g id="xtick_11">
     <g id="line2d_37">
      <path d="M 297.0189 305.5088 
L 297.0189 168.4144 
" clip-path="url(#pbeb8151778)" style="fill: none; stroke-dasharray: 2.96,1.28; stroke-dashoffset: 0; stroke: #b0b0b0; stroke-width: 0.8"/>
     </g>
     <g id="line2d_38">
      <g>
       <use xlink:href="#m2958449594" x="297.0189" y="305.5088" style="stroke: #000000; stroke-width: 0.8"/>
      </g>
     </g>
    </g>
    <g id="xtick_12">
     <g id="line2d_39">
      <path d="M 376.185867 305.5088 
L 376.185867 168.4144 
" clip-path="url(#pbeb8151778)" style="fill: none; stroke-dasharray: 2.96,1.28; stroke-dashoffset: 0; stroke: #b0b0b0; stroke-width: 0.8"/>
     </g>
     <g id="line2d_40">
      <g>
       <use xlink:href="#m2958449594" x="376.185867" y="305.5088" style="stroke: #000000; stroke-width: 0.8"/>
      </g>
     </g>
    </g>
    <g id="xtick_13">
     <g id="line2d_41">
      <path d="M 455.352833 305.5088 
L 455.352833 168.4144 
" clip-path="url(#pbeb8151778)" style="fill: none; stroke-dasharray: 2.96,1.28; stroke-dashoffset: 0; stroke: #b0b0b0; stroke-width: 0.8"/>
     </g>
     <g id="line2d_42">
      <g>
       <use xlink:href="#m2958449594" x="455.352833" y="305.5088" style="stroke: #000000; stroke-width: 0.8"/>
      </g>
     </g>
    </g>
    <g id="xtick_14">
     <g id="line2d_43">
      <path d="M 534.5198 305.5088 
L 534.5198 168.4144 
" clip-path="url(#pbeb8151778)" style="fill: none; stroke-dasharray: 2.96,1.28; stroke-dashoffset: 0; stroke: #b0b0b0; stroke-width: 0.8"/>
     </g>
     <g id="line2d_44">
      <g>
       <use xlink:href="#m2958449594" x="534.5198" y="305.5088" style="stroke: #000000; stroke-width: 0.8"/>
      </g>
     </g>
    </g>
   </g>
   <g id="matplotlib.axis_4">
    <g id="ytick_6">
     <g id="line2d_45">
      <path d="M 59.518 299.277236 
L 534.5198 299.277236 
" clip-path="url(#pbeb8151778)" style="fill: none; stroke-dasharray: 2.96,1.28; stroke-dashoffset: 0; stroke: #b0b0b0; stroke-width: 0.8"/>
     </g>
     <g id="line2d_46">
      <g>
       <use xlink:href="#m1c617fcc77" x="59.518" y="299.277236" style="stroke: #000000; stroke-width: 0.8"/>
      </g>
     </g>
     <g id="text_10">
      <!-- 0 -->
      <g transform="translate(46.1555 303.076455) scale(0.1 -0.1)">
       <use xlink:href="#DejaVuSans-30"/>
      </g>
     </g>
    </g>
    <g id="ytick_7">
     <g id="line2d_47">
      <path d="M 59.518 275.309684 
L 534.5198 275.309684 
" clip-path="url(#pbeb8151778)" style="fill: none; stroke-dasharray: 2.96,1.28; stroke-dashoffset: 0; stroke: #b0b0b0; stroke-width: 0.8"/>
     </g>
     <g id="line2d_48">
      <g>
       <use xlink:href="#m1c617fcc77" x="59.518" y="275.309684" style="stroke: #000000; stroke-width: 0.8"/>
      </g>
     </g>
     <g id="text_11">
      <!-- 250 -->
      <g transform="translate(33.4305 279.108903) scale(0.1 -0.1)">
       <defs>
        <path id="DejaVuSans-35" d="M 691 4666 
L 3169 4666 
L 3169 4134 
L 1269 4134 
L 1269 2991 
Q 1406 3038 1543 3061 
Q 1681 3084 1819 3084 
Q 2600 3084 3056 2656 
Q 3513 2228 3513 1497 
Q 3513 744 3044 326 
Q 2575 -91 1722 -91 
Q 1428 -91 1123 -41 
Q 819 9 494 109 
L 494 744 
Q 775 591 1075 516 
Q 1375 441 1709 441 
Q 2250 441 2565 725 
Q 2881 1009 2881 1497 
Q 2881 1984 2565 2268 
Q 2250 2553 1709 2553 
Q 1456 2553 1204 2497 
Q 953 2441 691 2322 
L 691 4666 
z
" transform="scale(0.015625)"/>
       </defs>
       <use xlink:href="#DejaVuSans-32"/>
       <use xlink:href="#DejaVuSans-35" x="63.623047"/>
       <use xlink:href="#DejaVuSans-30" x="127.246094"/>
      </g>
     </g>
    </g>
    <g id="ytick_8">
     <g id="line2d_49">
      <path d="M 59.518 251.342131 
L 534.5198 251.342131 
" clip-path="url(#pbeb8151778)" style="fill: none; stroke-dasharray: 2.96,1.28; stroke-dashoffset: 0; stroke: #b0b0b0; stroke-width: 0.8"/>
     </g>
     <g id="line2d_50">
      <g>
       <use xlink:href="#m1c617fcc77" x="59.518" y="251.342131" style="stroke: #000000; stroke-width: 0.8"/>
      </g>
     </g>
     <g id="text_12">
      <!-- 500 -->
      <g transform="translate(33.4305 255.14135) scale(0.1 -0.1)">
       <use xlink:href="#DejaVuSans-35"/>
       <use xlink:href="#DejaVuSans-30" x="63.623047"/>
       <use xlink:href="#DejaVuSans-30" x="127.246094"/>
      </g>
     </g>
    </g>
    <g id="ytick_9">
     <g id="line2d_51">
      <path d="M 59.518 227.374579 
L 534.5198 227.374579 
" clip-path="url(#pbeb8151778)" style="fill: none; stroke-dasharray: 2.96,1.28; stroke-dashoffset: 0; stroke: #b0b0b0; stroke-width: 0.8"/>
     </g>
     <g id="line2d_52">
      <g>
       <use xlink:href="#m1c617fcc77" x="59.518" y="227.374579" style="stroke: #000000; stroke-width: 0.8"/>
      </g>
     </g>
     <g id="text_13">
      <!-- 750 -->
      <g transform="translate(33.4305 231.173798) scale(0.1 -0.1)">
       <defs>
        <path id="DejaVuSans-37" d="M 525 4666 
L 3525 4666 
L 3525 4397 
L 1831 0 
L 1172 0 
L 2766 4134 
L 525 4134 
L 525 4666 
z
" transform="scale(0.015625)"/>
       </defs>
       <use xlink:href="#DejaVuSans-37"/>
       <use xlink:href="#DejaVuSans-35" x="63.623047"/>
       <use xlink:href="#DejaVuSans-30" x="127.246094"/>
      </g>
     </g>
    </g>
    <g id="ytick_10">
     <g id="line2d_53">
      <path d="M 59.518 203.407027 
L 534.5198 203.407027 
" clip-path="url(#pbeb8151778)" style="fill: none; stroke-dasharray: 2.96,1.28; stroke-dashoffset: 0; stroke: #b0b0b0; stroke-width: 0.8"/>
     </g>
     <g id="line2d_54">
      <g>
       <use xlink:href="#m1c617fcc77" x="59.518" y="203.407027" style="stroke: #000000; stroke-width: 0.8"/>
      </g>
     </g>
     <g id="text_14">
      <!-- 1000 -->
      <g transform="translate(27.068 207.206245) scale(0.1 -0.1)">
       <defs>
        <path id="DejaVuSans-31" d="M 794 531 
L 1825 531 
L 1825 4091 
L 703 3866 
L 703 4441 
L 1819 4666 
L 2450 4666 
L 2450 531 
L 3481 531 
L 3481 0 
L 794 0 
L 794 531 
z
" transform="scale(0.015625)"/>
       </defs>
       <use xlink:href="#DejaVuSans-31"/>
       <use xlink:href="#DejaVuSans-30" x="63.623047"/>
       <use xlink:href="#DejaVuSans-30" x="127.246094"/>
       <use xlink:href="#DejaVuSans-30" x="190.869141"/>
      </g>
     </g>
    </g>
    <g id="ytick_11">
     <g id="line2d_55">
      <path d="M 59.518 179.439474 
L 534.5198 179.439474 
" clip-path="url(#pbeb8151778)" style="fill: none; stroke-dasharray: 2.96,1.28; stroke-dashoffset: 0; stroke: #b0b0b0; stroke-width: 0.8"/>
     </g>
     <g id="line2d_56">
      <g>
       <use xlink:href="#m1c617fcc77" x="59.518" y="179.439474" style="stroke: #000000; stroke-width: 0.8"/>
      </g>
     </g>
     <g id="text_15">
      <!-- 1250 -->
      <g transform="translate(27.068 183.238693) scale(0.1 -0.1)">
       <use xlink:href="#DejaVuSans-31"/>
       <use xlink:href="#DejaVuSans-32" x="63.623047"/>
       <use xlink:href="#DejaVuSans-35" x="127.246094"/>
       <use xlink:href="#DejaVuSans-30" x="190.869141"/>
      </g>
     </g>
    </g>
    <g id="text_16">
     <!-- $\dot V \; [m^3/d]$ -->
     <g transform="translate(20.988312 257.9616) rotate(-90) scale(0.1 -0.1)">
      <use xlink:href="#DejaVuSans-307" transform="translate(66.195312 30.015625)"/>
      <use xlink:href="#DejaVuSans-Oblique-56" transform="translate(0 0.609375)"/>
      <use xlink:href="#DejaVuSans-5b" transform="translate(95.467339 0.609375)"/>
      <use xlink:href="#DejaVuSans-Oblique-6d" transform="translate(134.481011 0.609375)"/>
      <use xlink:href="#DejaVuSans-33" transform="translate(236.543016 38.890625) scale(0.7)"/>
      <use xlink:href="#DejaVuSans-2f" transform="translate(283.813524 0.609375)"/>
      <use xlink:href="#DejaVuSans-Oblique-64" transform="translate(317.50493 0.609375)"/>
      <use xlink:href="#DejaVuSans-5d" transform="translate(380.981493 0.609375)"/>
     </g>
    </g>
   </g>
   <g id="line2d_57">
    <path d="M 59.518 265.722663 
L 106.688318 265.722663 
L 107.01818 246.548621 
L 154.51836 246.548621 
L 154.848222 256.135642 
L 202.01854 256.135642 
L 202.348402 265.722663 
L 502.523151 265.722663 
L 502.523151 265.722663 
" clip-path="url(#pbeb8151778)" style="fill: none; stroke-dasharray: 6.4,1.6,1,1.6; stroke-dashoffset: 0; stroke: #696969"/>
   </g>
   <g id="line2d_58">
    <path d="M 59.518 265.722663 
L 59.518 265.722663 
L 59.518 265.722663 
L 59.518 265.722663 
L 59.518 265.722663 
L 59.518 265.722663 
L 59.518 265.722663 
L 59.518 265.722663 
L 59.518 265.722663 
L 59.518 265.722663 
L 59.518 265.722663 
L 59.518 265.722663 
L 59.518 265.722663 
L 59.518 265.722663 
L 59.518 265.722663 
L 59.518 265.722663 
" clip-path="url(#pbeb8151778)" style="fill: none; stroke-dasharray: 3.7,1.6; stroke-dashoffset: 0; stroke: #696969"/>
   </g>
   <g id="line2d_59">
    <path d="M 59.518 275.989516 
L 60.177725 270.832161 
L 60.837449 268.259303 
L 61.497174 267.063237 
L 62.156899 266.487664 
L 62.816624 266.211611 
L 63.806211 266.045939 
L 66.115247 265.977988 
L 98.441759 265.940086 
L 107.01818 265.935987 
L 108.007767 257.5196 
L 108.667492 254.223426 
L 109.327217 252.087861 
L 109.986941 250.675539 
L 110.646666 249.733928 
L 111.306391 249.105027 
L 112.295978 248.532696 
L 113.285565 248.225378 
L 114.934877 248.001705 
L 117.903638 247.903708 
L 144.952352 247.680258 
L 154.848222 247.643269 
L 155.507947 249.535562 
L 157.157259 254.458931 
L 157.816984 255.486436 
L 158.476708 256.014619 
L 159.466295 256.363241 
L 160.785745 256.513567 
L 164.084368 256.571816 
L 202.348402 256.616042 
L 204.987301 262.942474 
L 205.976888 264.729184 
L 206.636613 265.388274 
L 207.296338 265.640151 
L 208.615787 265.80501 
L 211.914411 265.865542 
L 251.168032 265.913771 
L 487.349482 265.928726 
L 502.523151 265.928701 
L 502.523151 265.928701 
" clip-path="url(#pbeb8151778)" style="fill: none; stroke: #0000ff; stroke-linecap: square"/>
   </g>
   <g id="line2d_60">
    <path d="M 59.518 239.713506 
L 59.847862 234.111982 
L 60.507587 227.89898 
L 61.167312 224.928896 
L 61.827037 223.473769 
L 62.486761 222.772289 
L 63.146486 222.44627 
L 64.136073 222.267542 
L 66.115247 222.226259 
L 98.771621 222.334609 
L 106.688318 222.347475 
L 107.677905 201.518504 
L 108.337629 193.228512 
L 108.997354 187.928827 
L 109.657079 184.574736 
L 110.316804 182.500212 
L 110.976528 181.259775 
L 111.636253 180.554783 
L 112.295978 180.186579 
L 113.285565 179.992464 
L 114.605014 180.03333 
L 119.55295 180.399433 
L 124.500885 180.403862 
L 149.240562 180.222565 
L 154.51836 180.214766 
L 155.178085 185.001088 
L 156.497534 194.874753 
L 157.157259 198.030228 
L 157.816984 199.619902 
L 158.476708 200.382588 
L 159.136433 200.743053 
L 160.12602 200.957159 
L 162.105194 201.037389 
L 195.421293 201.068687 
L 202.01854 201.07676 
L 203.997714 212.709343 
L 205.317164 218.64952 
L 205.976888 220.907615 
L 206.636613 221.859051 
L 207.296338 222.273463 
L 208.285925 222.565186 
L 209.935237 222.745824 
L 213.23386 222.817865 
L 229.726978 222.761644 
L 290.09179 222.658656 
L 468.87719 222.654163 
L 502.523151 222.660265 
L 502.523151 222.660265 
" clip-path="url(#pbeb8151778)" style="fill: none; stroke: #000000; stroke-linecap: square"/>
   </g>
   <g id="LineCollection_1">
    <path d="M 59.518 299.277236 
L 502.853013 299.277236 
" clip-path="url(#pbeb8151778)" style="fill: none; stroke: #ffffff; stroke-width: 0.1"/>
   </g>
   <g id="LineCollection_2">
    <path d="M 59.518 174.645964 
L 502.853013 174.645964 
" clip-path="url(#pbeb8151778)" style="fill: none; stroke: #ffffff; stroke-width: 0.1"/>
   </g>
   <g id="patch_9">
    <path d="M 59.518 305.5088 
L 59.518 168.4144 
" style="fill: none; stroke: #000000; stroke-width: 0.8; stroke-linejoin: miter; stroke-linecap: square"/>
   </g>
   <g id="patch_10">
    <path d="M 534.5198 305.5088 
L 534.5198 168.4144 
" style="fill: none; stroke: #000000; stroke-width: 0.8; stroke-linejoin: miter; stroke-linecap: square"/>
   </g>
   <g id="patch_11">
    <path d="M 59.518 305.5088 
L 534.5198 305.5088 
" style="fill: none; stroke: #000000; stroke-width: 0.8; stroke-linejoin: miter; stroke-linecap: square"/>
   </g>
   <g id="patch_12">
    <path d="M 59.518 168.4144 
L 534.5198 168.4144 
" style="fill: none; stroke: #000000; stroke-width: 0.8; stroke-linejoin: miter; stroke-linecap: square"/>
   </g>
   <g id="legend_2">
    <g id="patch_13">
     <path d="M 412.8198 231.9144 
L 527.5198 231.9144 
Q 529.5198 231.9144 529.5198 229.9144 
L 529.5198 175.4144 
Q 529.5198 173.4144 527.5198 173.4144 
L 412.8198 173.4144 
Q 410.8198 173.4144 410.8198 175.4144 
L 410.8198 229.9144 
Q 410.8198 231.9144 412.8198 231.9144 
z
" style="fill: #ffffff; opacity: 0.8; stroke: #cccccc; stroke-linejoin: miter"/>
    </g>
    <g id="line2d_61">
     <path d="M 414.8198 184.5144 
L 424.8198 184.5144 
L 434.8198 184.5144 
" style="fill: none; stroke-dasharray: 6.4,1.6,1,1.6; stroke-dashoffset: 0; stroke: #696969"/>
    </g>
    <g id="text_17">
     <!-- Reference ($\dot V_{CH_4}$) -->
     <g transform="translate(442.8198 188.0144) scale(0.1 -0.1)">
      <defs>
       <path id="DejaVuSans-52" d="M 2841 2188 
Q 3044 2119 3236 1894 
Q 3428 1669 3622 1275 
L 4263 0 
L 3584 0 
L 2988 1197 
Q 2756 1666 2539 1819 
Q 2322 1972 1947 1972 
L 1259 1972 
L 1259 0 
L 628 0 
L 628 4666 
L 2053 4666 
Q 2853 4666 3247 4331 
Q 3641 3997 3641 3322 
Q 3641 2881 3436 2590 
Q 3231 2300 2841 2188 
z
M 1259 4147 
L 1259 2491 
L 2053 2491 
Q 2509 2491 2742 2702 
Q 2975 2913 2975 3322 
Q 2975 3731 2742 3939 
Q 2509 4147 2053 4147 
L 1259 4147 
z
" transform="scale(0.015625)"/>
       <path id="DejaVuSans-66" d="M 2375 4863 
L 2375 4384 
L 1825 4384 
Q 1516 4384 1395 4259 
Q 1275 4134 1275 3809 
L 1275 3500 
L 2222 3500 
L 2222 3053 
L 1275 3053 
L 1275 0 
L 697 0 
L 697 3053 
L 147 3053 
L 147 3500 
L 697 3500 
L 697 3744 
Q 697 4328 969 4595 
Q 1241 4863 1831 4863 
L 2375 4863 
z
" transform="scale(0.015625)"/>
       <path id="DejaVuSans-6e" d="M 3513 2113 
L 3513 0 
L 2938 0 
L 2938 2094 
Q 2938 2591 2744 2837 
Q 2550 3084 2163 3084 
Q 1697 3084 1428 2787 
Q 1159 2491 1159 1978 
L 1159 0 
L 581 0 
L 581 3500 
L 1159 3500 
L 1159 2956 
Q 1366 3272 1645 3428 
Q 1925 3584 2291 3584 
Q 2894 3584 3203 3211 
Q 3513 2838 3513 2113 
z
" transform="scale(0.015625)"/>
       <path id="DejaVuSans-63" d="M 3122 3366 
L 3122 2828 
Q 2878 2963 2633 3030 
Q 2388 3097 2138 3097 
Q 1578 3097 1268 2742 
Q 959 2388 959 1747 
Q 959 1106 1268 751 
Q 1578 397 2138 397 
Q 2388 397 2633 464 
Q 2878 531 3122 666 
L 3122 134 
Q 2881 22 2623 -34 
Q 2366 -91 2075 -91 
Q 1284 -91 818 406 
Q 353 903 353 1747 
Q 353 2603 823 3093 
Q 1294 3584 2113 3584 
Q 2378 3584 2631 3529 
Q 2884 3475 3122 3366 
z
" transform="scale(0.015625)"/>
       <path id="DejaVuSans-28" d="M 1984 4856 
Q 1566 4138 1362 3434 
Q 1159 2731 1159 2009 
Q 1159 1288 1364 580 
Q 1569 -128 1984 -844 
L 1484 -844 
Q 1016 -109 783 600 
Q 550 1309 550 2009 
Q 550 2706 781 3412 
Q 1013 4119 1484 4856 
L 1984 4856 
z
" transform="scale(0.015625)"/>
       <path id="DejaVuSans-Oblique-43" d="M 4447 4306 
L 4319 3641 
Q 4019 3944 3683 4091 
Q 3347 4238 2956 4238 
Q 2422 4238 2017 3981 
Q 1613 3725 1319 3200 
Q 1131 2863 1032 2486 
Q 934 2109 934 1728 
Q 934 1091 1264 756 
Q 1594 422 2222 422 
Q 2656 422 3056 561 
Q 3456 700 3834 978 
L 3688 231 
Q 3316 72 2936 -9 
Q 2556 -91 2175 -91 
Q 1278 -91 773 396 
Q 269 884 269 1753 
Q 269 2309 461 2846 
Q 653 3384 1013 3828 
Q 1394 4300 1883 4525 
Q 2372 4750 3022 4750 
Q 3422 4750 3780 4639 
Q 4138 4528 4447 4306 
z
" transform="scale(0.015625)"/>
       <path id="DejaVuSans-Oblique-48" d="M 1081 4666 
L 1716 4666 
L 1344 2753 
L 3634 2753 
L 4006 4666 
L 4641 4666 
L 3731 0 
L 3097 0 
L 3531 2222 
L 1241 2222 
L 806 0 
L 172 0 
L 1081 4666 
z
" transform="scale(0.015625)"/>
       <path id="DejaVuSans-29" d="M 513 4856 
L 1013 4856 
Q 1481 4119 1714 3412 
Q 1947 2706 1947 2009 
Q 1947 1309 1714 600 
Q 1481 -109 1013 -844 
L 513 -844 
Q 928 -128 1133 580 
Q 1338 1288 1338 2009 
Q 1338 2731 1133 3434 
Q 928 4138 513 4856 
z
" transform="scale(0.015625)"/>
      </defs>
      <use xlink:href="#DejaVuSans-52" transform="translate(0 0.609375)"/>
      <use xlink:href="#DejaVuSans-65" transform="translate(69.482422 0.609375)"/>
      <use xlink:href="#DejaVuSans-66" transform="translate(131.005859 0.609375)"/>
      <use xlink:href="#DejaVuSans-65" transform="translate(166.210938 0.609375)"/>
      <use xlink:href="#DejaVuSans-72" transform="translate(227.734375 0.609375)"/>
      <use xlink:href="#DejaVuSans-65" transform="translate(268.847656 0.609375)"/>
      <use xlink:href="#DejaVuSans-6e" transform="translate(330.371094 0.609375)"/>
      <use xlink:href="#DejaVuSans-63" transform="translate(393.75 0.609375)"/>
      <use xlink:href="#DejaVuSans-65" transform="translate(448.730469 0.609375)"/>
      <use xlink:href="#DejaVuSans-20" transform="translate(510.253906 0.609375)"/>
      <use xlink:href="#DejaVuSans-28" transform="translate(542.041016 0.609375)"/>
      <use xlink:href="#DejaVuSans-307" transform="translate(647.25 30.015625)"/>
      <use xlink:href="#DejaVuSans-Oblique-56" transform="translate(581.054688 0.609375)"/>
      <use xlink:href="#DejaVuSans-Oblique-43" transform="translate(650.419922 -15.796875) scale(0.7)"/>
      <use xlink:href="#DejaVuSans-Oblique-48" transform="translate(699.296875 -15.796875) scale(0.7)"/>
      <use xlink:href="#DejaVuSans-34" transform="translate(751.933594 -27.28125) scale(0.49)"/>
      <use xlink:href="#DejaVuSans-29" transform="translate(787.757324 0.609375)"/>
     </g>
    </g>
    <g id="line2d_62">
     <path d="M 414.8198 202.9144 
L 424.8198 202.9144 
L 434.8198 202.9144 
" style="fill: none; stroke: #0000ff; stroke-linecap: square"/>
    </g>
    <g id="text_18">
     <!-- $\dot V_{CH_4, nom+\sigma}$ -->
     <g transform="translate(442.8198 206.4144) scale(0.1 -0.1)">
      <defs>
       <path id="DejaVuSans-Oblique-6e" d="M 3566 2113 
L 3156 0 
L 2578 0 
L 2988 2091 
Q 3016 2238 3031 2350 
Q 3047 2463 3047 2528 
Q 3047 2791 2881 2937 
Q 2716 3084 2419 3084 
Q 1956 3084 1622 2776 
Q 1288 2469 1184 1941 
L 800 0 
L 225 0 
L 903 3500 
L 1478 3500 
L 1363 2950 
Q 1603 3253 1940 3418 
Q 2278 3584 2650 3584 
Q 3113 3584 3367 3334 
Q 3622 3084 3622 2631 
Q 3622 2519 3608 2391 
Q 3594 2263 3566 2113 
z
" transform="scale(0.015625)"/>
       <path id="DejaVuSans-Oblique-6f" d="M 1625 -91 
Q 1009 -91 651 289 
Q 294 669 294 1325 
Q 294 1706 417 2101 
Q 541 2497 738 2766 
Q 1047 3184 1428 3384 
Q 1809 3584 2291 3584 
Q 2888 3584 3255 3212 
Q 3622 2841 3622 2241 
Q 3622 1825 3500 1412 
Q 3378 1000 3181 728 
Q 2875 309 2494 109 
Q 2113 -91 1625 -91 
z
M 891 1344 
Q 891 869 1089 633 
Q 1288 397 1691 397 
Q 2269 397 2648 901 
Q 3028 1406 3028 2181 
Q 3028 2634 2825 2865 
Q 2622 3097 2228 3097 
Q 1903 3097 1650 2945 
Q 1397 2794 1197 2484 
Q 1050 2253 970 1956 
Q 891 1659 891 1344 
z
" transform="scale(0.015625)"/>
       <path id="DejaVuSans-2b" d="M 2944 4013 
L 2944 2272 
L 4684 2272 
L 4684 1741 
L 2944 1741 
L 2944 0 
L 2419 0 
L 2419 1741 
L 678 1741 
L 678 2272 
L 2419 2272 
L 2419 4013 
L 2944 4013 
z
" transform="scale(0.015625)"/>
       <path id="DejaVuSans-Oblique-3c3" d="M 2219 3044 
Q 1744 3044 1422 2700 
Q 1081 2341 969 1747 
Q 844 1119 1044 756 
Q 1241 397 1706 397 
Q 2166 397 2503 759 
Q 2844 1122 2966 1747 
Q 3075 2319 2881 2700 
Q 2700 3044 2219 3044 
z
M 2309 3503 
L 4219 3500 
L 4106 2925 
L 3463 2925 
Q 3706 2438 3575 1747 
Q 3406 888 2884 400 
Q 2359 -91 1609 -91 
Q 856 -91 525 400 
Q 194 888 363 1747 
Q 528 2609 1050 3097 
Q 1484 3503 2309 3503 
z
" transform="scale(0.015625)"/>
      </defs>
      <use xlink:href="#DejaVuSans-307" transform="translate(66.195312 30.015625)"/>
      <use xlink:href="#DejaVuSans-Oblique-56" transform="translate(0 0.609375)"/>
      <use xlink:href="#DejaVuSans-Oblique-43" transform="translate(69.365234 -15.796875) scale(0.7)"/>
      <use xlink:href="#DejaVuSans-Oblique-48" transform="translate(118.242188 -15.796875) scale(0.7)"/>
      <use xlink:href="#DejaVuSans-34" transform="translate(170.878906 -27.28125) scale(0.49)"/>
      <use xlink:href="#DejaVuSans-2c" transform="translate(203.968262 -15.796875) scale(0.7)"/>
      <use xlink:href="#DejaVuSans-Oblique-6e" transform="translate(239.856934 -15.796875) scale(0.7)"/>
      <use xlink:href="#DejaVuSans-Oblique-6f" transform="translate(284.222168 -15.796875) scale(0.7)"/>
      <use xlink:href="#DejaVuSans-Oblique-6d" transform="translate(327.049316 -15.796875) scale(0.7)"/>
      <use xlink:href="#DejaVuSans-2b" transform="translate(408.875488 -15.796875) scale(0.7)"/>
      <use xlink:href="#DejaVuSans-Oblique-3c3" transform="translate(481.165527 -15.796875) scale(0.7)"/>
     </g>
    </g>
    <g id="line2d_63">
     <path d="M 414.8198 221.3144 
L 424.8198 221.3144 
L 434.8198 221.3144 
" style="fill: none; stroke: #000000; stroke-linecap: square"/>
    </g>
    <g id="text_19">
     <!-- $\dot V_{g, nom+\sigma}$ -->
     <g transform="translate(442.8198 224.8144) scale(0.1 -0.1)">
      <use xlink:href="#DejaVuSans-307" transform="translate(66.195312 30.015625)"/>
      <use xlink:href="#DejaVuSans-Oblique-56" transform="translate(0 0.609375)"/>
      <use xlink:href="#DejaVuSans-Oblique-67" transform="translate(69.365234 -15.796875) scale(0.7)"/>
      <use xlink:href="#DejaVuSans-2c" transform="translate(113.798828 -15.796875) scale(0.7)"/>
      <use xlink:href="#DejaVuSans-Oblique-6e" transform="translate(149.6875 -15.796875) scale(0.7)"/>
      <use xlink:href="#DejaVuSans-Oblique-6f" transform="translate(194.052734 -15.796875) scale(0.7)"/>
      <use xlink:href="#DejaVuSans-Oblique-6d" transform="translate(236.879883 -15.796875) scale(0.7)"/>
      <use xlink:href="#DejaVuSans-2b" transform="translate(318.706055 -15.796875) scale(0.7)"/>
      <use xlink:href="#DejaVuSans-Oblique-3c3" transform="translate(390.996094 -15.796875) scale(0.7)"/>
     </g>
    </g>
   </g>
  </g>
  <g id="axes_3">
   <g id="patch_14">
    <path d="M 59.518 390.76 
L 534.5198 390.76 
L 534.5198 322.2128 
L 59.518 322.2128 
z
" style="fill: #ffffff"/>
   </g>
   <g id="matplotlib.axis_5">
    <g id="xtick_15">
     <g id="line2d_64">
      <path d="M 59.518 390.76 
L 59.518 322.2128 
" clip-path="url(#p1cb4140372)" style="fill: none; stroke-dasharray: 2.96,1.28; stroke-dashoffset: 0; stroke: #b0b0b0; stroke-width: 0.8"/>
     </g>
     <g id="line2d_65">
      <g>
       <use xlink:href="#m2958449594" x="59.518" y="390.76" style="stroke: #000000; stroke-width: 0.8"/>
      </g>
     </g>
     <g id="text_20">
      <!-- 0 -->
      <g transform="translate(56.33675 405.358437) scale(0.1 -0.1)">
       <use xlink:href="#DejaVuSans-30"/>
      </g>
     </g>
    </g>
    <g id="xtick_16">
     <g id="line2d_66">
      <path d="M 138.684967 390.76 
L 138.684967 322.2128 
" clip-path="url(#p1cb4140372)" style="fill: none; stroke-dasharray: 2.96,1.28; stroke-dashoffset: 0; stroke: #b0b0b0; stroke-width: 0.8"/>
     </g>
     <g id="line2d_67">
      <g>
       <use xlink:href="#m2958449594" x="138.684967" y="390.76" style="stroke: #000000; stroke-width: 0.8"/>
      </g>
     </g>
     <g id="text_21">
      <!-- 5 -->
      <g transform="translate(135.503717 405.358437) scale(0.1 -0.1)">
       <use xlink:href="#DejaVuSans-35"/>
      </g>
     </g>
    </g>
    <g id="xtick_17">
     <g id="line2d_68">
      <path d="M 217.851933 390.76 
L 217.851933 322.2128 
" clip-path="url(#p1cb4140372)" style="fill: none; stroke-dasharray: 2.96,1.28; stroke-dashoffset: 0; stroke: #b0b0b0; stroke-width: 0.8"/>
     </g>
     <g id="line2d_69">
      <g>
       <use xlink:href="#m2958449594" x="217.851933" y="390.76" style="stroke: #000000; stroke-width: 0.8"/>
      </g>
     </g>
     <g id="text_22">
      <!-- 10 -->
      <g transform="translate(211.489433 405.358437) scale(0.1 -0.1)">
       <use xlink:href="#DejaVuSans-31"/>
       <use xlink:href="#DejaVuSans-30" x="63.623047"/>
      </g>
     </g>
    </g>
    <g id="xtick_18">
     <g id="line2d_70">
      <path d="M 297.0189 390.76 
L 297.0189 322.2128 
" clip-path="url(#p1cb4140372)" style="fill: none; stroke-dasharray: 2.96,1.28; stroke-dashoffset: 0; stroke: #b0b0b0; stroke-width: 0.8"/>
     </g>
     <g id="line2d_71">
      <g>
       <use xlink:href="#m2958449594" x="297.0189" y="390.76" style="stroke: #000000; stroke-width: 0.8"/>
      </g>
     </g>
     <g id="text_23">
      <!-- 15 -->
      <g transform="translate(290.6564 405.358437) scale(0.1 -0.1)">
       <use xlink:href="#DejaVuSans-31"/>
       <use xlink:href="#DejaVuSans-35" x="63.623047"/>
      </g>
     </g>
    </g>
    <g id="xtick_19">
     <g id="line2d_72">
      <path d="M 376.185867 390.76 
L 376.185867 322.2128 
" clip-path="url(#p1cb4140372)" style="fill: none; stroke-dasharray: 2.96,1.28; stroke-dashoffset: 0; stroke: #b0b0b0; stroke-width: 0.8"/>
     </g>
     <g id="line2d_73">
      <g>
       <use xlink:href="#m2958449594" x="376.185867" y="390.76" style="stroke: #000000; stroke-width: 0.8"/>
      </g>
     </g>
     <g id="text_24">
      <!-- 20 -->
      <g transform="translate(369.823367 405.358437) scale(0.1 -0.1)">
       <use xlink:href="#DejaVuSans-32"/>
       <use xlink:href="#DejaVuSans-30" x="63.623047"/>
      </g>
     </g>
    </g>
    <g id="xtick_20">
     <g id="line2d_74">
      <path d="M 455.352833 390.76 
L 455.352833 322.2128 
" clip-path="url(#p1cb4140372)" style="fill: none; stroke-dasharray: 2.96,1.28; stroke-dashoffset: 0; stroke: #b0b0b0; stroke-width: 0.8"/>
     </g>
     <g id="line2d_75">
      <g>
       <use xlink:href="#m2958449594" x="455.352833" y="390.76" style="stroke: #000000; stroke-width: 0.8"/>
      </g>
     </g>
     <g id="text_25">
      <!-- 25 -->
      <g transform="translate(448.990333 405.358437) scale(0.1 -0.1)">
       <use xlink:href="#DejaVuSans-32"/>
       <use xlink:href="#DejaVuSans-35" x="63.623047"/>
      </g>
     </g>
    </g>
    <g id="xtick_21">
     <g id="line2d_76">
      <path d="M 534.5198 390.76 
L 534.5198 322.2128 
" clip-path="url(#p1cb4140372)" style="fill: none; stroke-dasharray: 2.96,1.28; stroke-dashoffset: 0; stroke: #b0b0b0; stroke-width: 0.8"/>
     </g>
     <g id="line2d_77">
      <g>
       <use xlink:href="#m2958449594" x="534.5198" y="390.76" style="stroke: #000000; stroke-width: 0.8"/>
      </g>
     </g>
     <g id="text_26">
      <!-- 30 -->
      <g transform="translate(528.1573 405.358437) scale(0.1 -0.1)">
       <use xlink:href="#DejaVuSans-33"/>
       <use xlink:href="#DejaVuSans-30" x="63.623047"/>
      </g>
     </g>
    </g>
    <g id="text_27">
     <!-- Time [d] -->
     <g transform="translate(276.120463 419.036563) scale(0.1 -0.1)">
      <defs>
       <path id="DejaVuSans-54" d="M -19 4666 
L 3928 4666 
L 3928 4134 
L 2272 4134 
L 2272 0 
L 1638 0 
L 1638 4134 
L -19 4134 
L -19 4666 
z
" transform="scale(0.015625)"/>
       <path id="DejaVuSans-6d" d="M 3328 2828 
Q 3544 3216 3844 3400 
Q 4144 3584 4550 3584 
Q 5097 3584 5394 3201 
Q 5691 2819 5691 2113 
L 5691 0 
L 5113 0 
L 5113 2094 
Q 5113 2597 4934 2840 
Q 4756 3084 4391 3084 
Q 3944 3084 3684 2787 
Q 3425 2491 3425 1978 
L 3425 0 
L 2847 0 
L 2847 2094 
Q 2847 2600 2669 2842 
Q 2491 3084 2119 3084 
Q 1678 3084 1418 2786 
Q 1159 2488 1159 1978 
L 1159 0 
L 581 0 
L 581 3500 
L 1159 3500 
L 1159 2956 
Q 1356 3278 1631 3431 
Q 1906 3584 2284 3584 
Q 2666 3584 2933 3390 
Q 3200 3197 3328 2828 
z
" transform="scale(0.015625)"/>
       <path id="DejaVuSans-64" d="M 2906 2969 
L 2906 4863 
L 3481 4863 
L 3481 0 
L 2906 0 
L 2906 525 
Q 2725 213 2448 61 
Q 2172 -91 1784 -91 
Q 1150 -91 751 415 
Q 353 922 353 1747 
Q 353 2572 751 3078 
Q 1150 3584 1784 3584 
Q 2172 3584 2448 3432 
Q 2725 3281 2906 2969 
z
M 947 1747 
Q 947 1113 1208 752 
Q 1469 391 1925 391 
Q 2381 391 2643 752 
Q 2906 1113 2906 1747 
Q 2906 2381 2643 2742 
Q 2381 3103 1925 3103 
Q 1469 3103 1208 2742 
Q 947 2381 947 1747 
z
" transform="scale(0.015625)"/>
      </defs>
      <use xlink:href="#DejaVuSans-54"/>
      <use xlink:href="#DejaVuSans-69" x="57.958984"/>
      <use xlink:href="#DejaVuSans-6d" x="85.742188"/>
      <use xlink:href="#DejaVuSans-65" x="183.154297"/>
      <use xlink:href="#DejaVuSans-20" x="244.677734"/>
      <use xlink:href="#DejaVuSans-5b" x="276.464844"/>
      <use xlink:href="#DejaVuSans-64" x="315.478516"/>
      <use xlink:href="#DejaVuSans-5d" x="378.955078"/>
     </g>
    </g>
   </g>
   <g id="matplotlib.axis_6">
    <g id="ytick_12">
     <g id="line2d_78">
      <path d="M 59.518 366.872339 
L 534.5198 366.872339 
" clip-path="url(#p1cb4140372)" style="fill: none; stroke-dasharray: 2.96,1.28; stroke-dashoffset: 0; stroke: #b0b0b0; stroke-width: 0.8"/>
     </g>
     <g id="line2d_79">
      <g>
       <use xlink:href="#m1c617fcc77" x="59.518" y="366.872339" style="stroke: #000000; stroke-width: 0.8"/>
      </g>
     </g>
     <g id="text_28">
      <!-- 7.2 -->
      <g transform="translate(36.614875 370.671558) scale(0.1 -0.1)">
       <defs>
        <path id="DejaVuSans-2e" d="M 684 794 
L 1344 794 
L 1344 0 
L 684 0 
L 684 794 
z
" transform="scale(0.015625)"/>
       </defs>
       <use xlink:href="#DejaVuSans-37"/>
       <use xlink:href="#DejaVuSans-2e" x="63.623047"/>
       <use xlink:href="#DejaVuSans-32" x="95.410156"/>
      </g>
     </g>
    </g>
    <g id="ytick_13">
     <g id="line2d_80">
      <path d="M 59.518 325.328582 
L 534.5198 325.328582 
" clip-path="url(#p1cb4140372)" style="fill: none; stroke-dasharray: 2.96,1.28; stroke-dashoffset: 0; stroke: #b0b0b0; stroke-width: 0.8"/>
     </g>
     <g id="line2d_81">
      <g>
       <use xlink:href="#m1c617fcc77" x="59.518" y="325.328582" style="stroke: #000000; stroke-width: 0.8"/>
      </g>
     </g>
     <g id="text_29">
      <!-- 7.4 -->
      <g transform="translate(36.614875 329.127801) scale(0.1 -0.1)">
       <use xlink:href="#DejaVuSans-37"/>
       <use xlink:href="#DejaVuSans-2e" x="63.623047"/>
       <use xlink:href="#DejaVuSans-34" x="95.410156"/>
      </g>
     </g>
    </g>
    <g id="text_30">
     <!-- $pH \; [-]$ -->
     <g transform="translate(30.514875 372.8864) rotate(-90) scale(0.1 -0.1)">
      <defs>
       <path id="DejaVuSans-Oblique-70" d="M 3175 2156 
Q 3175 2616 2975 2859 
Q 2775 3103 2400 3103 
Q 2144 3103 1911 2972 
Q 1678 2841 1497 2591 
Q 1319 2344 1212 1994 
Q 1106 1644 1106 1300 
Q 1106 863 1306 627 
Q 1506 391 1875 391 
Q 2147 391 2380 519 
Q 2613 647 2778 891 
Q 2956 1147 3065 1494 
Q 3175 1841 3175 2156 
z
M 1394 2969 
Q 1625 3272 1939 3428 
Q 2253 3584 2638 3584 
Q 3175 3584 3472 3232 
Q 3769 2881 3769 2247 
Q 3769 1728 3584 1258 
Q 3400 788 3053 416 
Q 2822 169 2531 39 
Q 2241 -91 1919 -91 
Q 1547 -91 1294 64 
Q 1041 219 916 525 
L 556 -1331 
L -19 -1331 
L 922 3500 
L 1497 3500 
L 1394 2969 
z
" transform="scale(0.015625)"/>
       <path id="DejaVuSans-2212" d="M 678 2272 
L 4684 2272 
L 4684 1741 
L 678 1741 
L 678 2272 
z
" transform="scale(0.015625)"/>
      </defs>
      <use xlink:href="#DejaVuSans-Oblique-70" transform="translate(0 0.015625)"/>
      <use xlink:href="#DejaVuSans-Oblique-48" transform="translate(63.476562 0.015625)"/>
      <use xlink:href="#DejaVuSans-5b" transform="translate(165.731011 0.015625)"/>
      <use xlink:href="#DejaVuSans-2212" transform="translate(204.744683 0.015625)"/>
      <use xlink:href="#DejaVuSans-5d" transform="translate(288.533745 0.015625)"/>
     </g>
    </g>
   </g>
   <g id="line2d_82">
    <path d="M 59.518 330.010262 
L 60.177725 331.664026 
L 60.837449 332.584925 
L 61.497174 333.10985 
L 62.486761 333.505537 
L 63.806211 333.72557 
L 68.094421 334.058252 
L 85.906989 335.239013 
L 105.698731 336.297209 
L 106.688318 336.345454 
L 107.348042 339.48197 
L 108.007767 341.589968 
L 108.667492 342.980756 
L 109.327217 343.851506 
L 109.986941 344.36484 
L 110.646666 344.64646 
L 111.636253 344.823654 
L 113.94529 344.878671 
L 116.584188 345.022125 
L 119.882812 345.457897 
L 150.889874 350.272588 
L 154.51836 350.763337 
L 155.837809 348.99364 
L 156.497534 348.302677 
L 157.157259 347.984469 
L 158.146846 347.922138 
L 180.247624 349.130496 
L 202.01854 350.323675 
L 203.008127 349.448272 
L 204.987301 348.240098 
L 205.976888 347.748738 
L 207.6262 347.409154 
L 210.265099 347.100135 
L 214.223447 346.910446 
L 224.119318 346.724225 
L 240.612436 346.639667 
L 264.032664 346.761588 
L 305.925184 347.241631 
L 414.120038 348.515696 
L 489.658519 349.150471 
L 502.523151 349.237495 
L 502.523151 349.237495 
" clip-path="url(#p1cb4140372)" style="fill: none; stroke: #000000; stroke-linecap: square"/>
   </g>
   <g id="LineCollection_3">
    <path d="M 59.518 387.644218 
L 502.853013 387.644218 
" clip-path="url(#p1cb4140372)" style="fill: none; stroke: #ffffff; stroke-width: 0.1"/>
   </g>
   <g id="LineCollection_4">
    <path d="M 59.518 325.328582 
L 502.853013 325.328582 
" clip-path="url(#p1cb4140372)" style="fill: none; stroke: #ffffff; stroke-width: 0.1"/>
   </g>
   <g id="patch_15">
    <path d="M 59.518 390.76 
L 59.518 322.2128 
" style="fill: none; stroke: #000000; stroke-width: 0.8; stroke-linejoin: miter; stroke-linecap: square"/>
   </g>
   <g id="patch_16">
    <path d="M 534.5198 390.76 
L 534.5198 322.2128 
" style="fill: none; stroke: #000000; stroke-width: 0.8; stroke-linejoin: miter; stroke-linecap: square"/>
   </g>
   <g id="patch_17">
    <path d="M 59.518 390.76 
L 534.5198 390.76 
" style="fill: none; stroke: #000000; stroke-width: 0.8; stroke-linejoin: miter; stroke-linecap: square"/>
   </g>
   <g id="patch_18">
    <path d="M 59.518 322.2128 
L 534.5198 322.2128 
" style="fill: none; stroke: #000000; stroke-width: 0.8; stroke-linejoin: miter; stroke-linecap: square"/>
   </g>
   <g id="legend_3">
    <g id="patch_19">
     <path d="M 452.7198 344.911237 
L 527.5198 344.911237 
Q 529.5198 344.911237 529.5198 342.911237 
L 529.5198 329.2128 
Q 529.5198 327.2128 527.5198 327.2128 
L 452.7198 327.2128 
Q 450.7198 327.2128 450.7198 329.2128 
L 450.7198 342.911237 
Q 450.7198 344.911237 452.7198 344.911237 
z
" style="fill: #ffffff; opacity: 0.8; stroke: #cccccc; stroke-linejoin: miter"/>
    </g>
    <g id="line2d_83">
     <path d="M 454.7198 335.311238 
L 464.7198 335.311238 
L 474.7198 335.311238 
" style="fill: none; stroke: #000000; stroke-linecap: square"/>
    </g>
    <g id="text_31">
     <!-- $pH_{nom+\sigma}$ -->
     <g transform="translate(482.7198 338.811238) scale(0.1 -0.1)">
      <use xlink:href="#DejaVuSans-Oblique-70" transform="translate(0 0.09375)"/>
      <use xlink:href="#DejaVuSans-Oblique-48" transform="translate(63.476562 0.09375)"/>
      <use xlink:href="#DejaVuSans-Oblique-6e" transform="translate(138.671875 -16.3125) scale(0.7)"/>
      <use xlink:href="#DejaVuSans-Oblique-6f" transform="translate(183.037109 -16.3125) scale(0.7)"/>
      <use xlink:href="#DejaVuSans-Oblique-6d" transform="translate(225.864258 -16.3125) scale(0.7)"/>
      <use xlink:href="#DejaVuSans-2b" transform="translate(307.69043 -16.3125) scale(0.7)"/>
      <use xlink:href="#DejaVuSans-Oblique-3c3" transform="translate(379.980469 -16.3125) scale(0.7)"/>
     </g>
    </g>
   </g>
  </g>
  <g id="axes_4">
   <g id="matplotlib.axis_7">
    <g id="ytick_14">
     <g id="line2d_84">
      <defs>
       <path id="me9e42cdd6e" d="M 0 0 
L 3.5 0 
" style="stroke: #000000; stroke-width: 0.8"/>
      </defs>
      <g>
       <use xlink:href="#me9e42cdd6e" x="534.5198" y="151.7104" style="stroke: #000000; stroke-width: 0.8"/>
      </g>
     </g>
     <g id="text_32">
      <!-- 0 -->
      <g transform="translate(541.5198 155.509619) scale(0.1 -0.1)">
       <use xlink:href="#DejaVuSans-30"/>
      </g>
     </g>
    </g>
    <g id="ytick_15">
     <g id="line2d_85">
      <g>
       <use xlink:href="#me9e42cdd6e" x="534.5198" y="117.4368" style="stroke: #000000; stroke-width: 0.8"/>
      </g>
     </g>
     <g id="text_33">
      <!-- 2 -->
      <g transform="translate(541.5198 121.236019) scale(0.1 -0.1)">
       <use xlink:href="#DejaVuSans-32"/>
      </g>
     </g>
    </g>
    <g id="ytick_16">
     <g id="line2d_86">
      <g>
       <use xlink:href="#me9e42cdd6e" x="534.5198" y="83.1632" style="stroke: #000000; stroke-width: 0.8"/>
      </g>
     </g>
     <g id="text_34">
      <!-- 4 -->
      <g transform="translate(541.5198 86.962419) scale(0.1 -0.1)">
       <use xlink:href="#DejaVuSans-34"/>
      </g>
     </g>
    </g>
    <g id="ytick_17">
     <g id="line2d_87">
      <g>
       <use xlink:href="#me9e42cdd6e" x="534.5198" y="48.8896" style="stroke: #000000; stroke-width: 0.8"/>
      </g>
     </g>
     <g id="text_35">
      <!-- 6 -->
      <g transform="translate(541.5198 52.688819) scale(0.1 -0.1)">
       <use xlink:href="#DejaVuSans-36"/>
      </g>
     </g>
    </g>
    <g id="ytick_18">
     <g id="line2d_88">
      <g>
       <use xlink:href="#me9e42cdd6e" x="534.5198" y="14.616" style="stroke: #000000; stroke-width: 0.8"/>
      </g>
     </g>
     <g id="text_36">
      <!-- 8 -->
      <g transform="translate(541.5198 18.415219) scale(0.1 -0.1)">
       <use xlink:href="#DejaVuSans-38"/>
      </g>
     </g>
    </g>
    <g id="text_37">
     <!-- $\dot V_{feed,manure} \; [m^3/d]$ -->
     <g transform="translate(562.4823 127.5132) rotate(-90) scale(0.1 -0.1)">
      <defs>
       <path id="DejaVuSans-Oblique-75" d="M 428 1388 
L 838 3500 
L 1416 3500 
L 1006 1409 
Q 975 1256 961 1147 
Q 947 1038 947 966 
Q 947 700 1109 554 
Q 1272 409 1569 409 
Q 2031 409 2368 721 
Q 2706 1034 2809 1563 
L 3194 3500 
L 3769 3500 
L 3091 0 
L 2516 0 
L 2631 550 
Q 2388 244 2052 76 
Q 1716 -91 1338 -91 
Q 878 -91 622 161 
Q 366 413 366 863 
Q 366 956 381 1097 
Q 397 1238 428 1388 
z
" transform="scale(0.015625)"/>
       <path id="DejaVuSans-Oblique-72" d="M 2853 2969 
Q 2766 3016 2653 3041 
Q 2541 3066 2413 3066 
Q 1953 3066 1609 2717 
Q 1266 2369 1153 1784 
L 800 0 
L 225 0 
L 909 3500 
L 1484 3500 
L 1375 2956 
Q 1603 3259 1920 3421 
Q 2238 3584 2597 3584 
Q 2691 3584 2781 3573 
Q 2872 3563 2963 3538 
L 2853 2969 
z
" transform="scale(0.015625)"/>
      </defs>
      <use xlink:href="#DejaVuSans-307" transform="translate(66.195312 30.015625)"/>
      <use xlink:href="#DejaVuSans-Oblique-56" transform="translate(0 0.609375)"/>
      <use xlink:href="#DejaVuSans-Oblique-66" transform="translate(69.365234 -15.796875) scale(0.7)"/>
      <use xlink:href="#DejaVuSans-Oblique-65" transform="translate(94.008789 -15.796875) scale(0.7)"/>
      <use xlink:href="#DejaVuSans-Oblique-65" transform="translate(137.075195 -15.796875) scale(0.7)"/>
      <use xlink:href="#DejaVuSans-Oblique-64" transform="translate(180.141602 -15.796875) scale(0.7)"/>
      <use xlink:href="#DejaVuSans-2c" transform="translate(224.575195 -15.796875) scale(0.7)"/>
      <use xlink:href="#DejaVuSans-Oblique-6d" transform="translate(260.463867 -15.796875) scale(0.7)"/>
      <use xlink:href="#DejaVuSans-Oblique-61" transform="translate(328.652344 -15.796875) scale(0.7)"/>
      <use xlink:href="#DejaVuSans-Oblique-6e" transform="translate(371.547852 -15.796875) scale(0.7)"/>
      <use xlink:href="#DejaVuSans-Oblique-75" transform="translate(415.913086 -15.796875) scale(0.7)"/>
      <use xlink:href="#DejaVuSans-Oblique-72" transform="translate(460.27832 -15.796875) scale(0.7)"/>
      <use xlink:href="#DejaVuSans-Oblique-65" transform="translate(489.057617 -15.796875) scale(0.7)"/>
      <use xlink:href="#DejaVuSans-5b" transform="translate(561.917534 0.609375)"/>
      <use xlink:href="#DejaVuSans-Oblique-6d" transform="translate(600.931206 0.609375)"/>
      <use xlink:href="#DejaVuSans-33" transform="translate(702.993211 38.890625) scale(0.7)"/>
      <use xlink:href="#DejaVuSans-2f" transform="translate(750.263719 0.609375)"/>
      <use xlink:href="#DejaVuSans-Oblique-64" transform="translate(783.955125 0.609375)"/>
      <use xlink:href="#DejaVuSans-5d" transform="translate(847.431688 0.609375)"/>
     </g>
    </g>
   </g>
   <g id="line2d_89">
    <path d="M 59.518 30.602131 
L 59.847862 65.855882 
L 60.177725 87.604071 
L 60.837449 111.143839 
L 61.497174 121.823638 
L 62.156899 126.790034 
L 62.816624 129.108447 
L 63.476348 130.195944 
L 64.136073 130.720839 
L 65.12566 131.088142 
L 67.104834 131.445993 
L 74.361806 132.428814 
L 81.948641 133.225928 
L 90.854924 133.92541 
L 101.41052 134.51656 
L 106.688318 134.740792 
L 107.01818 17.892265 
L 107.677905 60.283303 
L 108.337629 83.701769 
L 108.997354 97.506631 
L 109.657079 105.925125 
L 110.316804 111.158086 
L 110.976528 114.44307 
L 111.636253 116.512184 
L 112.295978 117.814274 
L 112.955703 118.631485 
L 113.615427 119.144051 
L 114.605014 119.583938 
L 115.924464 119.88054 
L 137.69538 123.171563 
L 145.941939 124.095107 
L 154.51836 124.851008 
L 154.848222 151.71046 
L 156.827397 151.710101 
L 157.816984 140.990956 
L 158.476708 137.473684 
L 159.136433 135.632254 
L 159.796158 134.65675 
L 160.455882 134.128971 
L 161.44547 133.736283 
L 162.764919 133.50873 
L 166.063543 133.257996 
L 176.619138 132.733496 
L 189.48377 132.321711 
L 202.01854 132.079199 
L 202.348402 151.710467 
L 205.976888 151.71033 
L 206.306751 149.838577 
L 206.966475 145.204915 
L 207.6262 142.995709 
L 208.285925 141.844357 
L 208.94565 141.206676 
L 209.935237 140.6942 
L 211.254686 140.336686 
L 213.893585 139.908973 
L 220.16097 139.164906 
L 228.407529 138.416087 
L 237.973537 137.780359 
L 249.188858 137.263501 
L 263.043077 136.853955 
L 281.185507 136.550671 
L 307.574496 136.352391 
L 353.755226 136.261971 
L 502.523151 136.285286 
L 502.523151 136.285286 
" clip-path="url(#peb7c956896)" style="fill: none; stroke: #a0522d; stroke-width: 1.166667; stroke-linecap: square"/>
   </g>
   <g id="LineCollection_5">
    <path clip-path="url(#peb7c956896)" style="fill: none; stroke-dasharray: 5,5; stroke-dashoffset: 0; stroke: #000000"/>
   </g>
   <g id="patch_20">
    <path d="M 59.518 151.7104 
L 59.518 14.616 
" style="fill: none; stroke: #000000; stroke-width: 0.8; stroke-linejoin: miter; stroke-linecap: square"/>
   </g>
   <g id="patch_21">
    <path d="M 534.5198 151.7104 
L 534.5198 14.616 
" style="fill: none; stroke: #000000; stroke-width: 0.8; stroke-linejoin: miter; stroke-linecap: square"/>
   </g>
   <g id="patch_22">
    <path d="M 59.518 151.7104 
L 534.5198 151.7104 
" style="fill: none; stroke: #000000; stroke-width: 0.8; stroke-linejoin: miter; stroke-linecap: square"/>
   </g>
   <g id="patch_23">
    <path d="M 59.518 14.616 
L 534.5198 14.616 
" style="fill: none; stroke: #000000; stroke-width: 0.8; stroke-linejoin: miter; stroke-linecap: square"/>
   </g>
   <g id="legend_4">
    <g id="patch_24">
     <path d="M 423.87605 37.294125 
L 527.5198 37.294125 
Q 529.5198 37.294125 529.5198 35.294125 
L 529.5198 21.616 
Q 529.5198 19.616 527.5198 19.616 
L 423.87605 19.616 
Q 421.87605 19.616 421.87605 21.616 
L 421.87605 35.294125 
Q 421.87605 37.294125 423.87605 37.294125 
z
" style="fill: #ffffff; opacity: 0.8; stroke: #cccccc; stroke-linejoin: miter"/>
    </g>
    <g id="line2d_90">
     <path d="M 425.87605 27.714438 
L 435.87605 27.714438 
L 445.87605 27.714438 
" style="fill: none; stroke: #a0522d; stroke-width: 1.166667; stroke-linecap: square"/>
    </g>
    <g id="text_38">
     <!-- Cattle manure -->
     <g transform="translate(453.87605 31.214438) scale(0.1 -0.1)">
      <defs>
       <path id="DejaVuSans-43" d="M 4122 4306 
L 4122 3641 
Q 3803 3938 3442 4084 
Q 3081 4231 2675 4231 
Q 1875 4231 1450 3742 
Q 1025 3253 1025 2328 
Q 1025 1406 1450 917 
Q 1875 428 2675 428 
Q 3081 428 3442 575 
Q 3803 722 4122 1019 
L 4122 359 
Q 3791 134 3420 21 
Q 3050 -91 2638 -91 
Q 1578 -91 968 557 
Q 359 1206 359 2328 
Q 359 3453 968 4101 
Q 1578 4750 2638 4750 
Q 3056 4750 3426 4639 
Q 3797 4528 4122 4306 
z
" transform="scale(0.015625)"/>
      </defs>
      <use xlink:href="#DejaVuSans-43"/>
      <use xlink:href="#DejaVuSans-61" x="69.824219"/>
      <use xlink:href="#DejaVuSans-74" x="131.103516"/>
      <use xlink:href="#DejaVuSans-74" x="170.3125"/>
      <use xlink:href="#DejaVuSans-6c" x="209.521484"/>
      <use xlink:href="#DejaVuSans-65" x="237.304688"/>
      <use xlink:href="#DejaVuSans-20" x="298.828125"/>
      <use xlink:href="#DejaVuSans-6d" x="330.615234"/>
      <use xlink:href="#DejaVuSans-61" x="428.027344"/>
      <use xlink:href="#DejaVuSans-6e" x="489.306641"/>
      <use xlink:href="#DejaVuSans-75" x="552.685547"/>
      <use xlink:href="#DejaVuSans-72" x="616.064453"/>
      <use xlink:href="#DejaVuSans-65" x="654.927734"/>
     </g>
    </g>
   </g>
  </g>
 </g>
 <defs>
  <clipPath id="peb7c956896">
   <rect x="59.518" y="14.616" width="475.0018" height="137.0944"/>
  </clipPath>
  <clipPath id="pbeb8151778">
   <rect x="59.518" y="168.4144" width="475.0018" height="137.0944"/>
  </clipPath>
  <clipPath id="p1cb4140372">
   <rect x="59.518" y="322.2128" width="475.0018" height="68.5472"/>
  </clipPath>
 </defs>
</svg>
