<?xml version="1.0" encoding="utf-8" standalone="no"?>
<!DOCTYPE svg PUBLIC "-//W3C//DTD SVG 1.1//EN"
  "http://www.w3.org/Graphics/SVG/1.1/DTD/svg11.dtd">
<svg xmlns:xlink="http://www.w3.org/1999/xlink" width="576pt" height="432pt" viewBox="0 0 576 432" xmlns="http://www.w3.org/2000/svg" version="1.1">
 <metadata>
  <rdf:RDF xmlns:dc="http://purl.org/dc/elements/1.1/" xmlns:cc="http://creativecommons.org/ns#" xmlns:rdf="http://www.w3.org/1999/02/22-rdf-syntax-ns#">
   <cc:Work>
    <dc:type rdf:resource="http://purl.org/dc/dcmitype/StillImage"/>
    <dc:date>2025-07-22T17:49:30.072483</dc:date>
    <dc:format>image/svg+xml</dc:format>
    <dc:creator>
     <cc:Agent>
      <dc:title>Matplotlib v3.9.2, https://matplotlib.org/</dc:title>
     </cc:Agent>
    </dc:creator>
   </cc:Work>
  </rdf:RDF>
 </metadata>
 <defs>
  <style type="text/css">*{stroke-linejoin: round; stroke-linecap: butt}</style>
 </defs>
 <g id="figure_1">
  <g id="patch_1">
   <path d="M 0 432 
L 576 432 
L 576 0 
L 0 0 
z
" style="fill: #ffffff"/>
  </g>
  <g id="axes_1">
   <g id="patch_2">
    <path d="M 59.518 151.7104 
L 534.5198 151.7104 
L 534.5198 14.616 
L 59.518 14.616 
z
" style="fill: #ffffff"/>
   </g>
   <g id="matplotlib.axis_1">
    <g id="xtick_1">
     <g id="line2d_1">
      <path d="M 59.518 151.7104 
L 59.518 14.616 
" clip-path="url(#p3b22d6d8a9)" style="fill: none; stroke-dasharray: 2.96,1.28; stroke-dashoffset: 0; stroke: #b0b0b0; stroke-width: 0.8"/>
     </g>
     <g id="line2d_2">
      <defs>
       <path id="m09d6e09195" d="M 0 0 
L 0 3.5 
" style="stroke: #000000; stroke-width: 0.8"/>
      </defs>
      <g>
       <use xlink:href="#m09d6e09195" x="59.518" y="151.7104" style="stroke: #000000; stroke-width: 0.8"/>
      </g>
     </g>
    </g>
    <g id="xtick_2">
     <g id="line2d_3">
      <path d="M 138.684967 151.7104 
L 138.684967 14.616 
" clip-path="url(#p3b22d6d8a9)" style="fill: none; stroke-dasharray: 2.96,1.28; stroke-dashoffset: 0; stroke: #b0b0b0; stroke-width: 0.8"/>
     </g>
     <g id="line2d_4">
      <g>
       <use xlink:href="#m09d6e09195" x="138.684967" y="151.7104" style="stroke: #000000; stroke-width: 0.8"/>
      </g>
     </g>
    </g>
    <g id="xtick_3">
     <g id="line2d_5">
      <path d="M 217.851933 151.7104 
L 217.851933 14.616 
" clip-path="url(#p3b22d6d8a9)" style="fill: none; stroke-dasharray: 2.96,1.28; stroke-dashoffset: 0; stroke: #b0b0b0; stroke-width: 0.8"/>
     </g>
     <g id="line2d_6">
      <g>
       <use xlink:href="#m09d6e09195" x="217.851933" y="151.7104" style="stroke: #000000; stroke-width: 0.8"/>
      </g>
     </g>
    </g>
    <g id="xtick_4">
     <g id="line2d_7">
      <path d="M 297.0189 151.7104 
L 297.0189 14.616 
" clip-path="url(#p3b22d6d8a9)" style="fill: none; stroke-dasharray: 2.96,1.28; stroke-dashoffset: 0; stroke: #b0b0b0; stroke-width: 0.8"/>
     </g>
     <g id="line2d_8">
      <g>
       <use xlink:href="#m09d6e09195" x="297.0189" y="151.7104" style="stroke: #000000; stroke-width: 0.8"/>
      </g>
     </g>
    </g>
    <g id="xtick_5">
     <g id="line2d_9">
      <path d="M 376.185867 151.7104 
L 376.185867 14.616 
" clip-path="url(#p3b22d6d8a9)" style="fill: none; stroke-dasharray: 2.96,1.28; stroke-dashoffset: 0; stroke: #b0b0b0; stroke-width: 0.8"/>
     </g>
     <g id="line2d_10">
      <g>
       <use xlink:href="#m09d6e09195" x="376.185867" y="151.7104" style="stroke: #000000; stroke-width: 0.8"/>
      </g>
     </g>
    </g>
    <g id="xtick_6">
     <g id="line2d_11">
      <path d="M 455.352833 151.7104 
L 455.352833 14.616 
" clip-path="url(#p3b22d6d8a9)" style="fill: none; stroke-dasharray: 2.96,1.28; stroke-dashoffset: 0; stroke: #b0b0b0; stroke-width: 0.8"/>
     </g>
     <g id="line2d_12">
      <g>
       <use xlink:href="#m09d6e09195" x="455.352833" y="151.7104" style="stroke: #000000; stroke-width: 0.8"/>
      </g>
     </g>
    </g>
    <g id="xtick_7">
     <g id="line2d_13">
      <path d="M 534.5198 151.7104 
L 534.5198 14.616 
" clip-path="url(#p3b22d6d8a9)" style="fill: none; stroke-dasharray: 2.96,1.28; stroke-dashoffset: 0; stroke: #b0b0b0; stroke-width: 0.8"/>
     </g>
     <g id="line2d_14">
      <g>
       <use xlink:href="#m09d6e09195" x="534.5198" y="151.7104" style="stroke: #000000; stroke-width: 0.8"/>
      </g>
     </g>
    </g>
   </g>
   <g id="matplotlib.axis_2">
    <g id="ytick_1">
     <g id="line2d_15">
      <path d="M 59.518 151.7104 
L 534.5198 151.7104 
" clip-path="url(#p3b22d6d8a9)" style="fill: none; stroke-dasharray: 2.96,1.28; stroke-dashoffset: 0; stroke: #b0b0b0; stroke-width: 0.8"/>
     </g>
     <g id="line2d_16">
      <defs>
       <path id="m74ec3085d3" d="M 0 0 
L -3.5 0 
" style="stroke: #000000; stroke-width: 0.8"/>
      </defs>
      <g>
       <use xlink:href="#m74ec3085d3" x="59.518" y="151.7104" style="stroke: #000000; stroke-width: 0.8"/>
      </g>
     </g>
     <g id="text_1">
      <!-- 0 -->
      <g transform="translate(46.1555 155.509619) scale(0.1 -0.1)">
       <defs>
        <path id="DejaVuSans-30" d="M 2034 4250 
Q 1547 4250 1301 3770 
Q 1056 3291 1056 2328 
Q 1056 1369 1301 889 
Q 1547 409 2034 409 
Q 2525 409 2770 889 
Q 3016 1369 3016 2328 
Q 3016 3291 2770 3770 
Q 2525 4250 2034 4250 
z
M 2034 4750 
Q 2819 4750 3233 4129 
Q 3647 3509 3647 2328 
Q 3647 1150 3233 529 
Q 2819 -91 2034 -91 
Q 1250 -91 836 529 
Q 422 1150 422 2328 
Q 422 3509 836 4129 
Q 1250 4750 2034 4750 
z
" transform="scale(0.015625)"/>
       </defs>
       <use xlink:href="#DejaVuSans-30"/>
      </g>
     </g>
    </g>
    <g id="ytick_2">
     <g id="line2d_17">
      <path d="M 59.518 117.4368 
L 534.5198 117.4368 
" clip-path="url(#p3b22d6d8a9)" style="fill: none; stroke-dasharray: 2.96,1.28; stroke-dashoffset: 0; stroke: #b0b0b0; stroke-width: 0.8"/>
     </g>
     <g id="line2d_18">
      <g>
       <use xlink:href="#m74ec3085d3" x="59.518" y="117.4368" style="stroke: #000000; stroke-width: 0.8"/>
      </g>
     </g>
     <g id="text_2">
      <!-- 2 -->
      <g transform="translate(46.1555 121.236019) scale(0.1 -0.1)">
       <defs>
        <path id="DejaVuSans-32" d="M 1228 531 
L 3431 531 
L 3431 0 
L 469 0 
L 469 531 
Q 828 903 1448 1529 
Q 2069 2156 2228 2338 
Q 2531 2678 2651 2914 
Q 2772 3150 2772 3378 
Q 2772 3750 2511 3984 
Q 2250 4219 1831 4219 
Q 1534 4219 1204 4116 
Q 875 4013 500 3803 
L 500 4441 
Q 881 4594 1212 4672 
Q 1544 4750 1819 4750 
Q 2544 4750 2975 4387 
Q 3406 4025 3406 3419 
Q 3406 3131 3298 2873 
Q 3191 2616 2906 2266 
Q 2828 2175 2409 1742 
Q 1991 1309 1228 531 
z
" transform="scale(0.015625)"/>
       </defs>
       <use xlink:href="#DejaVuSans-32"/>
      </g>
     </g>
    </g>
    <g id="ytick_3">
     <g id="line2d_19">
      <path d="M 59.518 83.1632 
L 534.5198 83.1632 
" clip-path="url(#p3b22d6d8a9)" style="fill: none; stroke-dasharray: 2.96,1.28; stroke-dashoffset: 0; stroke: #b0b0b0; stroke-width: 0.8"/>
     </g>
     <g id="line2d_20">
      <g>
       <use xlink:href="#m74ec3085d3" x="59.518" y="83.1632" style="stroke: #000000; stroke-width: 0.8"/>
      </g>
     </g>
     <g id="text_3">
      <!-- 4 -->
      <g transform="translate(46.1555 86.962419) scale(0.1 -0.1)">
       <defs>
        <path id="DejaVuSans-34" d="M 2419 4116 
L 825 1625 
L 2419 1625 
L 2419 4116 
z
M 2253 4666 
L 3047 4666 
L 3047 1625 
L 3713 1625 
L 3713 1100 
L 3047 1100 
L 3047 0 
L 2419 0 
L 2419 1100 
L 313 1100 
L 313 1709 
L 2253 4666 
z
" transform="scale(0.015625)"/>
       </defs>
       <use xlink:href="#DejaVuSans-34"/>
      </g>
     </g>
    </g>
    <g id="ytick_4">
     <g id="line2d_21">
      <path d="M 59.518 48.8896 
L 534.5198 48.8896 
" clip-path="url(#p3b22d6d8a9)" style="fill: none; stroke-dasharray: 2.96,1.28; stroke-dashoffset: 0; stroke: #b0b0b0; stroke-width: 0.8"/>
     </g>
     <g id="line2d_22">
      <g>
       <use xlink:href="#m74ec3085d3" x="59.518" y="48.8896" style="stroke: #000000; stroke-width: 0.8"/>
      </g>
     </g>
     <g id="text_4">
      <!-- 6 -->
      <g transform="translate(46.1555 52.688819) scale(0.1 -0.1)">
       <defs>
        <path id="DejaVuSans-36" d="M 2113 2584 
Q 1688 2584 1439 2293 
Q 1191 2003 1191 1497 
Q 1191 994 1439 701 
Q 1688 409 2113 409 
Q 2538 409 2786 701 
Q 3034 994 3034 1497 
Q 3034 2003 2786 2293 
Q 2538 2584 2113 2584 
z
M 3366 4563 
L 3366 3988 
Q 3128 4100 2886 4159 
Q 2644 4219 2406 4219 
Q 1781 4219 1451 3797 
Q 1122 3375 1075 2522 
Q 1259 2794 1537 2939 
Q 1816 3084 2150 3084 
Q 2853 3084 3261 2657 
Q 3669 2231 3669 1497 
Q 3669 778 3244 343 
Q 2819 -91 2113 -91 
Q 1303 -91 875 529 
Q 447 1150 447 2328 
Q 447 3434 972 4092 
Q 1497 4750 2381 4750 
Q 2619 4750 2861 4703 
Q 3103 4656 3366 4563 
z
" transform="scale(0.015625)"/>
       </defs>
       <use xlink:href="#DejaVuSans-36"/>
      </g>
     </g>
    </g>
    <g id="ytick_5">
     <g id="line2d_23">
      <path d="M 59.518 14.616 
L 534.5198 14.616 
" clip-path="url(#p3b22d6d8a9)" style="fill: none; stroke-dasharray: 2.96,1.28; stroke-dashoffset: 0; stroke: #b0b0b0; stroke-width: 0.8"/>
     </g>
     <g id="line2d_24">
      <g>
       <use xlink:href="#m74ec3085d3" x="59.518" y="14.616" style="stroke: #000000; stroke-width: 0.8"/>
      </g>
     </g>
     <g id="text_5">
      <!-- 8 -->
      <g transform="translate(46.1555 18.415219) scale(0.1 -0.1)">
       <defs>
        <path id="DejaVuSans-38" d="M 2034 2216 
Q 1584 2216 1326 1975 
Q 1069 1734 1069 1313 
Q 1069 891 1326 650 
Q 1584 409 2034 409 
Q 2484 409 2743 651 
Q 3003 894 3003 1313 
Q 3003 1734 2745 1975 
Q 2488 2216 2034 2216 
z
M 1403 2484 
Q 997 2584 770 2862 
Q 544 3141 544 3541 
Q 544 4100 942 4425 
Q 1341 4750 2034 4750 
Q 2731 4750 3128 4425 
Q 3525 4100 3525 3541 
Q 3525 3141 3298 2862 
Q 3072 2584 2669 2484 
Q 3125 2378 3379 2068 
Q 3634 1759 3634 1313 
Q 3634 634 3220 271 
Q 2806 -91 2034 -91 
Q 1263 -91 848 271 
Q 434 634 434 1313 
Q 434 1759 690 2068 
Q 947 2378 1403 2484 
z
M 1172 3481 
Q 1172 3119 1398 2916 
Q 1625 2713 2034 2713 
Q 2441 2713 2670 2916 
Q 2900 3119 2900 3481 
Q 2900 3844 2670 4047 
Q 2441 4250 2034 4250 
Q 1625 4250 1398 4047 
Q 1172 3844 1172 3481 
z
" transform="scale(0.015625)"/>
       </defs>
       <use xlink:href="#DejaVuSans-38"/>
      </g>
     </g>
    </g>
    <g id="text_6">
     <!-- $\dot V_{feed,silage} \; [m^3/d]$ -->
     <g transform="translate(39.0555 124.2132) rotate(-90) scale(0.1 -0.1)">
      <defs>
       <path id="DejaVuSans-307" d="M -1894 4863 
L -1319 4863 
L -1319 4134 
L -1894 4134 
L -1894 4863 
z
M -1600 3584 
L -1600 3584 
z
" transform="scale(0.015625)"/>
       <path id="DejaVuSans-Oblique-56" d="M 1319 0 
L 500 4666 
L 1119 4666 
L 1797 653 
L 4063 4666 
L 4750 4666 
L 2053 0 
L 1319 0 
z
" transform="scale(0.015625)"/>
       <path id="DejaVuSans-Oblique-66" d="M 3059 4863 
L 2969 4384 
L 2419 4384 
Q 2106 4384 1964 4261 
Q 1822 4138 1753 3809 
L 1691 3500 
L 2638 3500 
L 2553 3053 
L 1606 3053 
L 1013 0 
L 434 0 
L 1031 3053 
L 481 3053 
L 563 3500 
L 1113 3500 
L 1159 3744 
Q 1278 4363 1576 4613 
Q 1875 4863 2516 4863 
L 3059 4863 
z
" transform="scale(0.015625)"/>
       <path id="DejaVuSans-Oblique-65" d="M 3078 2063 
Q 3088 2113 3092 2166 
Q 3097 2219 3097 2272 
Q 3097 2653 2873 2875 
Q 2650 3097 2266 3097 
Q 1838 3097 1509 2826 
Q 1181 2556 1013 2059 
L 3078 2063 
z
M 3578 1613 
L 903 1613 
Q 884 1494 878 1425 
Q 872 1356 872 1306 
Q 872 872 1139 634 
Q 1406 397 1894 397 
Q 2269 397 2603 481 
Q 2938 566 3225 728 
L 3116 159 
Q 2806 34 2476 -28 
Q 2147 -91 1806 -91 
Q 1078 -91 686 257 
Q 294 606 294 1247 
Q 294 1794 489 2264 
Q 684 2734 1063 3103 
Q 1306 3334 1642 3459 
Q 1978 3584 2356 3584 
Q 2950 3584 3301 3228 
Q 3653 2872 3653 2272 
Q 3653 2128 3634 1964 
Q 3616 1800 3578 1613 
z
" transform="scale(0.015625)"/>
       <path id="DejaVuSans-Oblique-64" d="M 2675 525 
Q 2444 222 2128 65 
Q 1813 -91 1428 -91 
Q 903 -91 598 267 
Q 294 625 294 1247 
Q 294 1766 478 2236 
Q 663 2706 1013 3078 
Q 1244 3325 1534 3454 
Q 1825 3584 2144 3584 
Q 2481 3584 2739 3421 
Q 2997 3259 3138 2956 
L 3513 4863 
L 4091 4863 
L 3144 0 
L 2566 0 
L 2675 525 
z
M 891 1350 
Q 891 897 1095 644 
Q 1300 391 1663 391 
Q 1931 391 2161 520 
Q 2391 650 2566 903 
Q 2750 1166 2856 1509 
Q 2963 1853 2963 2188 
Q 2963 2622 2758 2865 
Q 2553 3109 2194 3109 
Q 1922 3109 1687 2981 
Q 1453 2853 1288 2613 
Q 1106 2353 998 2009 
Q 891 1666 891 1350 
z
" transform="scale(0.015625)"/>
       <path id="DejaVuSans-2c" d="M 750 794 
L 1409 794 
L 1409 256 
L 897 -744 
L 494 -744 
L 750 256 
L 750 794 
z
" transform="scale(0.015625)"/>
       <path id="DejaVuSans-Oblique-73" d="M 3200 3397 
L 3091 2853 
Q 2863 2978 2609 3040 
Q 2356 3103 2088 3103 
Q 1634 3103 1373 2948 
Q 1113 2794 1113 2528 
Q 1113 2219 1719 2053 
Q 1766 2041 1788 2034 
L 1972 1978 
Q 2547 1819 2739 1644 
Q 2931 1469 2931 1166 
Q 2931 609 2489 259 
Q 2047 -91 1331 -91 
Q 1053 -91 747 -37 
Q 441 16 72 128 
L 184 722 
Q 500 559 806 475 
Q 1113 391 1394 391 
Q 1816 391 2080 572 
Q 2344 753 2344 1031 
Q 2344 1331 1650 1516 
L 1591 1531 
L 1394 1581 
Q 956 1697 753 1886 
Q 550 2075 550 2369 
Q 550 2928 970 3256 
Q 1391 3584 2113 3584 
Q 2397 3584 2667 3537 
Q 2938 3491 3200 3397 
z
" transform="scale(0.015625)"/>
       <path id="DejaVuSans-Oblique-69" d="M 1172 4863 
L 1747 4863 
L 1606 4134 
L 1031 4134 
L 1172 4863 
z
M 909 3500 
L 1484 3500 
L 800 0 
L 225 0 
L 909 3500 
z
" transform="scale(0.015625)"/>
       <path id="DejaVuSans-Oblique-6c" d="M 1172 4863 
L 1747 4863 
L 800 0 
L 225 0 
L 1172 4863 
z
" transform="scale(0.015625)"/>
       <path id="DejaVuSans-Oblique-61" d="M 3438 1997 
L 3047 0 
L 2472 0 
L 2578 531 
Q 2325 219 2001 64 
Q 1678 -91 1281 -91 
Q 834 -91 548 182 
Q 263 456 263 884 
Q 263 1497 752 1853 
Q 1241 2209 2100 2209 
L 2900 2209 
L 2931 2363 
Q 2938 2388 2941 2417 
Q 2944 2447 2944 2509 
Q 2944 2788 2717 2942 
Q 2491 3097 2081 3097 
Q 1800 3097 1504 3025 
Q 1209 2953 897 2809 
L 997 3341 
Q 1322 3463 1633 3523 
Q 1944 3584 2234 3584 
Q 2853 3584 3176 3315 
Q 3500 3047 3500 2534 
Q 3500 2431 3484 2292 
Q 3469 2153 3438 1997 
z
M 2816 1759 
L 2241 1759 
Q 1534 1759 1195 1570 
Q 856 1381 856 984 
Q 856 709 1029 553 
Q 1203 397 1509 397 
Q 1978 397 2328 733 
Q 2678 1069 2791 1631 
L 2816 1759 
z
" transform="scale(0.015625)"/>
       <path id="DejaVuSans-Oblique-67" d="M 3816 3500 
L 3219 434 
Q 3047 -456 2561 -893 
Q 2075 -1331 1253 -1331 
Q 950 -1331 690 -1286 
Q 431 -1241 206 -1147 
L 313 -588 
Q 525 -725 762 -790 
Q 1000 -856 1269 -856 
Q 1816 -856 2167 -557 
Q 2519 -259 2631 300 
L 2681 563 
Q 2441 288 2122 144 
Q 1803 0 1434 0 
Q 903 0 598 351 
Q 294 703 294 1319 
Q 294 1803 478 2267 
Q 663 2731 997 3091 
Q 1219 3328 1514 3456 
Q 1809 3584 2131 3584 
Q 2484 3584 2746 3420 
Q 3009 3256 3138 2956 
L 3238 3500 
L 3816 3500 
z
M 2950 2216 
Q 2950 2641 2750 2872 
Q 2550 3103 2181 3103 
Q 1953 3103 1747 3012 
Q 1541 2922 1394 2759 
Q 1156 2491 1023 2127 
Q 891 1763 891 1375 
Q 891 944 1092 712 
Q 1294 481 1672 481 
Q 2219 481 2584 976 
Q 2950 1472 2950 2216 
z
" transform="scale(0.015625)"/>
       <path id="DejaVuSans-5b" d="M 550 4863 
L 1875 4863 
L 1875 4416 
L 1125 4416 
L 1125 -397 
L 1875 -397 
L 1875 -844 
L 550 -844 
L 550 4863 
z
" transform="scale(0.015625)"/>
       <path id="DejaVuSans-Oblique-6d" d="M 5747 2113 
L 5338 0 
L 4763 0 
L 5166 2094 
Q 5191 2228 5203 2325 
Q 5216 2422 5216 2491 
Q 5216 2772 5059 2928 
Q 4903 3084 4622 3084 
Q 4203 3084 3875 2770 
Q 3547 2456 3450 1953 
L 3066 0 
L 2491 0 
L 2900 2094 
Q 2925 2209 2937 2307 
Q 2950 2406 2950 2484 
Q 2950 2769 2794 2926 
Q 2638 3084 2363 3084 
Q 1938 3084 1609 2770 
Q 1281 2456 1184 1953 
L 800 0 
L 225 0 
L 909 3500 
L 1484 3500 
L 1375 2956 
Q 1609 3263 1923 3423 
Q 2238 3584 2597 3584 
Q 2978 3584 3223 3384 
Q 3469 3184 3519 2828 
Q 3781 3197 4126 3390 
Q 4472 3584 4856 3584 
Q 5306 3584 5551 3325 
Q 5797 3066 5797 2591 
Q 5797 2488 5784 2364 
Q 5772 2241 5747 2113 
z
" transform="scale(0.015625)"/>
       <path id="DejaVuSans-33" d="M 2597 2516 
Q 3050 2419 3304 2112 
Q 3559 1806 3559 1356 
Q 3559 666 3084 287 
Q 2609 -91 1734 -91 
Q 1441 -91 1130 -33 
Q 819 25 488 141 
L 488 750 
Q 750 597 1062 519 
Q 1375 441 1716 441 
Q 2309 441 2620 675 
Q 2931 909 2931 1356 
Q 2931 1769 2642 2001 
Q 2353 2234 1838 2234 
L 1294 2234 
L 1294 2753 
L 1863 2753 
Q 2328 2753 2575 2939 
Q 2822 3125 2822 3475 
Q 2822 3834 2567 4026 
Q 2313 4219 1838 4219 
Q 1578 4219 1281 4162 
Q 984 4106 628 3988 
L 628 4550 
Q 988 4650 1302 4700 
Q 1616 4750 1894 4750 
Q 2613 4750 3031 4423 
Q 3450 4097 3450 3541 
Q 3450 3153 3228 2886 
Q 3006 2619 2597 2516 
z
" transform="scale(0.015625)"/>
       <path id="DejaVuSans-2f" d="M 1625 4666 
L 2156 4666 
L 531 -594 
L 0 -594 
L 1625 4666 
z
" transform="scale(0.015625)"/>
       <path id="DejaVuSans-5d" d="M 1947 4863 
L 1947 -844 
L 622 -844 
L 622 -397 
L 1369 -397 
L 1369 4416 
L 622 4416 
L 622 4863 
L 1947 4863 
z
" transform="scale(0.015625)"/>
      </defs>
      <use xlink:href="#DejaVuSans-307" transform="translate(66.195312 30.015625)"/>
      <use xlink:href="#DejaVuSans-Oblique-56" transform="translate(0 0.609375)"/>
      <use xlink:href="#DejaVuSans-Oblique-66" transform="translate(69.365234 -15.796875) scale(0.7)"/>
      <use xlink:href="#DejaVuSans-Oblique-65" transform="translate(94.008789 -15.796875) scale(0.7)"/>
      <use xlink:href="#DejaVuSans-Oblique-65" transform="translate(137.075195 -15.796875) scale(0.7)"/>
      <use xlink:href="#DejaVuSans-Oblique-64" transform="translate(180.141602 -15.796875) scale(0.7)"/>
      <use xlink:href="#DejaVuSans-2c" transform="translate(224.575195 -15.796875) scale(0.7)"/>
      <use xlink:href="#DejaVuSans-Oblique-73" transform="translate(260.463867 -15.796875) scale(0.7)"/>
      <use xlink:href="#DejaVuSans-Oblique-69" transform="translate(296.933594 -15.796875) scale(0.7)"/>
      <use xlink:href="#DejaVuSans-Oblique-6c" transform="translate(316.381836 -15.796875) scale(0.7)"/>
      <use xlink:href="#DejaVuSans-Oblique-61" transform="translate(335.830078 -15.796875) scale(0.7)"/>
      <use xlink:href="#DejaVuSans-Oblique-67" transform="translate(378.725586 -15.796875) scale(0.7)"/>
      <use xlink:href="#DejaVuSans-Oblique-65" transform="translate(423.15918 -15.796875) scale(0.7)"/>
      <use xlink:href="#DejaVuSans-5b" transform="translate(496.019097 0.609375)"/>
      <use xlink:href="#DejaVuSans-Oblique-6d" transform="translate(535.032769 0.609375)"/>
      <use xlink:href="#DejaVuSans-33" transform="translate(637.094774 38.890625) scale(0.7)"/>
      <use xlink:href="#DejaVuSans-2f" transform="translate(684.365282 0.609375)"/>
      <use xlink:href="#DejaVuSans-Oblique-64" transform="translate(718.056688 0.609375)"/>
      <use xlink:href="#DejaVuSans-5d" transform="translate(781.53325 0.609375)"/>
     </g>
    </g>
   </g>
   <g id="line2d_25">
    <path d="M 59.518 86.142148 
L 59.847862 105.652352 
L 60.177725 116.506993 
L 60.507587 123.050904 
L 60.837449 127.149832 
L 61.167312 129.781364 
L 61.827037 132.641546 
L 62.486761 133.929842 
L 63.146486 134.545972 
L 63.806211 134.865933 
L 65.12566 135.175938 
L 68.094421 135.511214 
L 75.681256 136.08479 
L 86.236851 136.65193 
L 99.101483 137.109326 
L 106.688318 137.296558 
L 107.01818 41.087269 
L 107.677905 77.134215 
L 108.337629 96.10343 
L 108.997354 106.857179 
L 109.657079 113.083288 
L 110.316804 116.719573 
L 110.976528 118.859905 
L 111.636253 120.137148 
L 112.295978 120.919451 
L 113.285565 121.605713 
L 114.605014 122.12082 
L 116.914051 122.699282 
L 122.191849 123.734326 
L 128.459233 124.733299 
L 135.386343 125.606927 
L 143.30304 126.375761 
L 152.539186 127.041083 
L 154.51836 127.157977 
L 154.848222 151.710411 
L 156.497534 151.710391 
L 156.827397 148.82068 
L 157.487121 142.065684 
L 158.146846 138.865073 
L 158.806571 137.238342 
L 159.466295 136.377969 
L 160.12602 135.90696 
L 161.115607 135.54599 
L 162.764919 135.287212 
L 166.723267 135.007017 
L 177.278863 134.517448 
L 191.133082 134.105094 
L 202.01854 133.900702 
L 202.348402 151.710412 
L 205.647026 151.710401 
L 205.976888 150.999962 
L 206.306751 147.741245 
L 206.636613 145.801023 
L 207.296338 143.719722 
L 207.956062 142.731199 
L 208.615787 142.223032 
L 209.605374 141.836968 
L 211.254686 141.516695 
L 215.542897 141.001732 
L 223.459593 140.28115 
L 233.025602 139.642619 
L 244.240922 139.123619 
L 258.095141 138.711727 
L 276.237571 138.405149 
L 302.62656 138.20171 
L 348.807291 138.102602 
L 497.905078 138.106341 
L 502.523151 138.107184 
L 502.523151 138.107184 
" clip-path="url(#p3b22d6d8a9)" style="fill: none; stroke: #ffa500; stroke-width: 2.5; stroke-linecap: square"/>
   </g>
   <g id="line2d_26">
    <path d="M 59.518 68.023761 
L 59.847862 93.039196 
L 60.177725 106.944213 
L 60.507587 115.322702 
L 60.837449 120.569545 
L 61.167312 123.9377 
L 61.827037 127.598229 
L 62.486761 129.246735 
L 63.146486 130.034793 
L 63.806211 130.44368 
L 64.795798 130.766798 
L 66.774972 131.102233 
L 71.722907 131.642596 
L 79.969466 132.316951 
L 89.865337 132.901905 
L 102.070245 133.391619 
L 106.688318 133.528771 
L 107.01818 11.052018 
L 107.677905 57.155417 
L 108.337629 81.31716 
L 108.997354 94.98007 
L 109.657079 102.878111 
L 110.316804 107.486544 
L 110.976528 110.197784 
L 111.636253 111.815539 
L 112.295978 112.806625 
L 112.955703 113.441357 
L 113.94529 114.045817 
L 115.594601 114.67583 
L 118.893225 115.592147 
L 124.171023 116.816598 
L 129.778683 117.889371 
L 136.046068 118.860937 
L 143.30304 119.748113 
L 151.549599 120.517964 
L 154.51836 120.745568 
L 154.848222 151.710411 
L 156.497534 151.71039 
L 156.827397 148.405224 
L 157.487121 139.723912 
L 158.146846 135.609986 
L 158.806571 133.519383 
L 159.466295 132.414189 
L 160.12602 131.809678 
L 161.115607 131.34723 
L 162.435057 131.063293 
L 165.073956 130.788382 
L 172.66079 130.286303 
L 183.87611 129.766252 
L 197.730329 129.359589 
L 202.01854 129.27079 
L 202.348402 151.710412 
L 205.647026 151.7104 
L 205.976888 151.13105 
L 206.306751 146.911088 
L 206.636613 144.400859 
L 207.296338 141.71072 
L 207.956062 140.434834 
L 208.615787 139.780403 
L 209.605374 139.285279 
L 210.924824 138.942294 
L 214.223447 138.40742 
L 220.820695 137.591847 
L 228.737391 136.838966 
L 237.973537 136.189781 
L 248.858995 135.653534 
L 262.383352 135.220888 
L 279.866057 134.89804 
L 304.605734 134.682076 
L 346.168392 134.571266 
L 461.290356 134.566538 
L 502.523151 134.576414 
L 502.523151 134.576414 
" clip-path="url(#p3b22d6d8a9)" style="fill: none; stroke: #32cd32; stroke-width: 1.833333; stroke-linecap: square"/>
   </g>
   <g id="line2d_27">
    <path d="M 59.518 85.603206 
L 59.847862 104.244703 
L 60.177725 114.748617 
L 60.507587 121.124272 
L 60.837449 125.13628 
L 61.167312 127.721096 
L 61.827037 130.542492 
L 62.486761 131.822028 
L 63.146486 132.440134 
L 64.136073 132.873593 
L 65.785385 133.192103 
L 69.743733 133.617179 
L 77.990292 134.257996 
L 88.216025 134.825921 
L 100.750795 135.292049 
L 106.688318 135.450529 
L 107.01818 36.940218 
L 107.677905 72.944892 
L 108.337629 92.149935 
L 108.997354 103.091003 
L 109.657079 109.440616 
L 110.316804 113.154978 
L 110.976528 115.345343 
L 111.636253 116.656411 
L 112.295978 117.46353 
L 113.285565 118.178592 
L 114.605014 118.725522 
L 116.914051 119.353704 
L 121.861986 120.423782 
L 127.799509 121.480143 
L 134.396756 122.419693 
L 141.653728 123.228862 
L 150.230149 123.953814 
L 154.51836 124.24267 
L 154.848222 151.710412 
L 156.497534 151.710334 
L 157.157259 142.714053 
L 157.816984 138.149447 
L 158.476708 135.887116 
L 159.136433 134.706304 
L 159.796158 134.067856 
L 160.455882 133.708335 
L 161.44547 133.418742 
L 163.424644 133.155457 
L 168.702442 132.79249 
L 179.587899 132.27032 
L 193.112256 131.852711 
L 202.01854 131.671731 
L 202.348402 151.710413 
L 205.647026 151.710396 
L 205.976888 149.464554 
L 206.306751 146.338511 
L 206.636613 144.451233 
L 207.296338 142.402315 
L 207.956062 141.418617 
L 208.615787 140.906086 
L 209.605374 140.507269 
L 211.254686 140.162263 
L 215.542897 139.587902 
L 223.129731 138.808821 
L 232.036015 138.126467 
L 242.59161 137.552546 
L 255.456243 137.089921 
L 271.619498 136.741995 
L 294.050139 136.497698 
L 329.675274 136.358364 
L 410.491552 136.321299 
L 502.523151 136.337594 
L 502.523151 136.337594 
" clip-path="url(#p3b22d6d8a9)" style="fill: none; stroke: #ff1493; stroke-width: 0.5; stroke-linecap: square"/>
   </g>
   <g id="patch_3">
    <path d="M 59.518 151.7104 
L 59.518 14.616 
" style="fill: none; stroke: #000000; stroke-width: 0.8; stroke-linejoin: miter; stroke-linecap: square"/>
   </g>
   <g id="patch_4">
    <path d="M 534.5198 151.7104 
L 534.5198 14.616 
" style="fill: none; stroke: #000000; stroke-width: 0.8; stroke-linejoin: miter; stroke-linecap: square"/>
   </g>
   <g id="patch_5">
    <path d="M 59.518 151.7104 
L 534.5198 151.7104 
" style="fill: none; stroke: #000000; stroke-width: 0.8; stroke-linejoin: miter; stroke-linecap: square"/>
   </g>
   <g id="patch_6">
    <path d="M 59.518 14.616 
L 534.5198 14.616 
" style="fill: none; stroke: #000000; stroke-width: 0.8; stroke-linejoin: miter; stroke-linecap: square"/>
   </g>
   <g id="legend_1">
    <g id="patch_7">
     <path d="M 251.169206 64.45376 
L 370.769206 64.45376 
Q 372.769206 64.45376 372.769206 62.45376 
L 372.769206 19.419385 
Q 372.769206 17.419385 370.769206 17.419385 
L 251.169206 17.419385 
Q 249.169206 17.419385 249.169206 19.419385 
L 249.169206 62.45376 
Q 249.169206 64.45376 251.169206 64.45376 
z
" style="fill: #ffffff; opacity: 0.8; stroke: #cccccc; stroke-linejoin: miter"/>
    </g>
    <g id="line2d_28">
     <path d="M 253.169206 25.517822 
L 263.169206 25.517822 
L 273.169206 25.517822 
" style="fill: none; stroke: #ffa500; stroke-width: 2.5; stroke-linecap: square"/>
    </g>
    <g id="text_7">
     <!-- Maize silage -->
     <g transform="translate(281.169206 29.017822) scale(0.1 -0.1)">
      <defs>
       <path id="DejaVuSans-4d" d="M 628 4666 
L 1569 4666 
L 2759 1491 
L 3956 4666 
L 4897 4666 
L 4897 0 
L 4281 0 
L 4281 4097 
L 3078 897 
L 2444 897 
L 1241 4097 
L 1241 0 
L 628 0 
L 628 4666 
z
" transform="scale(0.015625)"/>
       <path id="DejaVuSans-61" d="M 2194 1759 
Q 1497 1759 1228 1600 
Q 959 1441 959 1056 
Q 959 750 1161 570 
Q 1363 391 1709 391 
Q 2188 391 2477 730 
Q 2766 1069 2766 1631 
L 2766 1759 
L 2194 1759 
z
M 3341 1997 
L 3341 0 
L 2766 0 
L 2766 531 
Q 2569 213 2275 61 
Q 1981 -91 1556 -91 
Q 1019 -91 701 211 
Q 384 513 384 1019 
Q 384 1609 779 1909 
Q 1175 2209 1959 2209 
L 2766 2209 
L 2766 2266 
Q 2766 2663 2505 2880 
Q 2244 3097 1772 3097 
Q 1472 3097 1187 3025 
Q 903 2953 641 2809 
L 641 3341 
Q 956 3463 1253 3523 
Q 1550 3584 1831 3584 
Q 2591 3584 2966 3190 
Q 3341 2797 3341 1997 
z
" transform="scale(0.015625)"/>
       <path id="DejaVuSans-69" d="M 603 3500 
L 1178 3500 
L 1178 0 
L 603 0 
L 603 3500 
z
M 603 4863 
L 1178 4863 
L 1178 4134 
L 603 4134 
L 603 4863 
z
" transform="scale(0.015625)"/>
       <path id="DejaVuSans-7a" d="M 353 3500 
L 3084 3500 
L 3084 2975 
L 922 459 
L 3084 459 
L 3084 0 
L 275 0 
L 275 525 
L 2438 3041 
L 353 3041 
L 353 3500 
z
" transform="scale(0.015625)"/>
       <path id="DejaVuSans-65" d="M 3597 1894 
L 3597 1613 
L 953 1613 
Q 991 1019 1311 708 
Q 1631 397 2203 397 
Q 2534 397 2845 478 
Q 3156 559 3463 722 
L 3463 178 
Q 3153 47 2828 -22 
Q 2503 -91 2169 -91 
Q 1331 -91 842 396 
Q 353 884 353 1716 
Q 353 2575 817 3079 
Q 1281 3584 2069 3584 
Q 2775 3584 3186 3129 
Q 3597 2675 3597 1894 
z
M 3022 2063 
Q 3016 2534 2758 2815 
Q 2500 3097 2075 3097 
Q 1594 3097 1305 2825 
Q 1016 2553 972 2059 
L 3022 2063 
z
" transform="scale(0.015625)"/>
       <path id="DejaVuSans-20" transform="scale(0.015625)"/>
       <path id="DejaVuSans-73" d="M 2834 3397 
L 2834 2853 
Q 2591 2978 2328 3040 
Q 2066 3103 1784 3103 
Q 1356 3103 1142 2972 
Q 928 2841 928 2578 
Q 928 2378 1081 2264 
Q 1234 2150 1697 2047 
L 1894 2003 
Q 2506 1872 2764 1633 
Q 3022 1394 3022 966 
Q 3022 478 2636 193 
Q 2250 -91 1575 -91 
Q 1294 -91 989 -36 
Q 684 19 347 128 
L 347 722 
Q 666 556 975 473 
Q 1284 391 1588 391 
Q 1994 391 2212 530 
Q 2431 669 2431 922 
Q 2431 1156 2273 1281 
Q 2116 1406 1581 1522 
L 1381 1569 
Q 847 1681 609 1914 
Q 372 2147 372 2553 
Q 372 3047 722 3315 
Q 1072 3584 1716 3584 
Q 2034 3584 2315 3537 
Q 2597 3491 2834 3397 
z
" transform="scale(0.015625)"/>
       <path id="DejaVuSans-6c" d="M 603 4863 
L 1178 4863 
L 1178 0 
L 603 0 
L 603 4863 
z
" transform="scale(0.015625)"/>
       <path id="DejaVuSans-67" d="M 2906 1791 
Q 2906 2416 2648 2759 
Q 2391 3103 1925 3103 
Q 1463 3103 1205 2759 
Q 947 2416 947 1791 
Q 947 1169 1205 825 
Q 1463 481 1925 481 
Q 2391 481 2648 825 
Q 2906 1169 2906 1791 
z
M 3481 434 
Q 3481 -459 3084 -895 
Q 2688 -1331 1869 -1331 
Q 1566 -1331 1297 -1286 
Q 1028 -1241 775 -1147 
L 775 -588 
Q 1028 -725 1275 -790 
Q 1522 -856 1778 -856 
Q 2344 -856 2625 -561 
Q 2906 -266 2906 331 
L 2906 616 
Q 2728 306 2450 153 
Q 2172 0 1784 0 
Q 1141 0 747 490 
Q 353 981 353 1791 
Q 353 2603 747 3093 
Q 1141 3584 1784 3584 
Q 2172 3584 2450 3431 
Q 2728 3278 2906 2969 
L 2906 3500 
L 3481 3500 
L 3481 434 
z
" transform="scale(0.015625)"/>
      </defs>
      <use xlink:href="#DejaVuSans-4d"/>
      <use xlink:href="#DejaVuSans-61" x="86.279297"/>
      <use xlink:href="#DejaVuSans-69" x="147.558594"/>
      <use xlink:href="#DejaVuSans-7a" x="175.341797"/>
      <use xlink:href="#DejaVuSans-65" x="227.832031"/>
      <use xlink:href="#DejaVuSans-20" x="289.355469"/>
      <use xlink:href="#DejaVuSans-73" x="321.142578"/>
      <use xlink:href="#DejaVuSans-69" x="373.242188"/>
      <use xlink:href="#DejaVuSans-6c" x="401.025391"/>
      <use xlink:href="#DejaVuSans-61" x="428.808594"/>
      <use xlink:href="#DejaVuSans-67" x="490.087891"/>
      <use xlink:href="#DejaVuSans-65" x="553.564453"/>
     </g>
    </g>
    <g id="line2d_29">
     <path d="M 253.169206 40.195947 
L 263.169206 40.195947 
L 273.169206 40.195947 
" style="fill: none; stroke: #32cd32; stroke-width: 1.833333; stroke-linecap: square"/>
    </g>
    <g id="text_8">
     <!-- Grass silage -->
     <g transform="translate(281.169206 43.695947) scale(0.1 -0.1)">
      <defs>
       <path id="DejaVuSans-47" d="M 3809 666 
L 3809 1919 
L 2778 1919 
L 2778 2438 
L 4434 2438 
L 4434 434 
Q 4069 175 3628 42 
Q 3188 -91 2688 -91 
Q 1594 -91 976 548 
Q 359 1188 359 2328 
Q 359 3472 976 4111 
Q 1594 4750 2688 4750 
Q 3144 4750 3555 4637 
Q 3966 4525 4313 4306 
L 4313 3634 
Q 3963 3931 3569 4081 
Q 3175 4231 2741 4231 
Q 1884 4231 1454 3753 
Q 1025 3275 1025 2328 
Q 1025 1384 1454 906 
Q 1884 428 2741 428 
Q 3075 428 3337 486 
Q 3600 544 3809 666 
z
" transform="scale(0.015625)"/>
       <path id="DejaVuSans-72" d="M 2631 2963 
Q 2534 3019 2420 3045 
Q 2306 3072 2169 3072 
Q 1681 3072 1420 2755 
Q 1159 2438 1159 1844 
L 1159 0 
L 581 0 
L 581 3500 
L 1159 3500 
L 1159 2956 
Q 1341 3275 1631 3429 
Q 1922 3584 2338 3584 
Q 2397 3584 2469 3576 
Q 2541 3569 2628 3553 
L 2631 2963 
z
" transform="scale(0.015625)"/>
      </defs>
      <use xlink:href="#DejaVuSans-47"/>
      <use xlink:href="#DejaVuSans-72" x="77.490234"/>
      <use xlink:href="#DejaVuSans-61" x="118.603516"/>
      <use xlink:href="#DejaVuSans-73" x="179.882812"/>
      <use xlink:href="#DejaVuSans-73" x="231.982422"/>
      <use xlink:href="#DejaVuSans-20" x="284.082031"/>
      <use xlink:href="#DejaVuSans-73" x="315.869141"/>
      <use xlink:href="#DejaVuSans-69" x="367.96875"/>
      <use xlink:href="#DejaVuSans-6c" x="395.751953"/>
      <use xlink:href="#DejaVuSans-61" x="423.535156"/>
      <use xlink:href="#DejaVuSans-67" x="484.814453"/>
      <use xlink:href="#DejaVuSans-65" x="548.291016"/>
     </g>
    </g>
    <g id="line2d_30">
     <path d="M 253.169206 54.874072 
L 263.169206 54.874072 
L 273.169206 54.874072 
" style="fill: none; stroke: #ff1493; stroke-width: 0.5; stroke-linecap: square"/>
    </g>
    <g id="text_9">
     <!-- Sugar beet silage -->
     <g transform="translate(281.169206 58.374072) scale(0.1 -0.1)">
      <defs>
       <path id="DejaVuSans-53" d="M 3425 4513 
L 3425 3897 
Q 3066 4069 2747 4153 
Q 2428 4238 2131 4238 
Q 1616 4238 1336 4038 
Q 1056 3838 1056 3469 
Q 1056 3159 1242 3001 
Q 1428 2844 1947 2747 
L 2328 2669 
Q 3034 2534 3370 2195 
Q 3706 1856 3706 1288 
Q 3706 609 3251 259 
Q 2797 -91 1919 -91 
Q 1588 -91 1214 -16 
Q 841 59 441 206 
L 441 856 
Q 825 641 1194 531 
Q 1563 422 1919 422 
Q 2459 422 2753 634 
Q 3047 847 3047 1241 
Q 3047 1584 2836 1778 
Q 2625 1972 2144 2069 
L 1759 2144 
Q 1053 2284 737 2584 
Q 422 2884 422 3419 
Q 422 4038 858 4394 
Q 1294 4750 2059 4750 
Q 2388 4750 2728 4690 
Q 3069 4631 3425 4513 
z
" transform="scale(0.015625)"/>
       <path id="DejaVuSans-75" d="M 544 1381 
L 544 3500 
L 1119 3500 
L 1119 1403 
Q 1119 906 1312 657 
Q 1506 409 1894 409 
Q 2359 409 2629 706 
Q 2900 1003 2900 1516 
L 2900 3500 
L 3475 3500 
L 3475 0 
L 2900 0 
L 2900 538 
Q 2691 219 2414 64 
Q 2138 -91 1772 -91 
Q 1169 -91 856 284 
Q 544 659 544 1381 
z
M 1991 3584 
L 1991 3584 
z
" transform="scale(0.015625)"/>
       <path id="DejaVuSans-62" d="M 3116 1747 
Q 3116 2381 2855 2742 
Q 2594 3103 2138 3103 
Q 1681 3103 1420 2742 
Q 1159 2381 1159 1747 
Q 1159 1113 1420 752 
Q 1681 391 2138 391 
Q 2594 391 2855 752 
Q 3116 1113 3116 1747 
z
M 1159 2969 
Q 1341 3281 1617 3432 
Q 1894 3584 2278 3584 
Q 2916 3584 3314 3078 
Q 3713 2572 3713 1747 
Q 3713 922 3314 415 
Q 2916 -91 2278 -91 
Q 1894 -91 1617 61 
Q 1341 213 1159 525 
L 1159 0 
L 581 0 
L 581 4863 
L 1159 4863 
L 1159 2969 
z
" transform="scale(0.015625)"/>
       <path id="DejaVuSans-74" d="M 1172 4494 
L 1172 3500 
L 2356 3500 
L 2356 3053 
L 1172 3053 
L 1172 1153 
Q 1172 725 1289 603 
Q 1406 481 1766 481 
L 2356 481 
L 2356 0 
L 1766 0 
Q 1100 0 847 248 
Q 594 497 594 1153 
L 594 3053 
L 172 3053 
L 172 3500 
L 594 3500 
L 594 4494 
L 1172 4494 
z
" transform="scale(0.015625)"/>
      </defs>
      <use xlink:href="#DejaVuSans-53"/>
      <use xlink:href="#DejaVuSans-75" x="63.476562"/>
      <use xlink:href="#DejaVuSans-67" x="126.855469"/>
      <use xlink:href="#DejaVuSans-61" x="190.332031"/>
      <use xlink:href="#DejaVuSans-72" x="251.611328"/>
      <use xlink:href="#DejaVuSans-20" x="292.724609"/>
      <use xlink:href="#DejaVuSans-62" x="324.511719"/>
      <use xlink:href="#DejaVuSans-65" x="387.988281"/>
      <use xlink:href="#DejaVuSans-65" x="449.511719"/>
      <use xlink:href="#DejaVuSans-74" x="511.035156"/>
      <use xlink:href="#DejaVuSans-20" x="550.244141"/>
      <use xlink:href="#DejaVuSans-73" x="582.03125"/>
      <use xlink:href="#DejaVuSans-69" x="634.130859"/>
      <use xlink:href="#DejaVuSans-6c" x="661.914062"/>
      <use xlink:href="#DejaVuSans-61" x="689.697266"/>
      <use xlink:href="#DejaVuSans-67" x="750.976562"/>
      <use xlink:href="#DejaVuSans-65" x="814.453125"/>
     </g>
    </g>
   </g>
  </g>
  <g id="axes_2">
   <g id="patch_8">
    <path d="M 59.518 305.5088 
L 534.5198 305.5088 
L 534.5198 168.4144 
L 59.518 168.4144 
z
" style="fill: #ffffff"/>
   </g>
   <g id="matplotlib.axis_3">
    <g id="xtick_8">
     <g id="line2d_31">
      <path d="M 59.518 305.5088 
L 59.518 168.4144 
" clip-path="url(#p40ff65883f)" style="fill: none; stroke-dasharray: 2.96,1.28; stroke-dashoffset: 0; stroke: #b0b0b0; stroke-width: 0.8"/>
     </g>
     <g id="line2d_32">
      <g>
       <use xlink:href="#m09d6e09195" x="59.518" y="305.5088" style="stroke: #000000; stroke-width: 0.8"/>
      </g>
     </g>
    </g>
    <g id="xtick_9">
     <g id="line2d_33">
      <path d="M 138.684967 305.5088 
L 138.684967 168.4144 
" clip-path="url(#p40ff65883f)" style="fill: none; stroke-dasharray: 2.96,1.28; stroke-dashoffset: 0; stroke: #b0b0b0; stroke-width: 0.8"/>
     </g>
     <g id="line2d_34">
      <g>
       <use xlink:href="#m09d6e09195" x="138.684967" y="305.5088" style="stroke: #000000; stroke-width: 0.8"/>
      </g>
     </g>
    </g>
    <g id="xtick_10">
     <g id="line2d_35">
      <path d="M 217.851933 305.5088 
L 217.851933 168.4144 
" clip-path="url(#p40ff65883f)" style="fill: none; stroke-dasharray: 2.96,1.28; stroke-dashoffset: 0; stroke: #b0b0b0; stroke-width: 0.8"/>
     </g>
     <g id="line2d_36">
      <g>
       <use xlink:href="#m09d6e09195" x="217.851933" y="305.5088" style="stroke: #000000; stroke-width: 0.8"/>
      </g>
     </g>
    </g>
    <g id="xtick_11">
     <g id="line2d_37">
      <path d="M 297.0189 305.5088 
L 297.0189 168.4144 
" clip-path="url(#p40ff65883f)" style="fill: none; stroke-dasharray: 2.96,1.28; stroke-dashoffset: 0; stroke: #b0b0b0; stroke-width: 0.8"/>
     </g>
     <g id="line2d_38">
      <g>
       <use xlink:href="#m09d6e09195" x="297.0189" y="305.5088" style="stroke: #000000; stroke-width: 0.8"/>
      </g>
     </g>
    </g>
    <g id="xtick_12">
     <g id="line2d_39">
      <path d="M 376.185867 305.5088 
L 376.185867 168.4144 
" clip-path="url(#p40ff65883f)" style="fill: none; stroke-dasharray: 2.96,1.28; stroke-dashoffset: 0; stroke: #b0b0b0; stroke-width: 0.8"/>
     </g>
     <g id="line2d_40">
      <g>
       <use xlink:href="#m09d6e09195" x="376.185867" y="305.5088" style="stroke: #000000; stroke-width: 0.8"/>
      </g>
     </g>
    </g>
    <g id="xtick_13">
     <g id="line2d_41">
      <path d="M 455.352833 305.5088 
L 455.352833 168.4144 
" clip-path="url(#p40ff65883f)" style="fill: none; stroke-dasharray: 2.96,1.28; stroke-dashoffset: 0; stroke: #b0b0b0; stroke-width: 0.8"/>
     </g>
     <g id="line2d_42">
      <g>
       <use xlink:href="#m09d6e09195" x="455.352833" y="305.5088" style="stroke: #000000; stroke-width: 0.8"/>
      </g>
     </g>
    </g>
    <g id="xtick_14">
     <g id="line2d_43">
      <path d="M 534.5198 305.5088 
L 534.5198 168.4144 
" clip-path="url(#p40ff65883f)" style="fill: none; stroke-dasharray: 2.96,1.28; stroke-dashoffset: 0; stroke: #b0b0b0; stroke-width: 0.8"/>
     </g>
     <g id="line2d_44">
      <g>
       <use xlink:href="#m09d6e09195" x="534.5198" y="305.5088" style="stroke: #000000; stroke-width: 0.8"/>
      </g>
     </g>
    </g>
   </g>
   <g id="matplotlib.axis_4">
    <g id="ytick_6">
     <g id="line2d_45">
      <path d="M 59.518 299.277236 
L 534.5198 299.277236 
" clip-path="url(#p40ff65883f)" style="fill: none; stroke-dasharray: 2.96,1.28; stroke-dashoffset: 0; stroke: #b0b0b0; stroke-width: 0.8"/>
     </g>
     <g id="line2d_46">
      <g>
       <use xlink:href="#m74ec3085d3" x="59.518" y="299.277236" style="stroke: #000000; stroke-width: 0.8"/>
      </g>
     </g>
     <g id="text_10">
      <!-- 0 -->
      <g transform="translate(46.1555 303.076455) scale(0.1 -0.1)">
       <use xlink:href="#DejaVuSans-30"/>
      </g>
     </g>
    </g>
    <g id="ytick_7">
     <g id="line2d_47">
      <path d="M 59.518 275.309684 
L 534.5198 275.309684 
" clip-path="url(#p40ff65883f)" style="fill: none; stroke-dasharray: 2.96,1.28; stroke-dashoffset: 0; stroke: #b0b0b0; stroke-width: 0.8"/>
     </g>
     <g id="line2d_48">
      <g>
       <use xlink:href="#m74ec3085d3" x="59.518" y="275.309684" style="stroke: #000000; stroke-width: 0.8"/>
      </g>
     </g>
     <g id="text_11">
      <!-- 250 -->
      <g transform="translate(33.4305 279.108903) scale(0.1 -0.1)">
       <defs>
        <path id="DejaVuSans-35" d="M 691 4666 
L 3169 4666 
L 3169 4134 
L 1269 4134 
L 1269 2991 
Q 1406 3038 1543 3061 
Q 1681 3084 1819 3084 
Q 2600 3084 3056 2656 
Q 3513 2228 3513 1497 
Q 3513 744 3044 326 
Q 2575 -91 1722 -91 
Q 1428 -91 1123 -41 
Q 819 9 494 109 
L 494 744 
Q 775 591 1075 516 
Q 1375 441 1709 441 
Q 2250 441 2565 725 
Q 2881 1009 2881 1497 
Q 2881 1984 2565 2268 
Q 2250 2553 1709 2553 
Q 1456 2553 1204 2497 
Q 953 2441 691 2322 
L 691 4666 
z
" transform="scale(0.015625)"/>
       </defs>
       <use xlink:href="#DejaVuSans-32"/>
       <use xlink:href="#DejaVuSans-35" x="63.623047"/>
       <use xlink:href="#DejaVuSans-30" x="127.246094"/>
      </g>
     </g>
    </g>
    <g id="ytick_8">
     <g id="line2d_49">
      <path d="M 59.518 251.342131 
L 534.5198 251.342131 
" clip-path="url(#p40ff65883f)" style="fill: none; stroke-dasharray: 2.96,1.28; stroke-dashoffset: 0; stroke: #b0b0b0; stroke-width: 0.8"/>
     </g>
     <g id="line2d_50">
      <g>
       <use xlink:href="#m74ec3085d3" x="59.518" y="251.342131" style="stroke: #000000; stroke-width: 0.8"/>
      </g>
     </g>
     <g id="text_12">
      <!-- 500 -->
      <g transform="translate(33.4305 255.14135) scale(0.1 -0.1)">
       <use xlink:href="#DejaVuSans-35"/>
       <use xlink:href="#DejaVuSans-30" x="63.623047"/>
       <use xlink:href="#DejaVuSans-30" x="127.246094"/>
      </g>
     </g>
    </g>
    <g id="ytick_9">
     <g id="line2d_51">
      <path d="M 59.518 227.374579 
L 534.5198 227.374579 
" clip-path="url(#p40ff65883f)" style="fill: none; stroke-dasharray: 2.96,1.28; stroke-dashoffset: 0; stroke: #b0b0b0; stroke-width: 0.8"/>
     </g>
     <g id="line2d_52">
      <g>
       <use xlink:href="#m74ec3085d3" x="59.518" y="227.374579" style="stroke: #000000; stroke-width: 0.8"/>
      </g>
     </g>
     <g id="text_13">
      <!-- 750 -->
      <g transform="translate(33.4305 231.173798) scale(0.1 -0.1)">
       <defs>
        <path id="DejaVuSans-37" d="M 525 4666 
L 3525 4666 
L 3525 4397 
L 1831 0 
L 1172 0 
L 2766 4134 
L 525 4134 
L 525 4666 
z
" transform="scale(0.015625)"/>
       </defs>
       <use xlink:href="#DejaVuSans-37"/>
       <use xlink:href="#DejaVuSans-35" x="63.623047"/>
       <use xlink:href="#DejaVuSans-30" x="127.246094"/>
      </g>
     </g>
    </g>
    <g id="ytick_10">
     <g id="line2d_53">
      <path d="M 59.518 203.407027 
L 534.5198 203.407027 
" clip-path="url(#p40ff65883f)" style="fill: none; stroke-dasharray: 2.96,1.28; stroke-dashoffset: 0; stroke: #b0b0b0; stroke-width: 0.8"/>
     </g>
     <g id="line2d_54">
      <g>
       <use xlink:href="#m74ec3085d3" x="59.518" y="203.407027" style="stroke: #000000; stroke-width: 0.8"/>
      </g>
     </g>
     <g id="text_14">
      <!-- 1000 -->
      <g transform="translate(27.068 207.206245) scale(0.1 -0.1)">
       <defs>
        <path id="DejaVuSans-31" d="M 794 531 
L 1825 531 
L 1825 4091 
L 703 3866 
L 703 4441 
L 1819 4666 
L 2450 4666 
L 2450 531 
L 3481 531 
L 3481 0 
L 794 0 
L 794 531 
z
" transform="scale(0.015625)"/>
       </defs>
       <use xlink:href="#DejaVuSans-31"/>
       <use xlink:href="#DejaVuSans-30" x="63.623047"/>
       <use xlink:href="#DejaVuSans-30" x="127.246094"/>
       <use xlink:href="#DejaVuSans-30" x="190.869141"/>
      </g>
     </g>
    </g>
    <g id="ytick_11">
     <g id="line2d_55">
      <path d="M 59.518 179.439474 
L 534.5198 179.439474 
" clip-path="url(#p40ff65883f)" style="fill: none; stroke-dasharray: 2.96,1.28; stroke-dashoffset: 0; stroke: #b0b0b0; stroke-width: 0.8"/>
     </g>
     <g id="line2d_56">
      <g>
       <use xlink:href="#m74ec3085d3" x="59.518" y="179.439474" style="stroke: #000000; stroke-width: 0.8"/>
      </g>
     </g>
     <g id="text_15">
      <!-- 1250 -->
      <g transform="translate(27.068 183.238693) scale(0.1 -0.1)">
       <use xlink:href="#DejaVuSans-31"/>
       <use xlink:href="#DejaVuSans-32" x="63.623047"/>
       <use xlink:href="#DejaVuSans-35" x="127.246094"/>
       <use xlink:href="#DejaVuSans-30" x="190.869141"/>
      </g>
     </g>
    </g>
    <g id="text_16">
     <!-- $\dot V \; [m^3/d]$ -->
     <g transform="translate(20.988312 257.9616) rotate(-90) scale(0.1 -0.1)">
      <use xlink:href="#DejaVuSans-307" transform="translate(66.195312 30.015625)"/>
      <use xlink:href="#DejaVuSans-Oblique-56" transform="translate(0 0.609375)"/>
      <use xlink:href="#DejaVuSans-5b" transform="translate(95.467339 0.609375)"/>
      <use xlink:href="#DejaVuSans-Oblique-6d" transform="translate(134.481011 0.609375)"/>
      <use xlink:href="#DejaVuSans-33" transform="translate(236.543016 38.890625) scale(0.7)"/>
      <use xlink:href="#DejaVuSans-2f" transform="translate(283.813524 0.609375)"/>
      <use xlink:href="#DejaVuSans-Oblique-64" transform="translate(317.50493 0.609375)"/>
      <use xlink:href="#DejaVuSans-5d" transform="translate(380.981493 0.609375)"/>
     </g>
    </g>
   </g>
   <g id="line2d_57">
    <path d="M 59.518 265.722663 
L 106.688318 265.722663 
L 107.01818 246.548621 
L 154.51836 246.548621 
L 154.848222 256.135642 
L 202.01854 256.135642 
L 202.348402 265.722663 
L 502.523151 265.722663 
L 502.523151 265.722663 
" clip-path="url(#p40ff65883f)" style="fill: none; stroke-dasharray: 6.4,1.6,1,1.6; stroke-dashoffset: 0; stroke: #696969"/>
   </g>
   <g id="line2d_58">
    <path d="M 59.518 265.722663 
L 59.518 265.722663 
L 59.518 265.722663 
L 59.518 265.722663 
L 59.518 265.722663 
L 59.518 265.722663 
L 59.518 265.722663 
L 59.518 265.722663 
L 59.518 265.722663 
L 59.518 265.722663 
L 59.518 265.722663 
L 59.518 265.722663 
L 59.518 265.722663 
L 59.518 265.722663 
L 59.518 265.722663 
L 59.518 265.722663 
" clip-path="url(#p40ff65883f)" style="fill: none; stroke-dasharray: 3.7,1.6; stroke-dashoffset: 0; stroke: #696969"/>
   </g>
   <g id="line2d_59">
    <path d="M 59.518 272.998521 
L 60.177725 268.415122 
L 60.507587 267.362767 
L 60.837449 266.758215 
L 61.497174 266.165723 
L 62.156899 265.927238 
L 63.476348 265.781417 
L 67.434697 265.743649 
L 107.01818 265.738739 
L 107.677905 257.498361 
L 108.337629 253.007956 
L 108.997354 250.563221 
L 109.657079 249.150191 
L 110.316804 248.322678 
L 110.976528 247.838823 
L 111.966115 247.465577 
L 113.285565 247.272558 
L 115.924464 247.185886 
L 134.066894 247.1141 
L 154.848222 247.076736 
L 157.157259 254.638121 
L 157.816984 255.513248 
L 158.476708 255.894097 
L 159.466295 256.131774 
L 161.115607 256.244265 
L 167.05313 256.277683 
L 202.348402 256.295159 
L 203.667852 260.015206 
L 204.987301 262.794587 
L 206.306751 265.042868 
L 206.966475 265.465958 
L 207.956062 265.647415 
L 210.265099 265.721888 
L 231.37629 265.736423 
L 502.523151 265.744986 
L 502.523151 265.744986 
" clip-path="url(#p40ff65883f)" style="fill: none; stroke: #0000ff; stroke-linecap: square"/>
   </g>
   <g id="line2d_60">
    <path d="M 59.518 232.865035 
L 59.847862 228.338111 
L 60.177725 225.879932 
L 60.507587 224.434599 
L 61.167312 222.937206 
L 61.827037 222.254934 
L 62.486761 221.908402 
L 63.476348 221.65396 
L 65.12566 221.489247 
L 68.754146 221.409245 
L 87.226438 221.434284 
L 106.688318 221.454234 
L 107.348042 201.925282 
L 108.007767 191.336805 
L 108.667492 185.529932 
L 109.327217 182.182789 
L 109.986941 180.255369 
L 110.646666 179.163822 
L 111.306391 178.559833 
L 111.966115 178.23496 
L 112.955703 178.01703 
L 114.605014 177.929901 
L 123.181436 177.968297 
L 154.51836 178.092894 
L 156.497534 193.954051 
L 157.157259 196.945075 
L 157.816984 198.250401 
L 158.476708 198.881683 
L 159.136433 199.219986 
L 160.12602 199.47073 
L 161.775332 199.617394 
L 166.063543 199.668557 
L 202.01854 199.660827 
L 203.008127 206.399585 
L 204.327577 213.175364 
L 205.647026 218.842576 
L 205.976888 219.974645 
L 206.306751 220.629482 
L 206.966475 221.243787 
L 207.956062 221.629452 
L 209.275512 221.829985 
L 211.914411 221.930903 
L 220.490832 221.899364 
L 261.063903 221.741765 
L 347.817704 221.68163 
L 502.523151 221.700527 
L 502.523151 221.700527 
" clip-path="url(#p40ff65883f)" style="fill: none; stroke: #000000; stroke-linecap: square"/>
   </g>
   <g id="LineCollection_1">
    <path d="M 59.518 299.277236 
L 502.853013 299.277236 
" clip-path="url(#p40ff65883f)" style="fill: none; stroke: #ffffff; stroke-width: 0.1"/>
   </g>
   <g id="LineCollection_2">
    <path d="M 59.518 174.645964 
L 502.853013 174.645964 
" clip-path="url(#p40ff65883f)" style="fill: none; stroke: #ffffff; stroke-width: 0.1"/>
   </g>
   <g id="line2d_61">
    <path d="M 59.518 239.017497 
L 60.178216 229.377377 
L 60.508324 227.478023 
L 60.838432 226.502621 
L 61.16854 225.983071 
L 61.828756 225.561242 
L 62.488972 225.479933 
L 63.809404 225.62455 
L 72.392211 227.038065 
L 77.673939 227.541926 
L 85.59653 228.043965 
L 98.140633 228.59105 
L 107.053549 228.894109 
L 107.713765 210.827316 
L 108.373981 201.866388 
L 109.034197 197.182442 
L 109.694413 194.542654 
L 110.354628 193.042274 
L 111.014844 192.202072 
L 111.67506 191.743728 
L 112.665384 191.432025 
L 113.985816 191.31751 
L 117.286896 191.356495 
L 145.346074 191.920321 
L 154.919205 192.067152 
L 156.569745 204.138031 
L 157.229961 207.665404 
L 157.560069 208.669246 
L 158.220285 209.730322 
L 158.880501 210.233879 
L 159.870825 210.599629 
L 161.191257 210.803361 
L 163.832121 210.93204 
L 174.065468 211.059987 
L 202.454754 211.29018 
L 203.445078 217.285185 
L 204.76551 223.196633 
L 206.085942 228.102315 
L 206.41605 229.079485 
L 206.746158 229.633952 
L 207.406374 230.126917 
L 208.396698 230.428365 
L 210.047238 230.628964 
L 213.348317 230.739151 
L 225.232205 230.776089 
L 502.853013 231.085618 
L 502.853013 231.085618 
" clip-path="url(#p40ff65883f)" style="fill: none; stroke-dasharray: 1.5,2.475; stroke-dashoffset: 0; stroke: #000000; stroke-width: 1.5"/>
   </g>
   <g id="line2d_62">
    <path d="M 59.518 272.998521 
L 60.178216 268.8468 
L 60.508324 268.020328 
L 60.838432 267.604536 
L 61.498648 267.292877 
L 62.488972 267.259573 
L 76.353507 268.208853 
L 88.237394 268.502679 
L 107.053549 268.788072 
L 107.713765 261.086135 
L 108.373981 257.224418 
L 109.034197 255.231502 
L 109.694413 254.125631 
L 110.354628 253.504234 
L 111.014844 253.158086 
L 112.005168 252.910343 
L 113.655708 252.790835 
L 119.267544 252.784651 
L 154.919205 252.903027 
L 156.899853 258.926946 
L 157.560069 260.0449 
L 158.220285 260.507471 
L 159.210609 260.771021 
L 160.861149 260.894454 
L 166.803093 260.956134 
L 202.454754 261.107915 
L 203.775186 264.410356 
L 205.095618 266.833881 
L 206.41605 268.78551 
L 207.076266 269.13993 
L 208.06659 269.276977 
L 211.037562 269.339322 
L 257.252678 269.477026 
L 375.431334 269.589195 
L 502.853013 269.634007 
L 502.853013 269.634007 
" clip-path="url(#p40ff65883f)" style="fill: none; stroke-dasharray: 1.5,2.475; stroke-dashoffset: 0; stroke: #0000ff; stroke-width: 1.5"/>
   </g>
   <g id="patch_9">
    <path d="M 59.518 305.5088 
L 59.518 168.4144 
" style="fill: none; stroke: #000000; stroke-width: 0.8; stroke-linejoin: miter; stroke-linecap: square"/>
   </g>
   <g id="patch_10">
    <path d="M 534.5198 305.5088 
L 534.5198 168.4144 
" style="fill: none; stroke: #000000; stroke-width: 0.8; stroke-linejoin: miter; stroke-linecap: square"/>
   </g>
   <g id="patch_11">
    <path d="M 59.518 305.5088 
L 534.5198 305.5088 
" style="fill: none; stroke: #000000; stroke-width: 0.8; stroke-linejoin: miter; stroke-linecap: square"/>
   </g>
   <g id="patch_12">
    <path d="M 59.518 168.4144 
L 534.5198 168.4144 
" style="fill: none; stroke: #000000; stroke-width: 0.8; stroke-linejoin: miter; stroke-linecap: square"/>
   </g>
   <g id="legend_2">
    <g id="patch_13">
     <path d="M 412.8198 291.61632 
L 527.5198 291.61632 
Q 529.5198 291.61632 529.5198 289.61632 
L 529.5198 198.01632 
Q 529.5198 196.01632 527.5198 196.01632 
L 412.8198 196.01632 
Q 410.8198 196.01632 410.8198 198.01632 
L 410.8198 289.61632 
Q 410.8198 291.61632 412.8198 291.61632 
z
" style="fill: #ffffff; opacity: 0.8; stroke: #cccccc; stroke-linejoin: miter"/>
    </g>
    <g id="line2d_63">
     <path d="M 414.8198 207.11632 
L 424.8198 207.11632 
L 434.8198 207.11632 
" style="fill: none; stroke-dasharray: 6.4,1.6,1,1.6; stroke-dashoffset: 0; stroke: #696969"/>
    </g>
    <g id="text_17">
     <!-- Reference ($\dot V_{CH_4}$) -->
     <g transform="translate(442.8198 210.61632) scale(0.1 -0.1)">
      <defs>
       <path id="DejaVuSans-52" d="M 2841 2188 
Q 3044 2119 3236 1894 
Q 3428 1669 3622 1275 
L 4263 0 
L 3584 0 
L 2988 1197 
Q 2756 1666 2539 1819 
Q 2322 1972 1947 1972 
L 1259 1972 
L 1259 0 
L 628 0 
L 628 4666 
L 2053 4666 
Q 2853 4666 3247 4331 
Q 3641 3997 3641 3322 
Q 3641 2881 3436 2590 
Q 3231 2300 2841 2188 
z
M 1259 4147 
L 1259 2491 
L 2053 2491 
Q 2509 2491 2742 2702 
Q 2975 2913 2975 3322 
Q 2975 3731 2742 3939 
Q 2509 4147 2053 4147 
L 1259 4147 
z
" transform="scale(0.015625)"/>
       <path id="DejaVuSans-66" d="M 2375 4863 
L 2375 4384 
L 1825 4384 
Q 1516 4384 1395 4259 
Q 1275 4134 1275 3809 
L 1275 3500 
L 2222 3500 
L 2222 3053 
L 1275 3053 
L 1275 0 
L 697 0 
L 697 3053 
L 147 3053 
L 147 3500 
L 697 3500 
L 697 3744 
Q 697 4328 969 4595 
Q 1241 4863 1831 4863 
L 2375 4863 
z
" transform="scale(0.015625)"/>
       <path id="DejaVuSans-6e" d="M 3513 2113 
L 3513 0 
L 2938 0 
L 2938 2094 
Q 2938 2591 2744 2837 
Q 2550 3084 2163 3084 
Q 1697 3084 1428 2787 
Q 1159 2491 1159 1978 
L 1159 0 
L 581 0 
L 581 3500 
L 1159 3500 
L 1159 2956 
Q 1366 3272 1645 3428 
Q 1925 3584 2291 3584 
Q 2894 3584 3203 3211 
Q 3513 2838 3513 2113 
z
" transform="scale(0.015625)"/>
       <path id="DejaVuSans-63" d="M 3122 3366 
L 3122 2828 
Q 2878 2963 2633 3030 
Q 2388 3097 2138 3097 
Q 1578 3097 1268 2742 
Q 959 2388 959 1747 
Q 959 1106 1268 751 
Q 1578 397 2138 397 
Q 2388 397 2633 464 
Q 2878 531 3122 666 
L 3122 134 
Q 2881 22 2623 -34 
Q 2366 -91 2075 -91 
Q 1284 -91 818 406 
Q 353 903 353 1747 
Q 353 2603 823 3093 
Q 1294 3584 2113 3584 
Q 2378 3584 2631 3529 
Q 2884 3475 3122 3366 
z
" transform="scale(0.015625)"/>
       <path id="DejaVuSans-28" d="M 1984 4856 
Q 1566 4138 1362 3434 
Q 1159 2731 1159 2009 
Q 1159 1288 1364 580 
Q 1569 -128 1984 -844 
L 1484 -844 
Q 1016 -109 783 600 
Q 550 1309 550 2009 
Q 550 2706 781 3412 
Q 1013 4119 1484 4856 
L 1984 4856 
z
" transform="scale(0.015625)"/>
       <path id="DejaVuSans-Oblique-43" d="M 4447 4306 
L 4319 3641 
Q 4019 3944 3683 4091 
Q 3347 4238 2956 4238 
Q 2422 4238 2017 3981 
Q 1613 3725 1319 3200 
Q 1131 2863 1032 2486 
Q 934 2109 934 1728 
Q 934 1091 1264 756 
Q 1594 422 2222 422 
Q 2656 422 3056 561 
Q 3456 700 3834 978 
L 3688 231 
Q 3316 72 2936 -9 
Q 2556 -91 2175 -91 
Q 1278 -91 773 396 
Q 269 884 269 1753 
Q 269 2309 461 2846 
Q 653 3384 1013 3828 
Q 1394 4300 1883 4525 
Q 2372 4750 3022 4750 
Q 3422 4750 3780 4639 
Q 4138 4528 4447 4306 
z
" transform="scale(0.015625)"/>
       <path id="DejaVuSans-Oblique-48" d="M 1081 4666 
L 1716 4666 
L 1344 2753 
L 3634 2753 
L 4006 4666 
L 4641 4666 
L 3731 0 
L 3097 0 
L 3531 2222 
L 1241 2222 
L 806 0 
L 172 0 
L 1081 4666 
z
" transform="scale(0.015625)"/>
       <path id="DejaVuSans-29" d="M 513 4856 
L 1013 4856 
Q 1481 4119 1714 3412 
Q 1947 2706 1947 2009 
Q 1947 1309 1714 600 
Q 1481 -109 1013 -844 
L 513 -844 
Q 928 -128 1133 580 
Q 1338 1288 1338 2009 
Q 1338 2731 1133 3434 
Q 928 4138 513 4856 
z
" transform="scale(0.015625)"/>
      </defs>
      <use xlink:href="#DejaVuSans-52" transform="translate(0 0.609375)"/>
      <use xlink:href="#DejaVuSans-65" transform="translate(69.482422 0.609375)"/>
      <use xlink:href="#DejaVuSans-66" transform="translate(131.005859 0.609375)"/>
      <use xlink:href="#DejaVuSans-65" transform="translate(166.210938 0.609375)"/>
      <use xlink:href="#DejaVuSans-72" transform="translate(227.734375 0.609375)"/>
      <use xlink:href="#DejaVuSans-65" transform="translate(268.847656 0.609375)"/>
      <use xlink:href="#DejaVuSans-6e" transform="translate(330.371094 0.609375)"/>
      <use xlink:href="#DejaVuSans-63" transform="translate(393.75 0.609375)"/>
      <use xlink:href="#DejaVuSans-65" transform="translate(448.730469 0.609375)"/>
      <use xlink:href="#DejaVuSans-20" transform="translate(510.253906 0.609375)"/>
      <use xlink:href="#DejaVuSans-28" transform="translate(542.041016 0.609375)"/>
      <use xlink:href="#DejaVuSans-307" transform="translate(647.25 30.015625)"/>
      <use xlink:href="#DejaVuSans-Oblique-56" transform="translate(581.054688 0.609375)"/>
      <use xlink:href="#DejaVuSans-Oblique-43" transform="translate(650.419922 -15.796875) scale(0.7)"/>
      <use xlink:href="#DejaVuSans-Oblique-48" transform="translate(699.296875 -15.796875) scale(0.7)"/>
      <use xlink:href="#DejaVuSans-34" transform="translate(751.933594 -27.28125) scale(0.49)"/>
      <use xlink:href="#DejaVuSans-29" transform="translate(787.757324 0.609375)"/>
     </g>
    </g>
    <g id="line2d_64">
     <path d="M 414.8198 225.51632 
L 424.8198 225.51632 
L 434.8198 225.51632 
" style="fill: none; stroke: #0000ff; stroke-linecap: square"/>
    </g>
    <g id="text_18">
     <!-- $\dot V_{CH_4, nom+\sigma}$ -->
     <g transform="translate(442.8198 229.01632) scale(0.1 -0.1)">
      <defs>
       <path id="DejaVuSans-Oblique-6e" d="M 3566 2113 
L 3156 0 
L 2578 0 
L 2988 2091 
Q 3016 2238 3031 2350 
Q 3047 2463 3047 2528 
Q 3047 2791 2881 2937 
Q 2716 3084 2419 3084 
Q 1956 3084 1622 2776 
Q 1288 2469 1184 1941 
L 800 0 
L 225 0 
L 903 3500 
L 1478 3500 
L 1363 2950 
Q 1603 3253 1940 3418 
Q 2278 3584 2650 3584 
Q 3113 3584 3367 3334 
Q 3622 3084 3622 2631 
Q 3622 2519 3608 2391 
Q 3594 2263 3566 2113 
z
" transform="scale(0.015625)"/>
       <path id="DejaVuSans-Oblique-6f" d="M 1625 -91 
Q 1009 -91 651 289 
Q 294 669 294 1325 
Q 294 1706 417 2101 
Q 541 2497 738 2766 
Q 1047 3184 1428 3384 
Q 1809 3584 2291 3584 
Q 2888 3584 3255 3212 
Q 3622 2841 3622 2241 
Q 3622 1825 3500 1412 
Q 3378 1000 3181 728 
Q 2875 309 2494 109 
Q 2113 -91 1625 -91 
z
M 891 1344 
Q 891 869 1089 633 
Q 1288 397 1691 397 
Q 2269 397 2648 901 
Q 3028 1406 3028 2181 
Q 3028 2634 2825 2865 
Q 2622 3097 2228 3097 
Q 1903 3097 1650 2945 
Q 1397 2794 1197 2484 
Q 1050 2253 970 1956 
Q 891 1659 891 1344 
z
" transform="scale(0.015625)"/>
       <path id="DejaVuSans-2b" d="M 2944 4013 
L 2944 2272 
L 4684 2272 
L 4684 1741 
L 2944 1741 
L 2944 0 
L 2419 0 
L 2419 1741 
L 678 1741 
L 678 2272 
L 2419 2272 
L 2419 4013 
L 2944 4013 
z
" transform="scale(0.015625)"/>
       <path id="DejaVuSans-Oblique-3c3" d="M 2219 3044 
Q 1744 3044 1422 2700 
Q 1081 2341 969 1747 
Q 844 1119 1044 756 
Q 1241 397 1706 397 
Q 2166 397 2503 759 
Q 2844 1122 2966 1747 
Q 3075 2319 2881 2700 
Q 2700 3044 2219 3044 
z
M 2309 3503 
L 4219 3500 
L 4106 2925 
L 3463 2925 
Q 3706 2438 3575 1747 
Q 3406 888 2884 400 
Q 2359 -91 1609 -91 
Q 856 -91 525 400 
Q 194 888 363 1747 
Q 528 2609 1050 3097 
Q 1484 3503 2309 3503 
z
" transform="scale(0.015625)"/>
      </defs>
      <use xlink:href="#DejaVuSans-307" transform="translate(66.195312 30.015625)"/>
      <use xlink:href="#DejaVuSans-Oblique-56" transform="translate(0 0.609375)"/>
      <use xlink:href="#DejaVuSans-Oblique-43" transform="translate(69.365234 -15.796875) scale(0.7)"/>
      <use xlink:href="#DejaVuSans-Oblique-48" transform="translate(118.242188 -15.796875) scale(0.7)"/>
      <use xlink:href="#DejaVuSans-34" transform="translate(170.878906 -27.28125) scale(0.49)"/>
      <use xlink:href="#DejaVuSans-2c" transform="translate(203.968262 -15.796875) scale(0.7)"/>
      <use xlink:href="#DejaVuSans-Oblique-6e" transform="translate(239.856934 -15.796875) scale(0.7)"/>
      <use xlink:href="#DejaVuSans-Oblique-6f" transform="translate(284.222168 -15.796875) scale(0.7)"/>
      <use xlink:href="#DejaVuSans-Oblique-6d" transform="translate(327.049316 -15.796875) scale(0.7)"/>
      <use xlink:href="#DejaVuSans-2b" transform="translate(408.875488 -15.796875) scale(0.7)"/>
      <use xlink:href="#DejaVuSans-Oblique-3c3" transform="translate(481.165527 -15.796875) scale(0.7)"/>
     </g>
    </g>
    <g id="line2d_65">
     <path d="M 414.8198 243.91632 
L 424.8198 243.91632 
L 434.8198 243.91632 
" style="fill: none; stroke: #000000; stroke-linecap: square"/>
    </g>
    <g id="text_19">
     <!-- $\dot V_{g, nom+\sigma}$ -->
     <g transform="translate(442.8198 247.41632) scale(0.1 -0.1)">
      <use xlink:href="#DejaVuSans-307" transform="translate(66.195312 30.015625)"/>
      <use xlink:href="#DejaVuSans-Oblique-56" transform="translate(0 0.609375)"/>
      <use xlink:href="#DejaVuSans-Oblique-67" transform="translate(69.365234 -15.796875) scale(0.7)"/>
      <use xlink:href="#DejaVuSans-2c" transform="translate(113.798828 -15.796875) scale(0.7)"/>
      <use xlink:href="#DejaVuSans-Oblique-6e" transform="translate(149.6875 -15.796875) scale(0.7)"/>
      <use xlink:href="#DejaVuSans-Oblique-6f" transform="translate(194.052734 -15.796875) scale(0.7)"/>
      <use xlink:href="#DejaVuSans-Oblique-6d" transform="translate(236.879883 -15.796875) scale(0.7)"/>
      <use xlink:href="#DejaVuSans-2b" transform="translate(318.706055 -15.796875) scale(0.7)"/>
      <use xlink:href="#DejaVuSans-Oblique-3c3" transform="translate(390.996094 -15.796875) scale(0.7)"/>
     </g>
    </g>
    <g id="line2d_66">
     <path d="M 414.8198 262.61632 
L 424.8198 262.61632 
L 434.8198 262.61632 
" style="fill: none; stroke-dasharray: 1.5,2.475; stroke-dashoffset: 0; stroke: #000000; stroke-width: 1.5"/>
    </g>
    <g id="text_20">
     <!-- $\dot V_{g, nom}$ -->
     <g transform="translate(442.8198 266.11632) scale(0.1 -0.1)">
      <use xlink:href="#DejaVuSans-307" transform="translate(66.195312 30.015625)"/>
      <use xlink:href="#DejaVuSans-Oblique-56" transform="translate(0 0.609375)"/>
      <use xlink:href="#DejaVuSans-Oblique-67" transform="translate(69.365234 -15.796875) scale(0.7)"/>
      <use xlink:href="#DejaVuSans-2c" transform="translate(113.798828 -15.796875) scale(0.7)"/>
      <use xlink:href="#DejaVuSans-Oblique-6e" transform="translate(149.6875 -15.796875) scale(0.7)"/>
      <use xlink:href="#DejaVuSans-Oblique-6f" transform="translate(194.052734 -15.796875) scale(0.7)"/>
      <use xlink:href="#DejaVuSans-Oblique-6d" transform="translate(236.879883 -15.796875) scale(0.7)"/>
     </g>
    </g>
    <g id="line2d_67">
     <path d="M 414.8198 281.31632 
L 424.8198 281.31632 
L 434.8198 281.31632 
" style="fill: none; stroke-dasharray: 1.5,2.475; stroke-dashoffset: 0; stroke: #0000ff; stroke-width: 1.5"/>
    </g>
    <g id="text_21">
     <!-- $\dot V_{CH_4, nom}$ -->
     <g transform="translate(442.8198 284.81632) scale(0.1 -0.1)">
      <use xlink:href="#DejaVuSans-307" transform="translate(66.195312 30.015625)"/>
      <use xlink:href="#DejaVuSans-Oblique-56" transform="translate(0 0.609375)"/>
      <use xlink:href="#DejaVuSans-Oblique-43" transform="translate(69.365234 -15.796875) scale(0.7)"/>
      <use xlink:href="#DejaVuSans-Oblique-48" transform="translate(118.242188 -15.796875) scale(0.7)"/>
      <use xlink:href="#DejaVuSans-34" transform="translate(170.878906 -27.28125) scale(0.49)"/>
      <use xlink:href="#DejaVuSans-2c" transform="translate(203.968262 -15.796875) scale(0.7)"/>
      <use xlink:href="#DejaVuSans-Oblique-6e" transform="translate(239.856934 -15.796875) scale(0.7)"/>
      <use xlink:href="#DejaVuSans-Oblique-6f" transform="translate(284.222168 -15.796875) scale(0.7)"/>
      <use xlink:href="#DejaVuSans-Oblique-6d" transform="translate(327.049316 -15.796875) scale(0.7)"/>
     </g>
    </g>
   </g>
  </g>
  <g id="axes_3">
   <g id="patch_14">
    <path d="M 59.518 390.76 
L 534.5198 390.76 
L 534.5198 322.2128 
L 59.518 322.2128 
z
" style="fill: #ffffff"/>
   </g>
   <g id="matplotlib.axis_5">
    <g id="xtick_15">
     <g id="line2d_68">
      <path d="M 59.518 390.76 
L 59.518 322.2128 
" clip-path="url(#p62f4e2a981)" style="fill: none; stroke-dasharray: 2.96,1.28; stroke-dashoffset: 0; stroke: #b0b0b0; stroke-width: 0.8"/>
     </g>
     <g id="line2d_69">
      <g>
       <use xlink:href="#m09d6e09195" x="59.518" y="390.76" style="stroke: #000000; stroke-width: 0.8"/>
      </g>
     </g>
     <g id="text_22">
      <!-- 0 -->
      <g transform="translate(56.33675 405.358437) scale(0.1 -0.1)">
       <use xlink:href="#DejaVuSans-30"/>
      </g>
     </g>
    </g>
    <g id="xtick_16">
     <g id="line2d_70">
      <path d="M 138.684967 390.76 
L 138.684967 322.2128 
" clip-path="url(#p62f4e2a981)" style="fill: none; stroke-dasharray: 2.96,1.28; stroke-dashoffset: 0; stroke: #b0b0b0; stroke-width: 0.8"/>
     </g>
     <g id="line2d_71">
      <g>
       <use xlink:href="#m09d6e09195" x="138.684967" y="390.76" style="stroke: #000000; stroke-width: 0.8"/>
      </g>
     </g>
     <g id="text_23">
      <!-- 5 -->
      <g transform="translate(135.503717 405.358437) scale(0.1 -0.1)">
       <use xlink:href="#DejaVuSans-35"/>
      </g>
     </g>
    </g>
    <g id="xtick_17">
     <g id="line2d_72">
      <path d="M 217.851933 390.76 
L 217.851933 322.2128 
" clip-path="url(#p62f4e2a981)" style="fill: none; stroke-dasharray: 2.96,1.28; stroke-dashoffset: 0; stroke: #b0b0b0; stroke-width: 0.8"/>
     </g>
     <g id="line2d_73">
      <g>
       <use xlink:href="#m09d6e09195" x="217.851933" y="390.76" style="stroke: #000000; stroke-width: 0.8"/>
      </g>
     </g>
     <g id="text_24">
      <!-- 10 -->
      <g transform="translate(211.489433 405.358437) scale(0.1 -0.1)">
       <use xlink:href="#DejaVuSans-31"/>
       <use xlink:href="#DejaVuSans-30" x="63.623047"/>
      </g>
     </g>
    </g>
    <g id="xtick_18">
     <g id="line2d_74">
      <path d="M 297.0189 390.76 
L 297.0189 322.2128 
" clip-path="url(#p62f4e2a981)" style="fill: none; stroke-dasharray: 2.96,1.28; stroke-dashoffset: 0; stroke: #b0b0b0; stroke-width: 0.8"/>
     </g>
     <g id="line2d_75">
      <g>
       <use xlink:href="#m09d6e09195" x="297.0189" y="390.76" style="stroke: #000000; stroke-width: 0.8"/>
      </g>
     </g>
     <g id="text_25">
      <!-- 15 -->
      <g transform="translate(290.6564 405.358437) scale(0.1 -0.1)">
       <use xlink:href="#DejaVuSans-31"/>
       <use xlink:href="#DejaVuSans-35" x="63.623047"/>
      </g>
     </g>
    </g>
    <g id="xtick_19">
     <g id="line2d_76">
      <path d="M 376.185867 390.76 
L 376.185867 322.2128 
" clip-path="url(#p62f4e2a981)" style="fill: none; stroke-dasharray: 2.96,1.28; stroke-dashoffset: 0; stroke: #b0b0b0; stroke-width: 0.8"/>
     </g>
     <g id="line2d_77">
      <g>
       <use xlink:href="#m09d6e09195" x="376.185867" y="390.76" style="stroke: #000000; stroke-width: 0.8"/>
      </g>
     </g>
     <g id="text_26">
      <!-- 20 -->
      <g transform="translate(369.823367 405.358437) scale(0.1 -0.1)">
       <use xlink:href="#DejaVuSans-32"/>
       <use xlink:href="#DejaVuSans-30" x="63.623047"/>
      </g>
     </g>
    </g>
    <g id="xtick_20">
     <g id="line2d_78">
      <path d="M 455.352833 390.76 
L 455.352833 322.2128 
" clip-path="url(#p62f4e2a981)" style="fill: none; stroke-dasharray: 2.96,1.28; stroke-dashoffset: 0; stroke: #b0b0b0; stroke-width: 0.8"/>
     </g>
     <g id="line2d_79">
      <g>
       <use xlink:href="#m09d6e09195" x="455.352833" y="390.76" style="stroke: #000000; stroke-width: 0.8"/>
      </g>
     </g>
     <g id="text_27">
      <!-- 25 -->
      <g transform="translate(448.990333 405.358437) scale(0.1 -0.1)">
       <use xlink:href="#DejaVuSans-32"/>
       <use xlink:href="#DejaVuSans-35" x="63.623047"/>
      </g>
     </g>
    </g>
    <g id="xtick_21">
     <g id="line2d_80">
      <path d="M 534.5198 390.76 
L 534.5198 322.2128 
" clip-path="url(#p62f4e2a981)" style="fill: none; stroke-dasharray: 2.96,1.28; stroke-dashoffset: 0; stroke: #b0b0b0; stroke-width: 0.8"/>
     </g>
     <g id="line2d_81">
      <g>
       <use xlink:href="#m09d6e09195" x="534.5198" y="390.76" style="stroke: #000000; stroke-width: 0.8"/>
      </g>
     </g>
     <g id="text_28">
      <!-- 30 -->
      <g transform="translate(528.1573 405.358437) scale(0.1 -0.1)">
       <use xlink:href="#DejaVuSans-33"/>
       <use xlink:href="#DejaVuSans-30" x="63.623047"/>
      </g>
     </g>
    </g>
    <g id="text_29">
     <!-- Time [d] -->
     <g transform="translate(276.120463 419.036563) scale(0.1 -0.1)">
      <defs>
       <path id="DejaVuSans-54" d="M -19 4666 
L 3928 4666 
L 3928 4134 
L 2272 4134 
L 2272 0 
L 1638 0 
L 1638 4134 
L -19 4134 
L -19 4666 
z
" transform="scale(0.015625)"/>
       <path id="DejaVuSans-6d" d="M 3328 2828 
Q 3544 3216 3844 3400 
Q 4144 3584 4550 3584 
Q 5097 3584 5394 3201 
Q 5691 2819 5691 2113 
L 5691 0 
L 5113 0 
L 5113 2094 
Q 5113 2597 4934 2840 
Q 4756 3084 4391 3084 
Q 3944 3084 3684 2787 
Q 3425 2491 3425 1978 
L 3425 0 
L 2847 0 
L 2847 2094 
Q 2847 2600 2669 2842 
Q 2491 3084 2119 3084 
Q 1678 3084 1418 2786 
Q 1159 2488 1159 1978 
L 1159 0 
L 581 0 
L 581 3500 
L 1159 3500 
L 1159 2956 
Q 1356 3278 1631 3431 
Q 1906 3584 2284 3584 
Q 2666 3584 2933 3390 
Q 3200 3197 3328 2828 
z
" transform="scale(0.015625)"/>
       <path id="DejaVuSans-64" d="M 2906 2969 
L 2906 4863 
L 3481 4863 
L 3481 0 
L 2906 0 
L 2906 525 
Q 2725 213 2448 61 
Q 2172 -91 1784 -91 
Q 1150 -91 751 415 
Q 353 922 353 1747 
Q 353 2572 751 3078 
Q 1150 3584 1784 3584 
Q 2172 3584 2448 3432 
Q 2725 3281 2906 2969 
z
M 947 1747 
Q 947 1113 1208 752 
Q 1469 391 1925 391 
Q 2381 391 2643 752 
Q 2906 1113 2906 1747 
Q 2906 2381 2643 2742 
Q 2381 3103 1925 3103 
Q 1469 3103 1208 2742 
Q 947 2381 947 1747 
z
" transform="scale(0.015625)"/>
      </defs>
      <use xlink:href="#DejaVuSans-54"/>
      <use xlink:href="#DejaVuSans-69" x="57.958984"/>
      <use xlink:href="#DejaVuSans-6d" x="85.742188"/>
      <use xlink:href="#DejaVuSans-65" x="183.154297"/>
      <use xlink:href="#DejaVuSans-20" x="244.677734"/>
      <use xlink:href="#DejaVuSans-5b" x="276.464844"/>
      <use xlink:href="#DejaVuSans-64" x="315.478516"/>
      <use xlink:href="#DejaVuSans-5d" x="378.955078"/>
     </g>
    </g>
   </g>
   <g id="matplotlib.axis_6">
    <g id="ytick_12">
     <g id="line2d_82">
      <path d="M 59.518 366.872339 
L 534.5198 366.872339 
" clip-path="url(#p62f4e2a981)" style="fill: none; stroke-dasharray: 2.96,1.28; stroke-dashoffset: 0; stroke: #b0b0b0; stroke-width: 0.8"/>
     </g>
     <g id="line2d_83">
      <g>
       <use xlink:href="#m74ec3085d3" x="59.518" y="366.872339" style="stroke: #000000; stroke-width: 0.8"/>
      </g>
     </g>
     <g id="text_30">
      <!-- 7.2 -->
      <g transform="translate(36.614875 370.671558) scale(0.1 -0.1)">
       <defs>
        <path id="DejaVuSans-2e" d="M 684 794 
L 1344 794 
L 1344 0 
L 684 0 
L 684 794 
z
" transform="scale(0.015625)"/>
       </defs>
       <use xlink:href="#DejaVuSans-37"/>
       <use xlink:href="#DejaVuSans-2e" x="63.623047"/>
       <use xlink:href="#DejaVuSans-32" x="95.410156"/>
      </g>
     </g>
    </g>
    <g id="ytick_13">
     <g id="line2d_84">
      <path d="M 59.518 325.328582 
L 534.5198 325.328582 
" clip-path="url(#p62f4e2a981)" style="fill: none; stroke-dasharray: 2.96,1.28; stroke-dashoffset: 0; stroke: #b0b0b0; stroke-width: 0.8"/>
     </g>
     <g id="line2d_85">
      <g>
       <use xlink:href="#m74ec3085d3" x="59.518" y="325.328582" style="stroke: #000000; stroke-width: 0.8"/>
      </g>
     </g>
     <g id="text_31">
      <!-- 7.4 -->
      <g transform="translate(36.614875 329.127801) scale(0.1 -0.1)">
       <use xlink:href="#DejaVuSans-37"/>
       <use xlink:href="#DejaVuSans-2e" x="63.623047"/>
       <use xlink:href="#DejaVuSans-34" x="95.410156"/>
      </g>
     </g>
    </g>
    <g id="text_32">
     <!-- $pH \; [-]$ -->
     <g transform="translate(30.514875 372.8864) rotate(-90) scale(0.1 -0.1)">
      <defs>
       <path id="DejaVuSans-Oblique-70" d="M 3175 2156 
Q 3175 2616 2975 2859 
Q 2775 3103 2400 3103 
Q 2144 3103 1911 2972 
Q 1678 2841 1497 2591 
Q 1319 2344 1212 1994 
Q 1106 1644 1106 1300 
Q 1106 863 1306 627 
Q 1506 391 1875 391 
Q 2147 391 2380 519 
Q 2613 647 2778 891 
Q 2956 1147 3065 1494 
Q 3175 1841 3175 2156 
z
M 1394 2969 
Q 1625 3272 1939 3428 
Q 2253 3584 2638 3584 
Q 3175 3584 3472 3232 
Q 3769 2881 3769 2247 
Q 3769 1728 3584 1258 
Q 3400 788 3053 416 
Q 2822 169 2531 39 
Q 2241 -91 1919 -91 
Q 1547 -91 1294 64 
Q 1041 219 916 525 
L 556 -1331 
L -19 -1331 
L 922 3500 
L 1497 3500 
L 1394 2969 
z
" transform="scale(0.015625)"/>
       <path id="DejaVuSans-2212" d="M 678 2272 
L 4684 2272 
L 4684 1741 
L 678 1741 
L 678 2272 
z
" transform="scale(0.015625)"/>
      </defs>
      <use xlink:href="#DejaVuSans-Oblique-70" transform="translate(0 0.015625)"/>
      <use xlink:href="#DejaVuSans-Oblique-48" transform="translate(63.476562 0.015625)"/>
      <use xlink:href="#DejaVuSans-5b" transform="translate(165.731011 0.015625)"/>
      <use xlink:href="#DejaVuSans-2212" transform="translate(204.744683 0.015625)"/>
      <use xlink:href="#DejaVuSans-5d" transform="translate(288.533745 0.015625)"/>
     </g>
    </g>
   </g>
   <g id="line2d_86">
    <path d="M 59.518 341.361012 
L 60.177725 342.212905 
L 61.167312 342.826025 
L 62.486761 343.322339 
L 64.136073 343.689342 
L 66.774972 344.010298 
L 72.382632 344.404291 
L 90.525062 345.389275 
L 106.688318 346.163416 
L 107.01818 347.854483 
L 107.677905 349.767703 
L 108.337629 350.88879 
L 108.997354 351.611457 
L 109.986941 352.255153 
L 111.306391 352.71495 
L 114.275152 353.368691 
L 129.448821 356.434186 
L 141.323866 358.554922 
L 154.51836 360.704326 
L 155.178085 359.981106 
L 156.497534 359.023491 
L 157.157259 358.804542 
L 158.806571 358.650191 
L 161.44547 358.632021 
L 167.05313 358.904883 
L 188.164321 360.23283 
L 202.01854 361.165993 
L 202.678265 360.677274 
L 206.306751 358.89585 
L 208.615787 358.400471 
L 210.924824 358.168542 
L 215.213034 358.007423 
L 226.758217 357.854246 
L 244.570785 357.842042 
L 270.629911 358.067781 
L 323.737751 358.803625 
L 411.481139 359.966842 
L 484.380721 360.699117 
L 502.523151 360.848019 
L 502.523151 360.848019 
" clip-path="url(#p62f4e2a981)" style="fill: none; stroke: #000000; stroke-linecap: square"/>
   </g>
   <g id="LineCollection_3">
    <path d="M 59.518 387.644218 
L 502.853013 387.644218 
" clip-path="url(#p62f4e2a981)" style="fill: none; stroke: #ffffff; stroke-width: 0.1"/>
   </g>
   <g id="LineCollection_4">
    <path d="M 59.518 325.328582 
L 502.853013 325.328582 
" clip-path="url(#p62f4e2a981)" style="fill: none; stroke: #ffffff; stroke-width: 0.1"/>
   </g>
   <g id="line2d_87">
    <path d="M 59.518 340.382358 
L 59.848108 341.299673 
L 60.178216 341.713462 
L 60.838432 342.088322 
L 62.488972 342.594061 
L 64.46962 342.931398 
L 67.110483 343.123189 
L 73.712643 343.301663 
L 106.063225 343.874651 
L 107.053549 343.888248 
L 107.383657 345.488608 
L 108.043873 347.091318 
L 108.704089 347.983394 
L 109.694413 348.8122 
L 110.684736 349.306254 
L 112.005168 349.710803 
L 114.646032 350.237561 
L 122.238516 351.446219 
L 132.471863 352.85193 
L 144.685858 354.294261 
L 154.919205 355.359386 
L 155.579421 354.639097 
L 156.899853 353.710824 
L 157.560069 353.491049 
L 159.870825 353.216475 
L 162.841797 353.101827 
L 169.443956 353.15962 
L 191.891299 353.631708 
L 202.454754 353.898288 
L 203.11497 353.391686 
L 206.41605 351.709147 
L 208.396698 351.191279 
L 210.707454 350.813779 
L 214.008533 350.540436 
L 221.601017 350.19622 
L 237.116092 349.726046 
L 258.57311 349.311465 
L 290.593584 348.93579 
L 351.66356 348.480712 
L 502.853013 347.531164 
L 502.853013 347.531164 
" clip-path="url(#p62f4e2a981)" style="fill: none; stroke-dasharray: 1.5,2.475; stroke-dashoffset: 0; stroke: #000000; stroke-width: 1.5"/>
   </g>
   <g id="patch_15">
    <path d="M 59.518 390.76 
L 59.518 322.2128 
" style="fill: none; stroke: #000000; stroke-width: 0.8; stroke-linejoin: miter; stroke-linecap: square"/>
   </g>
   <g id="patch_16">
    <path d="M 534.5198 390.76 
L 534.5198 322.2128 
" style="fill: none; stroke: #000000; stroke-width: 0.8; stroke-linejoin: miter; stroke-linecap: square"/>
   </g>
   <g id="patch_17">
    <path d="M 59.518 390.76 
L 534.5198 390.76 
" style="fill: none; stroke: #000000; stroke-width: 0.8; stroke-linejoin: miter; stroke-linecap: square"/>
   </g>
   <g id="patch_18">
    <path d="M 59.518 322.2128 
L 534.5198 322.2128 
" style="fill: none; stroke: #000000; stroke-width: 0.8; stroke-linejoin: miter; stroke-linecap: square"/>
   </g>
   <g id="legend_3">
    <g id="patch_19">
     <path d="M 452.7198 358.975397 
L 527.5198 358.975397 
Q 529.5198 358.975397 529.5198 356.975397 
L 529.5198 328.578523 
Q 529.5198 326.578523 527.5198 326.578523 
L 452.7198 326.578523 
Q 450.7198 326.578523 450.7198 328.578523 
L 450.7198 356.975397 
Q 450.7198 358.975397 452.7198 358.975397 
z
" style="fill: #ffffff; opacity: 0.8; stroke: #cccccc; stroke-linejoin: miter"/>
    </g>
    <g id="line2d_88">
     <path d="M 454.7198 334.67696 
L 464.7198 334.67696 
L 474.7198 334.67696 
" style="fill: none; stroke: #000000; stroke-linecap: square"/>
    </g>
    <g id="text_33">
     <!-- $pH_{nom+\sigma}$ -->
     <g transform="translate(482.7198 338.17696) scale(0.1 -0.1)">
      <use xlink:href="#DejaVuSans-Oblique-70" transform="translate(0 0.09375)"/>
      <use xlink:href="#DejaVuSans-Oblique-48" transform="translate(63.476562 0.09375)"/>
      <use xlink:href="#DejaVuSans-Oblique-6e" transform="translate(138.671875 -16.3125) scale(0.7)"/>
      <use xlink:href="#DejaVuSans-Oblique-6f" transform="translate(183.037109 -16.3125) scale(0.7)"/>
      <use xlink:href="#DejaVuSans-Oblique-6d" transform="translate(225.864258 -16.3125) scale(0.7)"/>
      <use xlink:href="#DejaVuSans-2b" transform="translate(307.69043 -16.3125) scale(0.7)"/>
      <use xlink:href="#DejaVuSans-Oblique-3c3" transform="translate(379.980469 -16.3125) scale(0.7)"/>
     </g>
    </g>
    <g id="line2d_89">
     <path d="M 454.7198 349.375398 
L 464.7198 349.375398 
L 474.7198 349.375398 
" style="fill: none; stroke-dasharray: 1.5,2.475; stroke-dashoffset: 0; stroke: #000000; stroke-width: 1.5"/>
    </g>
    <g id="text_34">
     <!-- $pH_{nom}$ -->
     <g transform="translate(482.7198 352.875398) scale(0.1 -0.1)">
      <use xlink:href="#DejaVuSans-Oblique-70" transform="translate(0 0.09375)"/>
      <use xlink:href="#DejaVuSans-Oblique-48" transform="translate(63.476562 0.09375)"/>
      <use xlink:href="#DejaVuSans-Oblique-6e" transform="translate(138.671875 -16.3125) scale(0.7)"/>
      <use xlink:href="#DejaVuSans-Oblique-6f" transform="translate(183.037109 -16.3125) scale(0.7)"/>
      <use xlink:href="#DejaVuSans-Oblique-6d" transform="translate(225.864258 -16.3125) scale(0.7)"/>
     </g>
    </g>
   </g>
  </g>
  <g id="axes_4">
   <g id="matplotlib.axis_7">
    <g id="ytick_14">
     <g id="line2d_90">
      <defs>
       <path id="m3b8d53509c" d="M 0 0 
L 3.5 0 
" style="stroke: #000000; stroke-width: 0.8"/>
      </defs>
      <g>
       <use xlink:href="#m3b8d53509c" x="534.5198" y="151.7104" style="stroke: #000000; stroke-width: 0.8"/>
      </g>
     </g>
     <g id="text_35">
      <!-- 0 -->
      <g transform="translate(541.5198 155.509619) scale(0.1 -0.1)">
       <use xlink:href="#DejaVuSans-30"/>
      </g>
     </g>
    </g>
    <g id="ytick_15">
     <g id="line2d_91">
      <g>
       <use xlink:href="#m3b8d53509c" x="534.5198" y="117.4368" style="stroke: #000000; stroke-width: 0.8"/>
      </g>
     </g>
     <g id="text_36">
      <!-- 2 -->
      <g transform="translate(541.5198 121.236019) scale(0.1 -0.1)">
       <use xlink:href="#DejaVuSans-32"/>
      </g>
     </g>
    </g>
    <g id="ytick_16">
     <g id="line2d_92">
      <g>
       <use xlink:href="#m3b8d53509c" x="534.5198" y="83.1632" style="stroke: #000000; stroke-width: 0.8"/>
      </g>
     </g>
     <g id="text_37">
      <!-- 4 -->
      <g transform="translate(541.5198 86.962419) scale(0.1 -0.1)">
       <use xlink:href="#DejaVuSans-34"/>
      </g>
     </g>
    </g>
    <g id="ytick_17">
     <g id="line2d_93">
      <g>
       <use xlink:href="#m3b8d53509c" x="534.5198" y="48.8896" style="stroke: #000000; stroke-width: 0.8"/>
      </g>
     </g>
     <g id="text_38">
      <!-- 6 -->
      <g transform="translate(541.5198 52.688819) scale(0.1 -0.1)">
       <use xlink:href="#DejaVuSans-36"/>
      </g>
     </g>
    </g>
    <g id="ytick_18">
     <g id="line2d_94">
      <g>
       <use xlink:href="#m3b8d53509c" x="534.5198" y="14.616" style="stroke: #000000; stroke-width: 0.8"/>
      </g>
     </g>
     <g id="text_39">
      <!-- 8 -->
      <g transform="translate(541.5198 18.415219) scale(0.1 -0.1)">
       <use xlink:href="#DejaVuSans-38"/>
      </g>
     </g>
    </g>
    <g id="text_40">
     <!-- $\dot V_{feed,manure} \; [m^3/d]$ -->
     <g transform="translate(562.4823 127.5132) rotate(-90) scale(0.1 -0.1)">
      <defs>
       <path id="DejaVuSans-Oblique-75" d="M 428 1388 
L 838 3500 
L 1416 3500 
L 1006 1409 
Q 975 1256 961 1147 
Q 947 1038 947 966 
Q 947 700 1109 554 
Q 1272 409 1569 409 
Q 2031 409 2368 721 
Q 2706 1034 2809 1563 
L 3194 3500 
L 3769 3500 
L 3091 0 
L 2516 0 
L 2631 550 
Q 2388 244 2052 76 
Q 1716 -91 1338 -91 
Q 878 -91 622 161 
Q 366 413 366 863 
Q 366 956 381 1097 
Q 397 1238 428 1388 
z
" transform="scale(0.015625)"/>
       <path id="DejaVuSans-Oblique-72" d="M 2853 2969 
Q 2766 3016 2653 3041 
Q 2541 3066 2413 3066 
Q 1953 3066 1609 2717 
Q 1266 2369 1153 1784 
L 800 0 
L 225 0 
L 909 3500 
L 1484 3500 
L 1375 2956 
Q 1603 3259 1920 3421 
Q 2238 3584 2597 3584 
Q 2691 3584 2781 3573 
Q 2872 3563 2963 3538 
L 2853 2969 
z
" transform="scale(0.015625)"/>
      </defs>
      <use xlink:href="#DejaVuSans-307" transform="translate(66.195312 30.015625)"/>
      <use xlink:href="#DejaVuSans-Oblique-56" transform="translate(0 0.609375)"/>
      <use xlink:href="#DejaVuSans-Oblique-66" transform="translate(69.365234 -15.796875) scale(0.7)"/>
      <use xlink:href="#DejaVuSans-Oblique-65" transform="translate(94.008789 -15.796875) scale(0.7)"/>
      <use xlink:href="#DejaVuSans-Oblique-65" transform="translate(137.075195 -15.796875) scale(0.7)"/>
      <use xlink:href="#DejaVuSans-Oblique-64" transform="translate(180.141602 -15.796875) scale(0.7)"/>
      <use xlink:href="#DejaVuSans-2c" transform="translate(224.575195 -15.796875) scale(0.7)"/>
      <use xlink:href="#DejaVuSans-Oblique-6d" transform="translate(260.463867 -15.796875) scale(0.7)"/>
      <use xlink:href="#DejaVuSans-Oblique-61" transform="translate(328.652344 -15.796875) scale(0.7)"/>
      <use xlink:href="#DejaVuSans-Oblique-6e" transform="translate(371.547852 -15.796875) scale(0.7)"/>
      <use xlink:href="#DejaVuSans-Oblique-75" transform="translate(415.913086 -15.796875) scale(0.7)"/>
      <use xlink:href="#DejaVuSans-Oblique-72" transform="translate(460.27832 -15.796875) scale(0.7)"/>
      <use xlink:href="#DejaVuSans-Oblique-65" transform="translate(489.057617 -15.796875) scale(0.7)"/>
      <use xlink:href="#DejaVuSans-5b" transform="translate(561.917534 0.609375)"/>
      <use xlink:href="#DejaVuSans-Oblique-6d" transform="translate(600.931206 0.609375)"/>
      <use xlink:href="#DejaVuSans-33" transform="translate(702.993211 38.890625) scale(0.7)"/>
      <use xlink:href="#DejaVuSans-2f" transform="translate(750.263719 0.609375)"/>
      <use xlink:href="#DejaVuSans-Oblique-64" transform="translate(783.955125 0.609375)"/>
      <use xlink:href="#DejaVuSans-5d" transform="translate(847.431688 0.609375)"/>
     </g>
    </g>
   </g>
   <g id="line2d_95">
    <path d="M 59.518 57.324798 
L 59.847862 89.729271 
L 60.177725 107.222774 
L 60.507587 117.583093 
L 60.837449 123.999293 
L 61.167312 128.085415 
L 61.497174 130.738271 
L 62.156899 133.652006 
L 62.816624 134.978239 
L 63.476348 135.617781 
L 64.136073 135.952391 
L 65.455522 136.278999 
L 68.094421 136.599719 
L 75.021531 137.160435 
L 85.247264 137.756311 
L 97.782034 138.249807 
L 106.688318 138.493022 
L 107.01818 7.472102 
L 107.677905 62.816595 
L 108.337629 89.82042 
L 108.997354 104.496643 
L 109.657079 112.78131 
L 110.316804 117.54422 
L 110.976528 120.317803 
L 111.636253 121.958063 
L 112.295978 122.952654 
L 112.955703 123.580999 
L 113.94529 124.166471 
L 115.264739 124.655856 
L 117.903638 125.352442 
L 123.181436 126.492238 
L 129.118958 127.542185 
L 135.716205 128.477669 
L 143.30304 129.320014 
L 151.879461 130.045409 
L 154.51836 130.230292 
L 154.848222 151.710464 
L 157.157259 151.705283 
L 157.816984 144.726673 
L 158.476708 141.29184 
L 159.136433 139.524714 
L 159.796158 138.588877 
L 160.455882 138.078964 
L 161.44547 137.69345 
L 162.764919 137.464039 
L 165.73368 137.236414 
L 174.969826 136.818545 
L 188.494183 136.426994 
L 202.01854 136.199453 
L 202.348402 151.710468 
L 206.306751 151.710236 
L 206.966475 147.512675 
L 207.6262 145.227845 
L 208.285925 144.132574 
L 208.94565 143.575693 
L 209.935237 143.163144 
L 211.584548 142.838327 
L 215.542897 142.377199 
L 223.459593 141.684494 
L 233.025602 141.069918 
L 244.570785 140.557904 
L 258.754866 140.159021 
L 277.557021 139.865495 
L 304.935597 139.680099 
L 354.414951 139.602331 
L 502.523151 139.635594 
L 502.523151 139.635594 
" clip-path="url(#p3b22d6d8a9)" style="fill: none; stroke: #a0522d; stroke-width: 1.166667; stroke-linecap: square"/>
   </g>
   <g id="LineCollection_5">
    <path clip-path="url(#p3b22d6d8a9)" style="fill: none; stroke-dasharray: 5,5; stroke-dashoffset: 0; stroke: #000000"/>
   </g>
   <g id="patch_20">
    <path d="M 59.518 151.7104 
L 59.518 14.616 
" style="fill: none; stroke: #000000; stroke-width: 0.8; stroke-linejoin: miter; stroke-linecap: square"/>
   </g>
   <g id="patch_21">
    <path d="M 534.5198 151.7104 
L 534.5198 14.616 
" style="fill: none; stroke: #000000; stroke-width: 0.8; stroke-linejoin: miter; stroke-linecap: square"/>
   </g>
   <g id="patch_22">
    <path d="M 59.518 151.7104 
L 534.5198 151.7104 
" style="fill: none; stroke: #000000; stroke-width: 0.8; stroke-linejoin: miter; stroke-linecap: square"/>
   </g>
   <g id="patch_23">
    <path d="M 59.518 14.616 
L 534.5198 14.616 
" style="fill: none; stroke: #000000; stroke-width: 0.8; stroke-linejoin: miter; stroke-linecap: square"/>
   </g>
   <g id="legend_4">
    <g id="patch_24">
     <path d="M 423.87605 37.294125 
L 527.5198 37.294125 
Q 529.5198 37.294125 529.5198 35.294125 
L 529.5198 21.616 
Q 529.5198 19.616 527.5198 19.616 
L 423.87605 19.616 
Q 421.87605 19.616 421.87605 21.616 
L 421.87605 35.294125 
Q 421.87605 37.294125 423.87605 37.294125 
z
" style="fill: #ffffff; opacity: 0.8; stroke: #cccccc; stroke-linejoin: miter"/>
    </g>
    <g id="line2d_96">
     <path d="M 425.87605 27.714438 
L 435.87605 27.714438 
L 445.87605 27.714438 
" style="fill: none; stroke: #a0522d; stroke-width: 1.166667; stroke-linecap: square"/>
    </g>
    <g id="text_41">
     <!-- Cattle manure -->
     <g transform="translate(453.87605 31.214438) scale(0.1 -0.1)">
      <defs>
       <path id="DejaVuSans-43" d="M 4122 4306 
L 4122 3641 
Q 3803 3938 3442 4084 
Q 3081 4231 2675 4231 
Q 1875 4231 1450 3742 
Q 1025 3253 1025 2328 
Q 1025 1406 1450 917 
Q 1875 428 2675 428 
Q 3081 428 3442 575 
Q 3803 722 4122 1019 
L 4122 359 
Q 3791 134 3420 21 
Q 3050 -91 2638 -91 
Q 1578 -91 968 557 
Q 359 1206 359 2328 
Q 359 3453 968 4101 
Q 1578 4750 2638 4750 
Q 3056 4750 3426 4639 
Q 3797 4528 4122 4306 
z
" transform="scale(0.015625)"/>
      </defs>
      <use xlink:href="#DejaVuSans-43"/>
      <use xlink:href="#DejaVuSans-61" x="69.824219"/>
      <use xlink:href="#DejaVuSans-74" x="131.103516"/>
      <use xlink:href="#DejaVuSans-74" x="170.3125"/>
      <use xlink:href="#DejaVuSans-6c" x="209.521484"/>
      <use xlink:href="#DejaVuSans-65" x="237.304688"/>
      <use xlink:href="#DejaVuSans-20" x="298.828125"/>
      <use xlink:href="#DejaVuSans-6d" x="330.615234"/>
      <use xlink:href="#DejaVuSans-61" x="428.027344"/>
      <use xlink:href="#DejaVuSans-6e" x="489.306641"/>
      <use xlink:href="#DejaVuSans-75" x="552.685547"/>
      <use xlink:href="#DejaVuSans-72" x="616.064453"/>
      <use xlink:href="#DejaVuSans-65" x="654.927734"/>
     </g>
    </g>
   </g>
  </g>
 </g>
 <defs>
  <clipPath id="p3b22d6d8a9">
   <rect x="59.518" y="14.616" width="475.0018" height="137.0944"/>
  </clipPath>
  <clipPath id="p40ff65883f">
   <rect x="59.518" y="168.4144" width="475.0018" height="137.0944"/>
  </clipPath>
  <clipPath id="p62f4e2a981">
   <rect x="59.518" y="322.2128" width="475.0018" height="68.5472"/>
  </clipPath>
 </defs>
</svg>
